<svg height="512pt" viewBox="0 -1 512.00009 512" width="512pt" xmlns="http://www.w3.org/2000/svg"><path d="m362.667969 255.019531c0 58.910157-47.757813 106.664063-106.667969 106.664063s-106.667969-47.753906-106.667969-106.664063c0-58.910156 47.757813-106.667969 106.667969-106.667969s106.667969 47.757813 106.667969 106.667969zm0 0" fill="#f44336"/><path d="m256.019531 511.019531c-17.683593 0-35.324219-1.8125-52.476562-5.378906-8.640625-1.8125-14.1875-10.28125-12.394531-18.941406 1.8125-8.640625 10.238281-14.230469 18.941406-12.394531 25.8125 5.394531 53.164062 6.144531 79.210937 2.261718 8.511719-1.367187 16.875 4.734375 18.199219 13.460938 1.300781 8.746094-4.738281 16.875-13.484375 18.175781-12.480469 1.855469-25.257813 2.816406-37.996094 2.816406zm116.011719-29.847656c-5.652344 0-11.113281-2.984375-14.015625-8.253906-4.265625-7.722657-1.472656-17.472657 6.25-21.761719 23.339844-12.90625 43.992187-29.738281 61.460937-49.984375 5.78125-6.699219 15.875-7.445313 22.570313-1.664063 6.699219 5.761719 7.46875 15.875 1.6875 22.570313-19.945313 23.128906-43.5625 42.328125-70.207031 57.089844-2.453125 1.34375-5.121094 2.003906-7.746094 2.003906zm-243.925781-7.015625c-2.921875 0-5.84375-.792969-8.511719-2.476562-25.769531-16.257813-48.277344-36.777344-66.835938-60.992188-5.398437-7.019531-4.054687-17.066406 2.964844-22.441406 6.996094-5.398438 17.046875-4.054688 22.421875 2.964844 16.277344 21.203124 35.96875 39.167968 58.539063 53.417968 7.464844 4.714844 9.707031 14.59375 4.992187 22.058594-3.050781 4.820312-8.257812 7.46875-13.570312 7.46875zm352.960937-119.574219c-1.855468 0-3.734375-.320312-5.566406-1.003906-8.300781-3.070313-12.523438-12.289063-9.429688-20.566406 9.238282-24.894531 13.929688-51.132813 13.929688-77.992188 0-8.832031 7.167969-16 16-16s16 7.167969 16 16c0 30.675781-5.355469 60.648438-15.9375 89.128907-2.386719 6.441406-8.511719 10.433593-14.996094 10.433593zm-454.570312-13.058593c-6.847656 0-13.183594-4.4375-15.296875-11.304688-7.445313-24.320312-11.2187502-49.621094-11.199219-75.199219 0-4.90625.128906-9.8125.425781-14.679687.535157-8.832032 8.449219-15.53125 16.941407-15.015625 8.808593.511719 15.550781 8.105469 15.015624 16.914062-.253906 4.226563-.382812 8.492188-.382812 12.78125-.019531 22.398438 3.265625 44.542969 9.792969 65.8125 2.601562 8.449219-2.15625 17.386719-10.605469 19.988281-1.554688.492188-3.15625.703126-4.691406.703126zm462.613281-127.804688c-7.1875 0-13.738281-4.886719-15.53125-12.183594-6.355469-25.898437-17.195313-50.21875-32.234375-72.320312-4.96875-7.296875-3.09375-17.257813 4.222656-22.226563 7.320313-4.992187 17.261719-3.074219 22.230469 4.222657 17.195313 25.257812 29.589844 53.078124 36.863281 82.6875 2.113282 8.574218-3.132812 17.257812-11.730468 19.347656-1.261719.34375-2.5625.472656-3.820313.472656zm-453.011719-39c-2.15625 0-4.332031-.425781-6.421875-1.34375-8.109375-3.5625-11.796875-12.96875-8.234375-21.078125 12.203125-27.902344 29.183594-53.183594 50.453125-75.175781 6.1875-6.316406 16.320313-6.53125 22.65625-.363282 6.355469 6.144532 6.527344 16.277344.382813 22.632813-18.601563 19.242187-33.449219 41.367187-44.160156 65.773437-2.644532 5.992188-8.535157 9.554688-14.675782 9.554688zm359.144532-99.175781c-3.199219 0-6.464844-.960938-9.28125-2.988281-21.78125-15.550782-45.84375-26.945313-71.59375-33.855469-8.511719-2.285157-13.589844-11.074219-11.285157-19.605469 2.324219-8.535156 11.117188-13.546875 19.628907-11.285156 29.417968 7.914062 56.957031 20.949218 81.855468 38.71875 7.1875 5.140625 8.851563 15.125 3.730469 22.316406-3.132813 4.371094-8.039063 6.699219-13.054687 6.699219zm-243.027344-20.972657c-5.976563 0-11.691406-3.347656-14.445313-9.066406-3.839843-7.957031-.46875-17.515625 7.488281-21.332031 27.5-13.226563 56.855469-21.335937 87.277344-24.0859375 8.636719-.9179685 16.574219 5.6953125 17.363282 14.4843745.789062 8.8125-5.695313 16.574219-14.507813 17.386719-26.578125 2.410157-52.242187 9.492188-76.265625 21.035157-2.238281 1.085937-4.609375 1.578124-6.910156 1.578124zm0 0"/><path d="m256 361.683594c-58.816406 0-106.667969-47.847656-106.667969-106.664063 0-58.816406 47.851563-106.667969 106.667969-106.667969s106.667969 47.851563 106.667969 106.667969c0 58.816407-47.851563 106.664063-106.667969 106.664063zm0-181.332032c-41.171875 0-74.667969 33.492188-74.667969 74.667969 0 41.171875 33.496094 74.664063 74.667969 74.664063s74.667969-33.492188 74.667969-74.664063c0-41.175781-33.496094-74.667969-74.667969-74.667969zm0 0"/></svg>