<svg id="Capa_1" enable-background="new 0 0 512 512" height="512" viewBox="0 0 512 512" width="512" xmlns="http://www.w3.org/2000/svg"><g><path d="m287.536 451.823 19.817 5.059 17.147-5.059 13.912-30.553-13.912-30.554-33.206-5.128-41.293 5.128z" fill="#e6f6ff"/><path d="m361.464 451.823 37.535-61.107-39.587-5.128-34.912 5.128v61.107l18.482 6.001z" fill="#bee3ed"/><g><g><path d="m76.536 451.823 36.964 60.177 11.029-35.588-11.029-24.589-15-5.764z" fill="#fcbe2c"/><path d="m113.5 451.823v60.177l36.964-60.177-21.964-8.117z" fill="#fc9126"/></g><g><path d="m38.5 74.96v16.402l40.147 7.638 34.853-7.638 15-38.245-15-53.117c-41.355 0-75 33.627-75 74.96z" fill="#ff7f7d"/><path d="m188.5 74.96c0-41.333-33.645-74.96-75-74.96v91.362l40.676 7.638 34.324-7.638z" fill="#c92e42"/></g><g><path d="m38.5 121.346.501 269.37 40.587 6.637 33.912-6.637 18.482-150.901-18.482-118.469-38.029-7.056z" fill="#fff27e"/><path d="m188.5 121.346-34.324-7.056-40.676 7.056v269.37l36.964 6.637 37.535-6.637z" fill="#fcbe2c"/></g><g><path d="m39.001 390.716 37.535 61.107h36.964l15-30.553-15-30.554z" fill="#e6f6ff"/><path d="m187.999 390.716h-74.499v61.107h36.964z" fill="#bee3ed"/></g><g><g><path d="m98.5 106.354v284.362h15l11.029-131.151-11.029-153.211z" fill="#fcbe2c"/><g><path d="m113.5 106.354h15v284.362h-15z" fill="#fc9126"/></g></g></g><g><path d="m38.5 91.362v29.984h75l11.029-16.346-11.029-13.638z" fill="#e6f6ff"/><path d="m113.5 91.362h75v29.984h-75z" fill="#bee3ed"/></g></g><path d="m249.5 74.96.026 16.402 39.003 9.52 35.971-9.52 19.324-41.862-19.324-49.5c-41.355 0-75 33.627-75 74.96z" fill="#3869ad"/><path d="m399.5 74.96c0-41.333-33.645-74.96-75-74.96v91.362l37.487 9.52 37.487-9.52z" fill="#00457f"/><path d="m249.859 301.245 35.141 8.343 39.5-8.343 22.853-92.127-22.853-87.772-36.912-7.056-38.062 7.056z" fill="#3869ad"/><path d="m250.001 390.716h74.499l13.912-48.187-13.912-41.284h-74.641z" fill="#28e7ef"/><path d="m249.5 91.362v29.984h75l11.794-14.992-11.794-14.992z" fill="#28e7ef"/><path d="m399.141 301.245.333-179.899-37.487-7.056-37.487 7.056v179.899l37.487 8.343z" fill="#00457f"/><path d="m398.999 390.716.142-89.471h-74.641v89.471z" fill="#1cace7"/><path d="m418.5 91.362h-94v29.984h94c13.785 0 25 11.209 25 24.987v149.92h30v-149.92c0-30.311-24.673-54.971-55-54.971z" fill="#1cace7"/><path d="m324.5 512 7.794-37.471-7.794-22.706h-36.964z" fill="#3869ad"/><path d="m361.464 451.823h-36.964v60.177z" fill="#00457f"/></g></svg>