<svg id="Capa_1" enable-background="new 0 0 511.915 511.915" height="512" viewBox="0 0 511.915 511.915" width="512" xmlns="http://www.w3.org/2000/svg"><g><g><path d="m66.661 243.994h378.594v172.813h-378.594z" fill="#e19974"/><path d="m47.581 485.23v-242.617h38.16v242.617c0 4.393-3.561 7.955-7.955 7.955h-22.251c-4.393 0-7.954-3.561-7.954-7.955z" fill="#c86d36"/><path d="m426.175 485.23v-242.617h38.16v242.617c0 4.393-3.561 7.955-7.955 7.955h-22.251c-4.393 0-7.954-3.561-7.954-7.955z" fill="#ac5e2e"/><path d="m174.937 242.612h-120.313c-4.393 0-7.955-3.561-7.955-7.955v-61.644c0-4.393 3.561-7.955 7.955-7.955h120.314c4.393 0 7.955 3.561 7.955 7.955v61.644c-.001 4.393-3.562 7.955-7.956 7.955z" fill="#0067c5"/><path d="m382.657 161.051h-38.374-38.374l-7.895 73.617h46.269 46.269z" fill="#838383"/><path d="m450.936 7.458h-213.306c-7.903 0-14.31 6.407-14.31 14.31v137.77h241.926v-137.77c0-7.903-6.407-14.31-14.31-14.31z" fill="#d3e1f5"/><path d="m465.246 172.499v-40.233h-241.926v40.233c0 7.903 6.407 14.31 14.31 14.31h213.306c7.903 0 14.31-6.407 14.31-14.31z" fill="#bfbfbf"/><path d="m494.099 264.076h-476.283c-4.942 0-8.949-4.007-8.949-8.949v-25.032c0-4.942 4.007-8.949 8.949-8.949h476.283c4.942 0 8.949 4.007 8.949 8.949v25.032c0 4.943-4.006 8.949-8.949 8.949z" fill="#9e5528"/><path d="m450.936 7.458h-39.46c7.903 0 14.31 6.407 14.31 14.31v137.77h39.46v-137.771c0-7.903-6.407-14.309-14.31-14.309z" fill="#c0d6f2"/><path d="m425.786 132.266v40.233c0 7.903-6.407 14.31-14.31 14.31h39.46c7.903 0 14.31-6.407 14.31-14.31v-40.233z" fill="#acacac"/><path d="m494.099 221.146h-39.46c4.942 0 8.949 4.007 8.949 8.949v25.032c0 4.943-4.007 8.949-8.949 8.949h39.46c4.942 0 8.949-4.006 8.949-8.949v-25.032c0-4.942-4.006-8.949-8.949-8.949z" fill="#904d24"/><g><path d="m315.191 235.538h-119.68c-16.289 0-29.495-13.205-29.495-29.495v-71.63c0-16.289 13.205-29.495 29.495-29.495h119.68c16.289 0 29.495 13.205 29.495 29.495v71.63c0 16.29-13.205 29.495-29.495 29.495z" fill="#ca2c2c"/><path d="m241.648 342.622h28.62v65.73h-28.62z" fill="#838383"/><g><path d="m351.381 476.205c-7.688 0-13.921-6.233-13.921-13.921v-33.708c0-3.476-2.828-6.304-6.304-6.304h-151.609c-3.476 0-6.304 2.828-6.304 6.304v33.708c0 7.688-6.233 13.921-13.921 13.921s-13.921-6.233-13.921-13.921v-33.708c0-18.828 15.318-34.146 34.146-34.146h151.608c18.828 0 34.146 15.318 34.146 34.146v33.708c0 7.688-6.232 13.921-13.92 13.921z" fill="#838383"/></g><g><path d="m255.958 476.205c-7.688 0-13.921-6.233-13.921-13.921v-53.933c0-7.688 6.233-13.921 13.921-13.921s13.921 6.232 13.921 13.921v53.933c-.001 7.688-6.233 13.921-13.921 13.921z" fill="#9c9c9c"/></g><path d="m167.749 504.458h-16.854c-5.585 0-10.112-4.527-10.112-10.112v-32.585c0-5.585 4.527-10.112 10.112-10.112h16.854c5.585 0 10.112 4.527 10.112 10.112v32.585c.001 5.584-4.527 10.112-10.112 10.112z" fill="#5a5a5a"/><path d="m264.385 504.458h-16.855c-5.585 0-10.112-4.527-10.112-10.112v-32.585c0-5.585 4.527-10.112 10.112-10.112h16.854c5.585 0 10.112 4.527 10.112 10.112v32.585c.001 5.584-4.527 10.112-10.111 10.112z" fill="#5a5a5a"/><path d="m331.195 363.276h-151.687c-15.126 0-27.388-12.262-27.388-27.388 0-15.126 12.262-27.388 27.388-27.388h151.687c15.126 0 27.388 12.262 27.388 27.388-.001 15.126-12.263 27.388-27.388 27.388z" fill="#ca2c2c"/><path d="m257.206 336.669h-2.496c-7.214 0-13.062-5.848-13.062-13.062v-111.249c0-7.214 5.848-13.062 13.062-13.062h2.496c7.214 0 13.062 5.848 13.062 13.062v111.249c-.001 7.214-5.849 13.062-13.062 13.062z" fill="#838383"/><path d="m315.191 104.919h-39.46c16.289 0 29.495 13.205 29.495 29.494v71.63c0 16.289-13.205 29.494-29.495 29.494h39.46c16.289 0 29.495-13.205 29.495-29.494v-71.63c0-16.289-13.205-29.494-29.495-29.494z" fill="#a72b2b"/><path d="m331.195 308.5h-39.46c15.126 0 27.388 12.262 27.388 27.388 0 15.126-12.262 27.388-27.388 27.388h39.46c15.126 0 27.388-12.262 27.388-27.388-.001-15.126-12.262-27.388-27.388-27.388z" fill="#a72b2b"/><g><path d="m331.156 394.43h-39.46c16.674 0 30.585 12.016 33.552 27.841h5.908c3.476 0 6.304 2.828 6.304 6.304v33.708c0 7.688 6.233 13.921 13.921 13.921s13.921-6.233 13.921-13.921v-33.708c-.001-18.827-15.318-34.145-34.146-34.145z" fill="#5a5a5a"/></g><path d="m359.807 504.458h-16.854c-5.585 0-10.112-4.527-10.112-10.112v-32.585c0-5.585 4.527-10.112 10.112-10.112h16.854c5.585 0 10.112 4.527 10.112 10.112v32.585c.001 5.584-4.527 10.112-10.112 10.112z" fill="#383838"/></g></g><path d="m494.099 213.689h-98.297l-2.083-19.422h57.217c12.002 0 21.768-9.765 21.768-21.768 0-7.996 0-144.776 0-150.731 0-12.003-9.766-21.768-21.768-21.768h-213.306c-12.002 0-21.768 9.765-21.768 21.768v75.694h-20.351c-20.375 0-36.952 16.577-36.952 36.952v23.188h-103.935c-8.498 0-15.412 6.914-15.412 15.412v40.676h-21.396c-9.047 0-16.407 7.36-16.407 16.406v25.032c0 9.046 7.36 16.406 16.407 16.406h22.307v213.696c0 8.498 6.914 15.412 15.412 15.412h22.251c8.498 0 15.412-6.914 15.412-15.412v-60.966h44.969c-.147 1.418-.223 2.856-.223 4.312v21.353c-2.858 3.126-4.619 7.272-4.619 11.832v32.584c0 9.688 7.882 17.57 17.57 17.57h16.854c9.688 0 17.57-7.882 17.57-17.57v-32.584c0-4.56-1.761-8.706-4.619-11.832v-20.199h53.879v20.199c-2.859 3.126-4.619 7.272-4.619 11.832v32.584c0 9.688 7.882 17.57 17.57 17.57h16.854c9.688 0 17.57-7.882 17.57-17.57v-32.584c0-4.56-1.761-8.706-4.619-11.832v-20.199h52.667v20.199c-2.859 3.126-4.619 7.272-4.619 11.832v32.584c0 9.688 7.882 17.57 17.57 17.57h16.854c9.688 0 17.57-7.882 17.57-17.57v-32.584c0-4.56-1.76-8.706-4.619-11.832v-21.353c0-1.456-.077-2.894-.223-4.312h46.182v60.966c0 8.498 6.914 15.412 15.412 15.412h22.251c8.498 0 15.412-6.914 15.412-15.412v-22.933c0-4.119-3.339-7.458-7.458-7.458s-7.458 3.339-7.458 7.458v22.933c0 .274-.223.497-.497.497h-22.251c-.274 0-.497-.223-.497-.497 0-7.201 0-202.811 0-213.697h23.245v155.962c0 4.119 3.339 7.458 7.458 7.458s7.458-3.339 7.458-7.458v-155.961h22.307c9.047 0 16.407-7.36 16.407-16.406v-25.032c0-9.047-7.36-16.407-16.407-16.407zm-36.31-41.19c0 3.778-3.074 6.853-6.853 6.853h-65.517-33.275v-39.628h105.645zm-76.987 41.19h-29.457c.002-.009.003-.019.005-.028.994-4.724.794-7.238.794-19.395h26.575zm-150.025-191.921c0-3.778 3.074-6.853 6.853-6.853h213.306c3.778 0 6.853 3.074 6.853 6.853v103.041h-106.919c-3.686-13.678-15.044-24.234-29.156-26.759-2.205-.398-4.511-.588-6.522-.588h-84.414v-75.694zm-57.303 112.646c0-12.151 9.886-22.037 22.037-22.037h119.68c1.421 0 2.859.144 4.203.407.004.001.008.001.012.002 10.234 2.008 17.823 11.053 17.823 21.628v71.63c0 4.544-1.441 9.202-4.322 13.091-.032.043-.063.086-.095.129-4.182 5.561-10.707 8.818-17.62 8.818h-37.466v-15.723c0-11.314-9.205-20.52-20.52-20.52h-2.496c-11.314 0-20.52 9.205-20.52 20.52v15.723c-41.272 0-39.742.12-42.362-.314-5.671-.959-10.614-4.087-13.936-8.504-.032-.042-.063-.086-.095-.129-2.834-3.825-4.322-8.468-4.322-13.091-.001-11.365-.001-61.128-.001-71.63zm89.336 77.943v23.181 28.538 44.424 15.107c0 3.09-2.514 5.604-5.604 5.604h-2.496c-3.09 0-5.604-2.514-5.604-5.604v-15.107-44.424-28.538-23.181c0-3.09 2.514-5.604 5.604-5.604h2.496c3.09 0 5.604 2.514 5.604 5.604zm-208.684-39.344c0-.274.223-.497.497-.497h103.936c0 34.877-.249 36.193.794 41.145.002.009.003.019.005.028h-105.232zm24.157 312.217c0 .274-.223.497-.497.497h-22.251c-.274 0-.497-.223-.497-.497v-213.696h23.245zm-60.467-228.611c-.823 0-1.492-.669-1.492-1.491v-25.032c0-.822.669-1.491 1.492-1.491h148.438c5.883 7.595 14.719 12.906 24.84 14.118.078.01.156.021.234.03 3.317.375 2.599.244 42.862.244v13.623c-10.983-.001-205.336-.001-216.374-.001zm152.588 237.726c0 1.464-1.191 2.655-2.655 2.655h-16.854c-1.464 0-2.655-1.191-2.655-2.655v-32.584c0-.858.407-1.697 1.221-2.228.645-.421 1.404-.398 2.242-.428h15.623c2.114 0 3.077 1.288 3.077 2.655v32.585zm65.155-92.389c-1.221 3.888-.979 6.677-.979 12.858h-55.032c-7.588 0-13.762 6.174-13.762 13.762v15.613c-6.244-.011-10.038-.074-12.926-.024v-15.589c0-6.11 2.066-11.778 5.584-16.308.019-.024.037-.048.056-.072 4.532-5.794 11.344-9.572 18.811-10.208 1.715-.145-2.389-.101 58.267-.101-.007.023-.012.047-.019.069zm31.481 92.389c0 1.464-1.191 2.655-2.655 2.655h-16.855c-1.464 0-2.655-1.191-2.655-2.655v-32.584c0-1.515 1.259-2.655 2.655-2.655h16.854c1.42 0 2.655 1.155 2.655 2.655v32.584zm-17.935-107.372v-16.24h13.705v16.24zm13.315 21.378v13.92 21.919h-12.926v-21.919-13.92c0-3.563 2.899-6.463 6.463-6.463s6.463 2.9 6.463 6.463zm-20.773-52.533h-62.14c-10.99 0-19.93-8.94-19.93-19.93s8.94-19.93 19.93-19.93h2.935c4.119 0 7.458-3.339 7.458-7.458s-3.339-7.458-7.458-7.458h-2.935c-19.214 0-34.845 15.631-34.845 34.845s15.631 34.845 34.845 34.845h54.682v16.24h-54.643c-1.832 0-4.063.166-5.827.417-11.467 1.615-21.442 7.92-27.926 16.909-1.333 1.844-2.24 3.38-3.019 4.848-.037.069-.079.134-.115.203h-49.461v-137.815h140.992v29.509h-16.946c-4.119 0-7.458 3.339-7.458 7.458s3.339 7.458 7.458 7.458h16.946v7.649c0 11.314 9.205 20.52 20.52 20.52h2.496c11.314 0 20.52-9.205 20.52-20.52v-7.649h53.47c10.99 0 19.93 8.94 19.93 19.93s-8.94 19.93-19.93 19.93h-60.927-28.622zm35.688 58.996v-6.463c0-2.172-.404-4.597-.999-6.463h54.819c7.974 0 15.859 3.675 21.047 10.307.019.025.039.049.058.073 3.518 4.53 5.584 10.197 5.584 16.307v15.614h-12.926v-15.614c0-7.588-6.173-13.762-13.762-13.762h-53.821zm85.127 79.531c0 1.464-1.191 2.655-2.655 2.655h-16.854c-1.464 0-2.655-1.191-2.655-2.655v-32.584c0-1.489 1.223-2.655 2.655-2.655h16.854c1.424 0 2.655 1.159 2.655 2.655zm56.255-84.996h-50.675c-.036-.069-.079-.134-.115-.203-.852-1.606-1.778-3.132-3.019-4.848-6.484-8.989-16.459-15.294-27.926-16.909-.072-.01-.145-.018-.217-.028-1.839-.249-3.922-.389-5.61-.389h-53.431v-16.24h53.47c19.214 0 34.845-15.631 34.845-34.845s-15.631-34.845-34.845-34.845h-53.47v-29.509h140.992v137.816zm76.874-154.222c0 .822-.669 1.491-1.492 1.491h-29.764c-5.881 0-177.206 0-186.61 0v-13.623h37.466c11.573 0 22.319-5.434 29.258-14.392h149.65c.823 0 1.492.669 1.492 1.491z"/></g></svg>