<svg id="Capa_1" enable-background="new 0 0 512 512" height="512" viewBox="0 0 512 512" width="512" xmlns="http://www.w3.org/2000/svg"><g><g><path d="m399.263 497.374c-10.136 2.716-20.554-3.299-23.27-13.435l-49.919-186.3c-2.716-10.136 3.299-20.554 13.435-23.27 10.136-2.716 20.554 3.299 23.27 13.435l49.919 186.3c2.716 10.135-3.299 20.554-13.435 23.27z" fill="#838383"/><path d="m112.737 497.374c10.136 2.716 20.554-3.299 23.27-13.435l49.919-186.3c2.716-10.136-3.299-20.554-13.435-23.27-10.136-2.716-20.554 3.299-23.27 13.435l-49.919 186.3c-2.716 10.135 3.299 20.554 13.435 23.27z" fill="#838383"/><path d="m362.779 287.804c-2.716-10.136-13.134-16.151-23.27-13.435-10.136 2.716-16.151 13.134-13.435 23.27l33.704 125.784h39.341z" fill="#5a5a5a"/><path d="m172.491 274.369c-10.136-2.716-20.554 3.299-23.27 13.435l-36.339 135.619h39.341l33.704-125.784c2.715-10.136-3.3-20.554-13.436-23.27z" fill="#5a5a5a"/><circle cx="256" cy="449.213" fill="#0067c5" r="20.254"/><path d="m466 383.738h-420c-7.732 0-14-6.268-14-14v-327.717h448v327.717c0 7.732-6.268 14-14 14z" fill="#d3e1f5"/><circle cx="150.209" cy="174.831" fill="#ee6161" r="75.95"/><path d="m150.209 98.881v75.95h75.95c0-41.946-34.004-75.95-75.95-75.95z" fill="#d83131"/><path d="m295.713 352.747h-17c-4.418 0-8-3.582-8-8v-97.998c0-4.418 3.582-8 8-8h17c4.418 0 8 3.582 8 8v97.998c0 4.418-3.582 8-8 8z" fill="#d83131"/><path d="m358.075 352.747h-17c-4.418 0-8-3.582-8-8v-80.366c0-4.418 3.582-8 8-8h17c4.418 0 8 3.582 8 8v80.366c0 4.418-3.582 8-8 8z" fill="#e94444"/><path d="m420.437 352.747h-17c-4.418 0-8-3.582-8-8v-49.524c0-4.418 3.582-8 8-8h17c4.418 0 8 3.582 8 8v49.524c0 4.418-3.582 8-8 8z" fill="#ee6161"/><path d="m445.984 42.021v327.717c0 7.732-6.268 14-14 14h34.016c7.732 0 14-6.268 14-14v-327.717z" fill="#c0d6f2"/><path d="m496.5 70.071h-481c-4.418 0-8-3.582-8-8v-40.1c0-4.418 3.582-8 8-8h481c4.418 0 8 3.582 8 8v40.1c0 4.418-3.582 8-8 8z" fill="#0067c5"/><path d="m496.5 13.971h-34.016c4.418 0 8 3.582 8 8v40.1c0 4.418-3.582 8-8 8h34.016c4.418 0 8-3.582 8-8v-40.1c0-4.418-3.582-8-8-8z" fill="#0055a3"/></g><g><path d="m496.5 6.471h-481c-8.547 0-15.5 6.953-15.5 15.5v40.1c0 8.547 6.953 15.5 15.5 15.5h9v85.834c0 4.142 3.358 7.5 7.5 7.5s7.5-3.358 7.5-7.5v-85.834h433v292.167c0 3.584-2.916 6.5-6.5 6.5-3.956 0-298.415 0-303.144 0-11.779 0-105.348 0-116.856 0-3.584 0-6.5-2.916-6.5-6.5v-171.333c0-4.142-3.358-7.5-7.5-7.5s-7.5 3.358-7.5 7.5v171.333c0 11.855 9.645 21.5 21.5 21.5h67.741l-21.684 80.925c-3.781 14.113 4.625 28.673 18.739 32.456 14.145 3.788 28.664-4.588 32.456-18.739l25.359-94.642h79.889v31.26c-11.67 3.281-20.254 14.011-20.254 26.716 0 15.304 12.45 27.754 27.754 27.754s27.754-12.45 27.754-27.754c0-12.705-8.584-23.435-20.254-26.716v-31.26h79.889l25.359 94.642c3.1 11.567 13.621 19.646 25.585 19.646 14.68 0 26.517-11.948 26.517-26.493 0-4.511-.374-4.879-6.917-29.296-1.072-4.001-5.186-6.375-9.186-5.304-4.001 1.072-6.375 5.185-5.304 9.186 6.586 24.577 6.406 23.39 6.406 25.414 0 6.356-5.192 11.493-11.517 11.493-5.188 0-9.751-3.507-11.096-8.528l-24.319-90.76h23.811l7.656 28.574c1.072 4 5.184 6.374 9.186 5.303 4.001-1.072 6.375-5.185 5.303-9.186l-6.616-24.691h67.743c11.855 0 21.5-9.645 21.5-21.5v-292.167h9c8.547 0 15.5-6.953 15.5-15.5v-40.1c0-8.547-6.953-15.5-15.5-15.5zm-227.746 442.742c0 7.033-5.721 12.754-12.754 12.754s-12.754-5.721-12.754-12.754 5.721-12.754 12.754-12.754 12.754 5.722 12.754 12.754zm-139.991 32.785c-1.645 6.141-7.944 9.775-14.084 8.132-6.125-1.642-9.773-7.96-8.132-14.085l22.724-84.807h23.812zm368.237-419.927c0 .276-.224.5-.5.5-6.294 0-474.825 0-481 0-.276 0-.5-.224-.5-.5v-40.1c0-.276.224-.5.5-.5h481c.276 0 .5.224.5.5z"/><path d="m150.208 91.381c-46.015 0-83.45 37.436-83.45 83.45s37.436 83.45 83.45 83.45 83.45-37.436 83.45-83.45c.001-46.018-37.438-83.45-83.45-83.45zm7.5 15.419c31.494 3.45 57.019 28.455 60.531 60.531h-60.531zm-7.5 136.481c-37.744 0-68.45-30.707-68.45-68.45 0-35.208 26.723-64.282 60.95-68.031v68.031c0 4.142 3.358 7.5 7.5 7.5h68.031c-3.748 34.226-32.822 60.95-68.031 60.95z"/><path d="m261.408 133.884h176.333c4.142 0 7.5-3.358 7.5-7.5s-3.358-7.5-7.5-7.5h-176.333c-4.142 0-7.5 3.358-7.5 7.5s3.358 7.5 7.5 7.5z"/><path d="m261.408 167.899h176.333c4.142 0 7.5-3.358 7.5-7.5s-3.358-7.5-7.5-7.5h-176.333c-4.142 0-7.5 3.358-7.5 7.5s3.358 7.5 7.5 7.5z"/><path d="m261.408 201.915h88.167c4.142 0 7.5-3.358 7.5-7.5s-3.358-7.5-7.5-7.5h-88.167c-4.142 0-7.5 3.358-7.5 7.5s3.358 7.5 7.5 7.5z"/><path d="m278.712 231.249c-8.547 0-15.5 6.953-15.5 15.5v97.998c0 8.547 6.953 15.5 15.5 15.5h17c8.547 0 15.5-6.953 15.5-15.5v-97.998c0-8.547-6.953-15.5-15.5-15.5zm17.5 15.5v97.998c0 .276-.224.5-.5.5h-17c-.276 0-.5-.224-.5-.5v-97.998c0-.276.224-.5.5-.5h17c.276 0 .5.224.5.5z"/><path d="m341.075 248.881c-8.547 0-15.5 6.953-15.5 15.5v80.366c0 8.547 6.953 15.5 15.5 15.5h17c8.547 0 15.5-6.953 15.5-15.5v-80.366c0-8.547-6.953-15.5-15.5-15.5zm17.5 15.5v80.366c0 .276-.224.5-.5.5h-17c-.276 0-.5-.224-.5-.5v-80.366c0-.276.224-.5.5-.5h17c.276 0 .5.224.5.5z"/><path d="m403.437 279.723c-8.547 0-15.5 6.953-15.5 15.5v49.524c0 8.547 6.953 15.5 15.5 15.5h17c8.547 0 15.5-6.953 15.5-15.5v-49.524c0-8.547-6.953-15.5-15.5-15.5zm17.5 15.5v49.524c0 .276-.224.5-.5.5h-17c-.276 0-.5-.224-.5-.5v-49.524c0-.276.224-.5.5-.5h17c.276 0 .5.224.5.5z"/><path d="m74.258 309.229h164.117c4.142 0 7.5-3.358 7.5-7.5s-3.358-7.5-7.5-7.5h-164.117c-4.142 0-7.5 3.358-7.5 7.5s3.358 7.5 7.5 7.5z"/><path d="m74.258 343.245h82.059c4.142 0 7.5-3.358 7.5-7.5s-3.358-7.5-7.5-7.5h-82.059c-4.142 0-7.5 3.358-7.5 7.5s3.358 7.5 7.5 7.5z"/></g></g></svg>