<svg id="Capa_1" enable-background="new 0 0 512.009 512.009" height="512" viewBox="0 0 512.009 512.009" width="512" xmlns="http://www.w3.org/2000/svg"><g><g><g><path d="m493.443 474.599-90.559 7.923c-6.664.583-12.538-4.346-13.121-11.01l-36.831-420.984c-.583-6.664 4.346-12.538 11.01-13.121l90.559-7.923c6.664-.583 12.538 4.346 13.121 11.01l36.831 420.984c.583 6.663-4.346 12.538-11.01 13.121z" fill="#0067c5"/><path d="m454.501 29.484-34.611 3.028c6.664-.583 12.538 4.347 13.121 11.01l36.831 420.984c.583 6.664-4.346 12.538-11.01 13.121l34.611-3.028c6.664-.583 11.593-6.458 11.01-13.121l-36.831-420.984c-.583-6.664-6.458-11.593-13.121-11.01z" fill="#0055a3"/><path d="m384.354 384.354h115.128v45.643h-115.128z" fill="#528fd8" transform="matrix(.996 -.087 .087 .996 -33.806 40.065)"/><path d="m413.258 341.427-22.358-255.547c-.243-2.777 1.811-5.224 4.588-5.467l35.414-3.098c2.777-.243 5.224 1.811 5.467 4.588l22.357 255.548c.243 2.777-1.811 5.224-4.587 5.467l-35.414 3.098c-2.777.242-5.224-1.812-5.467-4.589z" fill="#c0d6f2"/><path d="m464.587 380.851h34.743v45.643h-34.743z" fill="#0473ce" transform="matrix(.996 -.087 .087 .996 -33.348 43.542)"/></g><g><path d="m340.773 479.41h-90.905c-6.689 0-12.112-5.423-12.112-12.112v-422.591c0-6.689 5.423-12.112 12.112-12.112h90.905c6.689 0 12.112 5.423 12.112 12.112v422.592c0 6.689-5.423 12.111-12.112 12.111z" fill="#e94444"/><path d="m237.757 384.931h115.128v45.643h-115.128z" fill="#f47c7c"/><path d="m272.499 339.757v-256.524c0-2.787 2.259-5.047 5.047-5.047h35.55c2.787 0 5.047 2.259 5.047 5.047v256.524c0 2.787-2.259 5.047-5.047 5.047h-35.55c-2.787 0-5.047-2.26-5.047-5.047z" fill="#f9c6c6"/><path d="m340.773 32.595h-34.743c6.689 0 12.112 5.423 12.112 12.112v422.592c0 6.689-5.423 12.112-12.112 12.112h34.743c6.689 0 12.112-5.423 12.112-12.112v-422.592c0-6.689-5.423-12.112-12.112-12.112z" fill="#d83131"/><path d="m318.142 384.931h34.743v45.643h-34.743z" fill="#ee6161"/></g><g><path d="m225.645 479.41h-90.905c-6.689 0-12.112-5.423-12.112-12.112v-422.591c0-6.689 5.423-12.112 12.112-12.112h90.905c6.689 0 12.112 5.423 12.112 12.112v422.592c0 6.689-5.423 12.111-12.112 12.111z" fill="#09a76d"/><path d="m122.628 384.931h115.128v45.643h-115.128z" fill="#57be92"/><path d="m157.371 339.757v-256.524c0-2.787 2.259-5.047 5.047-5.047h35.55c2.787 0 5.047 2.259 5.047 5.047v256.524c0 2.787-2.259 5.047-5.047 5.047h-35.55c-2.787 0-5.047-2.26-5.047-5.047z" fill="#aedec8"/><path d="m225.645 32.595h-34.743c6.689 0 12.112 5.423 12.112 12.112v422.592c0 6.689-5.423 12.112-12.112 12.112h34.743c6.689 0 12.112-5.423 12.112-12.112v-422.592c0-6.689-5.423-12.112-12.112-12.112z" fill="#02905d"/><path d="m203.014 384.931h34.743v45.643h-34.743z" fill="#22b27f"/></g><g><path d="m110.517 479.41h-90.905c-6.689 0-12.112-5.423-12.112-12.112v-422.591c0-6.689 5.423-12.112 12.112-12.112h90.905c6.689 0 12.112 5.423 12.112 12.112v422.592c-.001 6.689-5.423 12.111-12.112 12.111z" fill="#0067c5"/><path d="m7.5 384.931h115.128v45.643h-115.128z" fill="#528fd8"/><path d="m42.243 339.757v-256.524c0-2.787 2.259-5.047 5.047-5.047h35.55c2.787 0 5.047 2.259 5.047 5.047v256.524c0 2.787-2.259 5.047-5.047 5.047h-35.55c-2.788 0-5.047-2.26-5.047-5.047z" fill="#c0d6f2"/><path d="m110.517 32.595h-34.743c6.689 0 12.112 5.423 12.112 12.112v422.592c0 6.689-5.423 12.112-12.112 12.112h34.743c6.689 0 12.112-5.423 12.112-12.112v-422.592c-.001-6.689-5.423-12.112-12.112-12.112z" fill="#0055a3"/><path d="m87.885 384.931h34.743v45.643h-34.743z" fill="#0473ce"/></g></g><g><path d="m82.839 352.304c6.918 0 12.547-5.628 12.547-12.547v-256.524c0-6.918-5.628-12.546-12.547-12.546h-35.549c-6.918 0-12.547 5.628-12.547 12.546v256.524c0 6.918 5.628 12.547 12.547 12.547zm-33.096-266.617h30.643v251.617h-30.643z"/><path d="m197.967 70.687h-35.55c-6.918 0-12.546 5.628-12.546 12.546v256.524c0 6.918 5.628 12.547 12.546 12.547h35.55c6.918 0 12.546-5.628 12.546-12.547v-256.524c.001-6.918-5.628-12.546-12.546-12.546zm-2.453 266.617h-30.643v-251.617h30.643z"/><path d="m313.096 70.687h-35.55c-6.918 0-12.547 5.628-12.547 12.546v256.524c0 6.918 5.629 12.547 12.547 12.547h35.55c6.918 0 12.547-5.628 12.547-12.547v-256.524c0-6.918-5.629-12.546-12.547-12.546zm-2.453 266.617h-30.644v-251.617h30.644z"/><path d="m500.238 327.244c-.361-4.126-4-7.181-8.125-6.817-4.127.361-7.179 3.999-6.818 8.125l3.854 44.054-99.747 8.727-28.999-331.456c-.012-.141-.019-.281-.019-.419 0-2.362 1.85-4.374 4.21-4.58l90.556-7.923c2.55-.225 4.782 1.692 5 4.192l22.094 252.538c.361 4.126 4.012 7.176 8.125 6.818 4.127-.361 7.179-3.999 6.818-8.125l-22.093-252.538c-.943-10.772-10.276-18.776-21.246-17.828l-90.56 7.923c-2.706.237-5.227 1.013-7.483 2.199-3.6-4.297-9-7.039-15.031-7.039h-90.905c-4.572 0-8.773 1.585-12.111 4.218-3.339-2.633-7.54-4.218-12.112-4.218h-90.906c-4.572 0-8.773 1.585-12.112 4.218-3.339-2.633-7.54-4.218-12.112-4.218h-90.904c-10.814 0-19.612 8.798-19.612 19.612v60.529c0 4.142 3.358 7.5 7.5 7.5s7.5-3.358 7.5-7.5v-60.529c0-2.543 2.069-4.612 4.612-4.612h90.905c2.543 0 4.612 2.069 4.612 4.612v332.725h-100.129v-237.196c0-4.142-3.358-7.5-7.5-7.5s-7.5 3.358-7.5 7.5v327.063c0 10.814 8.798 19.612 19.612 19.612h90.905c4.572 0 8.773-1.585 12.112-4.218 3.339 2.633 7.54 4.218 12.112 4.218h90.905c4.572 0 8.773-1.585 12.112-4.218 3.339 2.632 7.54 4.218 12.111 4.218h90.905c10.813 0 19.611-8.798 19.611-19.612v-36.725-45.643-163.157l21.906 250.391c.894 10.207 9.286 17.903 19.523 17.903 1.283 0-4.478.467 92.282-7.998 10.207-.893 17.903-9.286 17.903-19.523.001-1.285.758 7.787-11.761-135.303zm-385.11 140.054c0 2.543-2.069 4.612-4.612 4.612h-90.904c-2.543 0-4.612-2.069-4.612-4.612v-29.225h100.128zm0-44.224h-100.128v-30.643h100.128zm115.129 44.224c0 2.543-2.069 4.612-4.612 4.612h-90.905c-2.543 0-4.612-2.069-4.612-4.612v-29.225h100.128v29.225zm0-44.224h-100.129v-30.643h100.128v30.643zm0-45.643h-100.129v-332.724c0-2.543 2.069-4.612 4.612-4.612h90.905c2.543 0 4.612 2.069 4.612 4.612zm115.128 89.867c0 2.543-2.068 4.612-4.611 4.612h-90.905c-2.542 0-4.611-2.069-4.611-4.612v-29.225h100.128v29.225zm0-44.224h-100.128v-30.643h100.128zm0-45.643h-100.128v-332.724c0-2.543 2.069-4.612 4.611-4.612h90.905c2.543 0 4.611 2.069 4.611 4.612v332.724zm45.324 18.845 99.747-8.727 2.671 30.526-99.747 8.727zm102.081 70.851-90.556 7.923c-2.554.219-4.782-1.692-5-4.192l-2.547-29.113 99.747-8.727 2.547 29.111c.012.141.019.281.019.419 0 2.361-1.85 4.373-4.21 4.579z"/><path d="m418.274 353.535c.365 0 .733-.016 1.104-.048l35.415-3.099c6.907-.604 12.01-6.683 11.405-13.592l-22.357-255.549c-.604-6.89-6.709-12.004-13.592-11.405l-35.416 3.099c-3.339.292-6.363 1.867-8.518 4.435-2.153 2.567-3.179 5.82-2.887 9.158l22.357 255.548c.572 6.522 6.063 11.453 12.489 11.453zm-19.688-265.865 30.525-2.67 21.93 250.659-30.525 2.67z"/></g></g></svg>