<svg id="Capa_1" enable-background="new 0 0 512 512" height="512" viewBox="0 0 512 512" width="512" xmlns="http://www.w3.org/2000/svg"><g><g><path d="m452.73 73.669h-393.46c-13.807 0-25 11.193-25 25v314.326h443.46c0-10.339 0-297.503 0-314.326 0-13.807-11.193-25-25-25z" fill="#5a5a5a"/><path d="m70.271 345.66v-229.991c0-3.314 2.686-6 6-6h359.459c3.314 0 6 2.686 6 6v229.991c0 3.314-2.686 6-6 6h-359.459c-3.314 0-6-2.687-6-6z" fill="#d3e1f5"/><circle cx="169.449" cy="191.686" fill="#ee6161" r="58.067"/><path d="m169.449 133.619v58.067h58.067c0-32.07-25.998-58.067-58.067-58.067z" fill="#d83131"/><path d="m285.66 326.71h-17c-2.761 0-5-2.239-5-5v-82.098c0-2.761 2.239-5 5-5h17c2.761 0 5 2.239 5 5v82.098c0 2.761-2.238 5-5 5z" fill="#d83131"/><path d="m341.711 326.71h-17c-2.761 0-5-2.239-5-5v-67.853c0-2.761 2.239-5 5-5h17c2.761 0 5 2.239 5 5v67.853c0 2.761-2.239 5-5 5z" fill="#e94444"/><path d="m397.762 326.71h-17c-2.761 0-5-2.239-5-5v-42.936c0-2.761 2.239-5 5-5h17c2.761 0 5 2.239 5 5v42.936c0 2.761-2.239 5-5 5z" fill="#ee6161"/><path d="m452.73 73.669h-36.23c13.807 0 25 11.193 25 25v314.326h36.23c0-10.339 0-297.502 0-314.326 0-13.807-11.193-25-25-25z" fill="#444"/><path d="m496.5 387.66h-481c-4.418 0-8 3.582-8 8v14.671c0 15.464 12.536 28 28 28h441c15.464 0 28-12.536 28-28v-14.671c0-4.419-3.582-8-8-8z" fill="#838383"/><path d="m496.5 387.66h-36.23c4.418 0 8 3.582 8 8v14.671c0 15.464-12.536 28-28 28h36.23c15.464 0 28-12.536 28-28v-14.671c0-4.418-3.582-8-8-8z" fill="#5a5a5a"/></g><path d="m62.771 115.669v229.991c0 7.444 6.056 13.5 13.5 13.5h359.459c7.444 0 13.5-6.056 13.5-13.5v-229.991c0-7.444-6.056-13.5-13.5-13.5h-359.459c-7.445 0-13.5 6.056-13.5 13.5zm15 1.5h356.459v226.991h-356.459z"/><path d="m496.5 380.16h-11.271v-281.491c0-17.92-14.579-32.5-32.5-32.5h-324.344c-4.143 0-7.5 3.358-7.5 7.5s3.357 7.5 7.5 7.5h324.345c9.649 0 17.5 7.851 17.5 17.5v281.491h-428.459v-281.491c0-9.649 7.851-17.5 17.5-17.5h34.114c4.143 0 7.5-3.358 7.5-7.5s-3.357-7.5-7.5-7.5h-34.114c-17.921 0-32.5 14.58-32.5 32.5v281.491h-11.271c-8.547 0-15.5 6.953-15.5 15.5v14.671c0 19.575 15.925 35.5 35.5 35.5h362.242c4.143 0 7.5-3.358 7.5-7.5s-3.357-7.5-7.5-7.5h-362.242c-11.304 0-20.5-9.196-20.5-20.5v-14.671c0-.276.225-.5.5-.5h481c.275 0 .5.224.5.5v14.671c0 11.304-9.196 20.5-20.5 20.5h-43.758c-4.143 0-7.5 3.358-7.5 7.5s3.357 7.5 7.5 7.5h43.758c19.575 0 35.5-15.925 35.5-35.5v-14.671c0-8.547-6.953-15.5-15.5-15.5z"/><path d="m169.449 257.252c36.153 0 65.566-29.413 65.566-65.566 0-36.157-29.417-65.566-65.566-65.566-36.154 0-65.567 29.413-65.567 65.567 0 36.152 29.413 65.565 65.567 65.565zm7.5-115.574c.036.005.073.009.11.014.162.025.321.056.482.082 21.301 3.439 38.344 20.279 41.821 41.828.026.158.056.313.08.471.006.037.009.074.014.111h-42.507zm-15 0v50.007c0 4.142 3.357 7.5 7.5 7.5h50.007c-3.635 24.338-24.672 43.067-50.007 43.067-27.883 0-50.567-22.684-50.567-50.566 0-25.334 18.729-46.373 43.067-50.008z"/><path d="m265.804 162.146h134.814c4.143 0 7.5-3.358 7.5-7.5s-3.357-7.5-7.5-7.5h-134.814c-4.143 0-7.5 3.358-7.5 7.5s3.357 7.5 7.5 7.5z"/><path d="m265.804 188.152h134.814c4.143 0 7.5-3.358 7.5-7.5s-3.357-7.5-7.5-7.5h-134.814c-4.143 0-7.5 3.358-7.5 7.5s3.357 7.5 7.5 7.5z"/><path d="m265.804 214.159h67.407c4.143 0 7.5-3.358 7.5-7.5s-3.357-7.5-7.5-7.5h-67.407c-4.143 0-7.5 3.358-7.5 7.5s3.357 7.5 7.5 7.5z"/><path d="m285.66 227.112h-17c-6.893 0-12.5 5.607-12.5 12.5v82.098c0 6.893 5.607 12.5 12.5 12.5h17c6.893 0 12.5-5.607 12.5-12.5v-82.098c0-6.892-5.607-12.5-12.5-12.5zm-2.5 92.098h-12v-77.098h12z"/><path d="m341.711 241.357h-17c-6.893 0-12.5 5.607-12.5 12.5v67.853c0 6.893 5.607 12.5 12.5 12.5h17c6.893 0 12.5-5.607 12.5-12.5v-67.853c0-6.892-5.607-12.5-12.5-12.5zm-2.5 77.853h-12v-62.853h12z"/><path d="m397.762 266.274h-17c-6.893 0-12.5 5.607-12.5 12.5v42.936c0 6.893 5.607 12.5 12.5 12.5h17c6.893 0 12.5-5.607 12.5-12.5v-42.936c0-6.893-5.608-12.5-12.5-12.5zm-2.5 52.936h-12v-37.936h12z"/><path d="m236.855 281.205h-125.473c-4.143 0-7.5 3.358-7.5 7.5s3.357 7.5 7.5 7.5h125.474c4.143 0 7.5-3.358 7.5-7.5s-3.358-7.5-7.501-7.5z"/><path d="m174.119 307.211h-62.737c-4.143 0-7.5 3.358-7.5 7.5s3.357 7.5 7.5 7.5h62.737c4.143 0 7.5-3.358 7.5-7.5s-3.357-7.5-7.5-7.5z"/></g></svg>