<svg id="Capa_1" enable-background="new 0 0 512 512" height="512" viewBox="0 0 512 512" width="512" xmlns="http://www.w3.org/2000/svg"><g><g><path d="m470.836 184.787h-298.172v-98.537c0-7.732 6.268-14 14-14h270.172c7.732 0 14 6.268 14 14z" fill="#838383"/><path d="m456.836 72.25h-39.685c7.732 0 14 6.268 14 14v98.537h39.685v-98.537c0-7.732-6.268-14-14-14z" fill="#5a5a5a"/><path d="m441.75 184.787h-240v-158.037c0-8.284 6.716-15 15-15h210c8.284 0 15 6.716 15 15z" fill="#d3e1f5"/><path d="m485.5 134.236c-23.59 0-436.254 0-459 0-10.493 0-19 8.507-19 19v301.656c0 10.494 8.507 19 19 19h459c10.493 0 19-8.506 19-19v-301.656c0-10.493-8.507-19-19-19z" fill="#e2e2e2"/><path d="m113 500.25h-49c-14.359 0-26-11.641-26-26v-340.371c0-14.359 11.641-26 26-26h49c14.359 0 26 11.641 26 26v340.371c0 14.359-11.641 26-26 26z" fill="#9c9c9c"/><g fill="#838383"><path d="m219.063 289.563c-9.561 0-17.313-7.751-17.313-17.312 0-9.561 7.751-17.312 17.312-17.312 9.561 0 17.312 7.751 17.312 17.312.001 9.56-7.75 17.312-17.311 17.312z"/><path d="m287.094 289.563c-9.561 0-17.313-7.751-17.313-17.312 0-9.561 7.751-17.312 17.312-17.312 9.561 0 17.312 7.751 17.312 17.312.001 9.56-7.75 17.312-17.311 17.312z"/><path d="m355.126 289.563c-9.561 0-17.313-7.751-17.313-17.312 0-9.561 7.751-17.312 17.313-17.312 9.561 0 17.312 7.751 17.312 17.312 0 9.56-7.751 17.312-17.312 17.312z"/><path d="m219.063 357.594c-9.561 0-17.313-7.751-17.313-17.312 0-9.561 7.751-17.312 17.312-17.312 9.561 0 17.312 7.751 17.312 17.312.001 9.561-7.75 17.312-17.311 17.312z"/><path d="m287.094 357.594c-9.561 0-17.313-7.751-17.313-17.312 0-9.561 7.751-17.312 17.312-17.312 9.561 0 17.312 7.751 17.312 17.312.001 9.561-7.75 17.312-17.311 17.312z"/><path d="m355.126 357.594c-9.561 0-17.313-7.751-17.313-17.312 0-9.561 7.751-17.312 17.313-17.312 9.561 0 17.312 7.751 17.312 17.312 0 9.561-7.751 17.312-17.312 17.312z"/><path d="m219.063 425.625c-9.561 0-17.313-7.751-17.313-17.312 0-9.561 7.751-17.313 17.312-17.313 9.561 0 17.312 7.751 17.312 17.313.001 9.561-7.75 17.312-17.311 17.312z"/><path d="m287.094 425.625c-9.561 0-17.313-7.751-17.313-17.312 0-9.561 7.751-17.313 17.312-17.313 9.561 0 17.312 7.751 17.312 17.313.001 9.561-7.75 17.312-17.311 17.312z"/><path d="m355.126 425.625c-9.561 0-17.313-7.751-17.313-17.312 0-9.561 7.751-17.313 17.313-17.313 9.561 0 17.312 7.751 17.312 17.313 0 9.561-7.751 17.312-17.312 17.312z"/><path d="m444.75 357.594h-29.75c-3.866 0-7-3.134-7-7v-88.656c0-3.866 3.134-7 7-7h29.75c3.866 0 7 3.134 7 7v88.656c0 3.866-3.134 7-7 7z"/><path d="m444.75 425.625h-29.75c-3.866 0-7-3.134-7-7v-20.625c0-3.866 3.134-7 7-7h29.75c3.866 0 7 3.134 7 7v20.625c0 3.866-3.134 7-7 7z"/></g><path d="m439.75 217.307h-226c-6.627 0-12-5.373-12-12v-28.887c0-6.627 5.373-12 12-12h226c6.627 0 12 5.373 12 12v28.887c0 6.627-5.373 12-12 12z" fill="#82aee3"/><path d="m485.5 134.236c-3.876 0-18.257 0-39.685 0 10.493 0 19 8.507 19 19v301.656c0 10.494-8.507 19-19 19h39.685c10.493 0 19-8.506 19-19v-301.656c0-10.493-8.507-19-19-19z" fill="#cecece"/><path d="m113 107.879h-39.685c14.359 0 26 11.641 26 26v340.371c0 14.359-11.641 26-26 26h39.685c14.359 0 26-11.641 26-26v-340.371c0-14.359-11.641-26-26-26z" fill="#838383"/></g><g><path d="m485.5 126.736h-7.164v-40.486c0-11.855-9.645-21.5-21.5-21.5h-7.586v-38c0-12.407-10.094-22.5-22.5-22.5h-210c-12.406 0-22.5 10.093-22.5 22.5v38h-7.586c-11.855 0-21.5 9.645-21.5 21.5v40.486h-19.438c-3.283-15.051-16.706-26.357-32.726-26.357h-5c-4.143 0-7.5 3.358-7.5 7.5s3.357 7.5 7.5 7.5h5c10.201 0 18.5 8.299 18.5 18.5v.357 339.656.357c0 10.201-8.299 18.5-18.5 18.5h-49c-10.201 0-18.5-8.299-18.5-18.5 0-2.538 0-338.181 0-340.014v-.357c0-10.201 8.299-18.5 18.5-18.5h9c4.143 0 7.5-3.358 7.5-7.5s-3.357-7.5-7.5-7.5h-9c-16.02 0-29.443 11.306-32.726 26.357h-4.774c-14.612 0-26.5 11.888-26.5 26.5v301.656c0 14.612 11.888 26.5 26.5 26.5h4.774c3.283 15.052 16.706 26.359 32.726 26.359h49c16.02 0 29.443-11.307 32.726-26.357h40.774c4.143 0 7.5-3.358 7.5-7.5s-3.357-7.5-7.5-7.5h-40c0-16.449 0-310.115 0-324.656h339c6.341 0 11.5 5.159 11.5 11.5v301.656c0 6.341-5.159 11.5-11.5 11.5h-264c-4.143 0-7.5 3.358-7.5 7.5s3.357 7.5 7.5 7.5h264c14.612 0 26.5-11.888 26.5-26.5v-301.657c0-14.612-11.888-26.5-26.5-26.5zm-455 339.657h-4c-6.341 0-11.5-5.159-11.5-11.5v-301.657c0-6.341 5.159-11.5 11.5-11.5h4zm163.75-339.657h-14.086v-40.486c0-3.584 2.916-6.5 6.5-6.5h7.586zm240 0h-225c0-8.978 0-88.924 0-99.986 0-4.136 3.364-7.5 7.5-7.5h210c4.136 0 7.5 3.364 7.5 7.5zm29.086 0h-14.086v-46.986h7.586c3.584 0 6.5 2.916 6.5 6.5z"/><path d="m459.25 176.419c0-10.752-8.748-19.5-19.5-19.5h-226c-10.752 0-19.5 8.748-19.5 19.5v28.887c0 10.752 8.748 19.5 19.5 19.5h226c10.752 0 19.5-8.748 19.5-19.5zm-15 28.888c0 2.481-2.019 4.5-4.5 4.5h-226c-2.481 0-4.5-2.019-4.5-4.5v-28.887c0-2.481 2.019-4.5 4.5-4.5h226c2.481 0 4.5 2.019 4.5 4.5z"/><path d="m219.063 297.063c13.682 0 24.813-11.131 24.813-24.813s-11.131-24.813-24.813-24.813-24.813 11.131-24.813 24.813 11.131 24.813 24.813 24.813zm0-34.625c5.41 0 9.813 4.402 9.813 9.813s-4.402 9.813-9.813 9.813-9.813-4.402-9.813-9.813 4.402-9.813 9.813-9.813z"/><path d="m287.094 247.438c-13.682 0-24.813 11.131-24.813 24.813s11.131 24.813 24.813 24.813 24.813-11.131 24.813-24.813-11.132-24.813-24.813-24.813zm0 34.625c-5.41 0-9.813-4.402-9.813-9.813s4.402-9.813 9.813-9.813 9.813 4.402 9.813 9.813-4.403 9.813-9.813 9.813z"/><path d="m355.125 247.438c-13.681 0-24.812 11.131-24.812 24.813s11.131 24.813 24.813 24.813 24.813-11.131 24.813-24.813-11.131-24.813-24.814-24.813zm.001 34.625c-5.411 0-9.813-4.402-9.813-9.813s4.402-9.813 9.813-9.813 9.813 4.402 9.813 9.813-4.403 9.813-9.813 9.813z"/><path d="m219.063 365.094c13.682 0 24.813-11.131 24.813-24.813s-11.131-24.812-24.813-24.812-24.813 11.131-24.813 24.813 11.131 24.812 24.813 24.812zm0-34.625c5.41 0 9.813 4.402 9.813 9.813s-4.402 9.813-9.813 9.813-9.813-4.402-9.813-9.813 4.402-9.813 9.813-9.813z"/><path d="m287.094 315.469c-13.682 0-24.813 11.131-24.813 24.813s11.131 24.813 24.813 24.813 24.813-11.131 24.813-24.813c-.001-13.682-11.132-24.813-24.813-24.813zm0 34.625c-5.41 0-9.813-4.402-9.813-9.813 0-5.41 4.402-9.812 9.813-9.812s9.813 4.402 9.813 9.813-4.403 9.812-9.813 9.812z"/><path d="m355.125 315.469c-13.681 0-24.812 11.131-24.812 24.813s11.131 24.813 24.813 24.813 24.813-11.131 24.813-24.813c-.001-13.682-11.131-24.813-24.814-24.813zm.001 34.625c-5.411 0-9.813-4.402-9.813-9.813 0-5.41 4.402-9.812 9.813-9.812s9.813 4.402 9.813 9.813-4.403 9.812-9.813 9.812z"/><path d="m243.875 408.313c0-13.682-11.131-24.813-24.813-24.813s-24.813 11.131-24.813 24.813 11.131 24.813 24.813 24.813 24.813-11.131 24.813-24.813zm-34.625 0c0-5.411 4.402-9.813 9.813-9.813s9.813 4.402 9.813 9.813-4.402 9.813-9.813 9.813-9.813-4.402-9.813-9.813z"/><path d="m287.094 383.5c-13.682 0-24.813 11.131-24.813 24.813s11.131 24.813 24.813 24.813 24.813-11.131 24.813-24.813-11.132-24.813-24.813-24.813zm0 34.625c-5.41 0-9.813-4.402-9.813-9.813s4.402-9.813 9.813-9.813 9.813 4.402 9.813 9.813-4.403 9.813-9.813 9.813z"/><path d="m355.125 383.5c-13.681 0-24.812 11.131-24.812 24.813s11.131 24.813 24.813 24.813 24.813-11.131 24.813-24.813-11.131-24.813-24.814-24.813zm.001 34.625c-5.411 0-9.813-4.402-9.813-9.813s4.402-9.813 9.813-9.813 9.813 4.402 9.813 9.813-4.403 9.813-9.813 9.813z"/><path d="m459.25 261.938c0-7.995-6.505-14.5-14.5-14.5h-29.75c-7.995 0-14.5 6.505-14.5 14.5v88.657c0 7.995 6.505 14.5 14.5 14.5h29.75c7.995 0 14.5-6.505 14.5-14.5zm-15 88.156h-28.75v-87.657h28.75z"/><path d="m444.75 383.5h-29.75c-7.995 0-14.5 6.505-14.5 14.5v20.625c0 7.995 6.505 14.5 14.5 14.5h29.75c7.995 0 14.5-6.505 14.5-14.5v-20.625c0-7.995-6.505-14.5-14.5-14.5zm-.5 34.625h-28.75v-19.625h28.75z"/><path d="m397.75 47.419h-152c-4.143 0-7.5 3.358-7.5 7.5s3.357 7.5 7.5 7.5h152c4.143 0 7.5-3.358 7.5-7.5s-3.357-7.5-7.5-7.5z"/><path d="m397.75 89.939h-152c-4.143 0-7.5 3.358-7.5 7.5s3.357 7.5 7.5 7.5h152c4.143 0 7.5-3.358 7.5-7.5s-3.357-7.5-7.5-7.5z"/></g></g></svg>