<svg id="Capa_1" enable-background="new 0 0 512 512" height="512" viewBox="0 0 512 512" width="512" xmlns="http://www.w3.org/2000/svg"><g><g><path d="m376.071 504.5h-240.142c-14.912 0-27-12.088-27-27v-55.543c0-14.912 12.088-27 27-27h240.143c14.912 0 27 12.088 27 27v55.543c-.001 14.912-12.089 27-27.001 27z" fill="#9c9c9c"/><path d="m306.312 449.729h-100.624c-22.803 0-41.289-18.486-41.289-41.289v-359.651c0-22.803 18.486-41.289 41.289-41.289h100.624c22.803 0 41.289 18.486 41.289 41.289v359.651c0 22.803-18.486 41.289-41.289 41.289z" fill="#5a5a5a"/><path d="m376.071 394.957h-39.685c14.912 0 27 12.088 27 27v55.543c0 14.912-12.088 27-27 27h39.685c14.912 0 27-12.088 27-27v-55.543c0-14.912-12.088-27-27-27z" fill="#838383"/><path d="m306.312 7.5h-36.641c22.803 0 41.289 18.486 41.289 41.289v359.65c0 22.803-18.486 41.289-41.289 41.289h36.641c22.803 0 41.289-18.486 41.289-41.289v-359.65c0-22.803-18.486-41.289-41.289-41.289z" fill="#444"/><path d="m301.8 209.192h-91.6c-5.059 0-9.16-4.101-9.16-9.16v-147.749c0-5.059 4.101-9.16 9.16-9.16h91.6c5.059 0 9.16 4.101 9.16 9.16v147.749c.001 5.058-4.101 9.16-9.16 9.16z" fill="#82aee3"/><g fill="#cecece"><path d="m224.83 274.906h-7.888c-8.783 0-15.903-7.12-15.903-15.903 0-8.783 7.12-15.903 15.903-15.903h7.888c8.783 0 15.903 7.12 15.903 15.903 0 8.783-7.12 15.903-15.903 15.903z"/><path d="m295.058 274.906h-7.888c-8.783 0-15.903-7.12-15.903-15.903 0-8.783 7.12-15.903 15.903-15.903h7.888c8.783 0 15.903 7.12 15.903 15.903 0 8.783-7.12 15.903-15.903 15.903z"/><path d="m224.83 338.378h-7.888c-8.783 0-15.903-7.12-15.903-15.903 0-8.783 7.12-15.903 15.903-15.903h7.888c8.783 0 15.903 7.12 15.903 15.903 0 8.783-7.12 15.903-15.903 15.903z"/><path d="m295.058 338.378h-7.888c-8.783 0-15.903-7.12-15.903-15.903 0-8.783 7.12-15.903 15.903-15.903h7.888c8.783 0 15.903 7.12 15.903 15.903 0 8.783-7.12 15.903-15.903 15.903z"/><path d="m224.83 401.849h-7.888c-8.783 0-15.903-7.12-15.903-15.903 0-8.783 7.12-15.903 15.903-15.903h7.888c8.783 0 15.903 7.12 15.903 15.903 0 8.783-7.12 15.903-15.903 15.903z"/><path d="m295.058 401.849h-7.888c-8.783 0-15.903-7.12-15.903-15.903 0-8.783 7.12-15.903 15.903-15.903h7.888c8.783 0 15.903 7.12 15.903 15.903 0 8.783-7.12 15.903-15.903 15.903z"/></g></g><g><path d="m318.461 52.283c0-9.187-7.474-16.66-16.66-16.66h-91.602c-9.187 0-16.66 7.474-16.66 16.66v147.749c0 9.187 7.474 16.66 16.66 16.66h91.602c9.187 0 16.66-7.474 16.66-16.66zm-15 147.748c0 .916-.745 1.66-1.66 1.66h-91.602c-.915 0-1.66-.745-1.66-1.66v-147.748c0-.916.745-1.66 1.66-1.66h91.602c.915 0 1.66.745 1.66 1.66z"/><path d="m224.83 235.6h-7.888c-12.904 0-23.403 10.499-23.403 23.403 0 12.905 10.499 23.403 23.403 23.403h7.888c12.904 0 23.403-10.499 23.403-23.403s-10.499-23.403-23.403-23.403zm0 31.806h-7.888c-4.634 0-8.403-3.77-8.403-8.403s3.77-8.403 8.403-8.403h7.888c4.634 0 8.403 3.77 8.403 8.403 0 4.634-3.769 8.403-8.403 8.403z"/><path d="m295.058 235.6h-7.888c-12.904 0-23.403 10.499-23.403 23.403 0 12.905 10.499 23.403 23.403 23.403h7.888c12.904 0 23.403-10.499 23.403-23.403s-10.499-23.403-23.403-23.403zm0 31.806h-7.888c-4.634 0-8.403-3.77-8.403-8.403s3.77-8.403 8.403-8.403h7.888c4.634 0 8.403 3.77 8.403 8.403 0 4.634-3.77 8.403-8.403 8.403z"/><path d="m224.83 299.072h-7.888c-12.904 0-23.403 10.499-23.403 23.403s10.499 23.403 23.403 23.403h7.888c12.904 0 23.403-10.499 23.403-23.403s-10.499-23.403-23.403-23.403zm0 31.805h-7.888c-4.634 0-8.403-3.77-8.403-8.403s3.77-8.403 8.403-8.403h7.888c4.634 0 8.403 3.77 8.403 8.403s-3.769 8.403-8.403 8.403z"/><path d="m295.058 299.072h-7.888c-12.904 0-23.403 10.499-23.403 23.403s10.499 23.403 23.403 23.403h7.888c12.904 0 23.403-10.499 23.403-23.403s-10.499-23.403-23.403-23.403zm0 31.805h-7.888c-4.634 0-8.403-3.77-8.403-8.403s3.77-8.403 8.403-8.403h7.888c4.634 0 8.403 3.77 8.403 8.403s-3.77 8.403-8.403 8.403z"/><path d="m224.83 362.543h-7.888c-12.904 0-23.403 10.499-23.403 23.403 0 12.905 10.499 23.403 23.403 23.403h7.888c12.904 0 23.403-10.499 23.403-23.403s-10.499-23.403-23.403-23.403zm0 31.806h-7.888c-4.634 0-8.403-3.77-8.403-8.403s3.77-8.403 8.403-8.403h7.888c4.634 0 8.403 3.77 8.403 8.403 0 4.634-3.769 8.403-8.403 8.403z"/><path d="m295.058 362.543h-7.888c-12.904 0-23.403 10.499-23.403 23.403 0 12.905 10.499 23.403 23.403 23.403h7.888c12.904 0 23.403-10.499 23.403-23.403s-10.499-23.403-23.403-23.403zm0 31.806h-7.888c-4.634 0-8.403-3.77-8.403-8.403s3.77-8.403 8.403-8.403h7.888c4.634 0 8.403 3.77 8.403 8.403 0 4.634-3.77 8.403-8.403 8.403z"/><path d="m376.071 387.457h-20.971v-248.512c0-4.142-3.357-7.5-7.5-7.5s-7.5 3.358-7.5 7.5v269.494c0 18.63-15.156 33.789-33.789 33.789h-100.623c-18.049 0-32.838-14.225-33.745-32.053-.069-1.35-.044 18.971-.044-361.386 0-18.631 15.158-33.789 33.789-33.789h100.623c18.631 0 33.789 15.158 33.789 33.789v55.156c0 4.142 3.357 7.5 7.5 7.5s7.5-3.358 7.5-7.5v-55.156c.001-26.902-21.886-48.789-48.788-48.789h-100.624c-26.902 0-48.789 21.887-48.789 48.789v338.668h-20.971c-19.023 0-34.5 15.477-34.5 34.5v9.276c0 4.142 3.357 7.5 7.5 7.5s7.5-3.358 7.5-7.5v-9.276c0-10.752 8.748-19.5 19.5-19.5h20.971v5.982c0 7.566 1.731 14.736 4.818 21.133 8.006 16.59 24.898 27.656 43.97 27.656h.001 100.623.001c19.029 0 35.945-11.027 43.97-27.656 3.087-6.397 4.818-13.567 4.818-21.133v-5.982h20.971c10.752 0 19.5 8.748 19.5 19.5v55.543c0 10.752-8.748 19.5-19.5 19.5h-240.142c-10.752 0-19.5-8.748-19.5-19.5v-11.267c0-4.142-3.357-7.5-7.5-7.5s-7.5 3.358-7.5 7.5v11.267c0 19.023 15.477 34.5 34.5 34.5h240.143c19.023 0 34.5-15.477 34.5-34.5v-55.543c-.001-19.023-15.477-34.5-34.501-34.5z"/></g></g></svg>