<svg id="Capa_1" enable-background="new 0 0 512 512" height="512" viewBox="0 0 512 512" width="512" xmlns="http://www.w3.org/2000/svg"><g><g><path d="m462.5 492.111h-413c-23.196 0-42-18.804-42-42v-321c0-23.196 18.804-42 42-42h413c23.196 0 42 18.804 42 42v321c0 23.196-18.804 42-42 42z" fill="#5a5a5a"/><path d="m255.617 431.185h-.004c-51.956 0-94.075-42.119-94.075-94.075v-94.229c0-51.956 42.119-94.075 94.075-94.075h.004c51.956 0 94.075 42.119 94.075 94.075v94.229c-.001 51.957-42.119 94.075-94.075 94.075z" fill="#82aee3"/><path d="m255.617 148.807h-.004c-6.807 0-13.443.729-19.84 2.103 42.427 9.109 74.234 46.823 74.234 91.972v94.229c0 45.149-31.807 82.862-74.234 91.972 6.397 1.374 13.033 2.103 19.84 2.103h.004c51.956 0 94.075-42.119 94.075-94.075v-94.229c-.001-51.956-42.119-94.075-94.075-94.075z" fill="#528fd8"/><path d="m255.615 274.086v-125.279h-.002c-51.956 0-94.075 42.119-94.075 94.075v31.204z" fill="#c0d6f2"/><path d="m255.617 148.807h-.002v125.279h94.077v-31.204c-.001-51.956-42.119-94.075-94.075-94.075z" fill="#b2caec"/><path d="m255.615 245.568c-10.28 0-18.613-8.333-18.613-18.613v-31.016c0-10.28 8.333-18.613 18.613-18.613 10.28 0 18.613 8.333 18.613 18.613v31.016c0 10.28-8.334 18.613-18.613 18.613z" fill="#528fd8"/><path d="m235.772 150.91c6.931 1.488 13.571 3.752 19.842 6.675v-.016c32.123 14.968 54.392 47.537 54.392 85.313v31.204h39.685v-31.204c0-60.182-55.583-104.496-113.919-91.972z" fill="#82aee3"/><path d="m462.5 87.111h-39.685c23.196 0 42 18.804 42 42v321c0 23.196-18.804 42-42 42h39.685c23.196 0 42-18.804 42-42v-321c0-23.196-18.804-42-42-42z" fill="#444"/></g><path d="m462.5 79.43h-199v-24.36c0-15.164 12.337-27.5 27.5-27.5h140c4.143 0 7.5-3.358 7.5-7.5s-3.357-7.5-7.5-7.5h-140c-23.435 0-42.5 19.065-42.5 42.5v24.36h-199c-27.294 0-49.5 22.206-49.5 49.5v40c0 4.142 3.358 7.5 7.5 7.5s7.5-3.358 7.5-7.5v-40c0-19.023 15.477-34.5 34.5-34.5h199v46.949c-52.702 3.664-94.462 47.705-94.462 101.322v94.229c0 56.008 45.566 101.575 101.579 101.575 48.254 0 90.142-34.292 99.598-81.541.813-4.062-1.821-8.013-5.883-8.826-4.068-.814-8.013 1.821-8.826 5.882-8.058 40.262-43.759 69.484-84.893 69.484-47.737 0-86.575-38.837-86.575-86.575v-55.524h173.153v39.215c0 4.142 3.357 7.5 7.5 7.5s7.5-3.358 7.5-7.5c0-7.211 0-67.599 0-77.919 0-53.356-41.353-97.234-93.691-101.271v-47h199c19.023 0 34.5 15.477 34.5 34.5v321c0 19.023-15.477 34.5-34.5 34.5h-413c-19.023 0-34.5-15.477-34.5-34.5v-246c0-4.142-3.358-7.5-7.5-7.5s-7.5 3.358-7.5 7.5v246c0 27.294 22.206 49.5 49.5 49.5h413c27.294 0 49.5-22.206 49.5-49.5v-321c0-27.294-22.206-49.5-49.5-49.5zm-195.772 147.344c0 6.128-4.985 11.113-11.113 11.113-6.127 0-11.113-4.985-11.113-11.113v-31.016c0-6.127 4.985-11.113 11.113-11.113 6.127 0 11.113 4.985 11.113 11.113zm-97.69 15.927c0-45.211 34.836-82.439 79.077-86.253v14.294c-10.702 3.209-18.613 13.211-18.613 25.016v31.016c0 11.791 7.885 21.799 18.613 25.016v14.615h-79.077zm173.153 0v23.704h-79.076v-14.615c10.801-3.245 18.612-13.303 18.612-25.015v-31.016c0-11.626-7.724-21.738-18.612-25.015l.001-14.294c44.24 3.812 79.075 41.04 79.075 86.251z"/></g></svg>