<svg id="Capa_1" enable-background="new 0 0 512 512" height="512" viewBox="0 0 512 512" width="512" xmlns="http://www.w3.org/2000/svg"><g><g><path d="m377.793 480.917 3.573-56.926h-251.632l3.573 56.926c.832 13.257 11.827 23.583 25.11 23.583h194.267c13.283 0 24.277-10.326 25.109-23.583z" fill="#7acaa6"/><path d="m341.681 423.992-3.573 56.926c-.832 13.257-11.826 23.583-25.11 23.583h39.685c13.283 0 24.278-10.326 25.11-23.583l3.573-56.926z" fill="#7acaa6"/><path d="m287.975 419.648h-53.439c-4.418 0-8-3.582-8-8v-382.519c0-4.418 3.582-8 8-8h53.439c4.418 0 8 3.582 8 8v382.519c0 4.418-3.582 8-8 8z" fill="#b2caec"/><path d="m150.886 85.243h52.834v345.685h-52.834z" fill="#0473ce" transform="matrix(.996 -.087 .087 .996 -21.819 16.435)"/><path d="m188.556 83.598-52.633 4.605-3.465-39.6c-.63-7.198 4.695-13.543 11.893-14.173l26.567-2.324c7.198-.63 13.543 4.695 14.173 11.893z" fill="#e2e2e2"/><path d="m321.666 92.94h42.267v312.978h-42.267z" fill="#e94444" transform="matrix(.996 .087 -.087 .996 23.044 -28.928)"/><path d="m379.889 67.975-42.106-3.684 3.989-45.596c.59-6.747 6.539-11.739 13.286-11.148l17.672 1.546c6.747.59 11.739 6.539 11.148 13.286z" fill="#ee6161"/><path d="m400.26 97.37-68.129-5.961c-4.57-.4-7.95-4.429-7.551-8.998l.95-10.853c.4-4.57 4.429-7.95 8.998-7.551l59.854 5.237c4.57.4 7.95 4.429 7.551 8.998z" fill="#5a5a5a"/><path d="m131.881 458.208h247.337l14.404-229.502c.436-6.953-5.085-12.833-12.053-12.833h-252.039c-6.967 0-12.489 5.879-12.053 12.833z" fill="#22b27f"/><path d="m381.57 215.873h-39.685c6.967 0 12.489 5.88 12.053 12.833l-14.404 229.502h39.685l14.404-229.502c.436-6.954-5.086-12.833-12.053-12.833z" fill="#09a76d"/></g><path d="m391.325 61.772-7.021-.614 3.336-38.125c.952-10.882-7.084-20.459-17.967-21.411l-17.672-1.546c-10.911-.949-20.461 7.106-21.411 17.966l-3.386 38.706c-6.749 1.245-12.215 6.839-12.856 14.156l-.949 10.852c-.639 7.3 3.754 13.768 10.202 16.173l-9.663 110.443h-14.173v-179.243c0-8.547-6.953-15.5-15.5-15.5h-53.439c-8.547 0-15.5 6.953-15.5 15.5v179.244h-12.034l-10.976-125.429v-.001l-3.464-39.599c-.989-11.306-11.006-19.692-22.299-18.71l-26.566 2.324c-11.331.992-19.703 10.963-18.711 22.298l3.464 39.6 10.457 119.517h-9.377c-11.113 0-20.221 9.336-19.538 20.802l3.207 51.1c.259 4.133 3.826 7.271 7.955 7.016 4.134-.26 7.275-3.821 7.016-7.955l-3.206-51.084c-.007-.105-.01-.211-.01-.315 0-2.517 2.053-4.564 4.576-4.564h252.04c2.523 0 4.577 2.047 4.577 4.563 0 .096-.003.192-.01.3l-13.963 222.472h-233.249l-8.563-136.441c-.259-4.134-3.825-7.269-7.955-7.016-4.134.26-7.275 3.821-7.016 7.955 8.96 142.756 10.034 161.437 10.332 166.181 1.077 17.167 15.395 30.613 32.595 30.613h144.095c4.143 0 7.5-3.358 7.5-7.5s-3.357-7.5-7.5-7.5h-144.095c-9.301 0-17.043-7.271-17.625-16.553l-.925-14.74h231.366l-.925 14.74c-.582 9.282-8.324 16.553-17.625 16.553h-15.172c-4.143 0-7.5 3.358-7.5 7.5s3.357 7.5 7.5 7.5h15.172c17.2 0 31.519-13.447 32.596-30.613 0 0-.19 4.58 15.926-252.201.732-11.232-8.24-20.813-19.537-20.813h-6.435l9.175-104.87 7.824.685-7.064 80.751c-.36 4.126 2.691 7.764 6.818 8.125.222.019.442.029.662.029 3.847 0 7.121-2.943 7.463-6.847 8.142-93.076 7.023-80.28 9.392-107.35.762-8.703-5.664-16.362-14.369-17.124zm-255.106-13.823c-.269-3.081 2.007-5.78 5.074-6.048l26.566-2.324c.165-.015.329-.021.491-.021 2.86 0 5.304 2.194 5.558 5.096l2.811 32.129-37.689 3.297zm14.035 160.423-9.917-113.352 37.69-3.298 10.206 116.649h-37.979zm134.51 0h-54.439v-25.699h21.515c4.143 0 7.5-3.358 7.5-7.5s-3.357-7.5-7.5-7.5h-21.515v-22.085h21.515c4.143 0 7.5-3.358 7.5-7.5s-3.357-7.5-7.5-7.5h-21.515v-22.085h21.515c4.143 0 7.5-3.358 7.5-7.5s-3.357-7.5-7.5-7.5h-21.515v-22.084h21.515c4.143 0 7.5-3.358 7.5-7.5s-3.357-7.5-7.5-7.5h-21.515v-27.29c0-.276.225-.5.5-.5h53.439c.275 0 .5.224.5.5zm60.769-189.023c.229-2.636 2.556-4.563 5.161-4.33l17.672 1.546c2.627.23 4.56 2.543 4.33 5.16l-3.335 38.124-7.727-.676-19.437-1.701zm10.834 189.023h-27.372l9.497-108.553 27.164 2.377zm33.364-119.127c-14.986-1.311-56.797-4.969-60.657-5.307-.447-.039-.772-.426-.732-.874l.949-10.854c.039-.435.401-.735.795-.735.026 0 .052.001.078.003l59.854 5.237c.446.039.772.427.732.873z"/></g></svg>