<svg id="Capa_1" enable-background="new 0 0 512 512" height="512" viewBox="0 0 512 512" width="512" xmlns="http://www.w3.org/2000/svg"><g><g><path d="m418.531 49.831h-325.062c-12.7 0-22.995 10.295-22.995 22.995v79.583l2.859 4.258v24.852h365v-21.519l3.193-7.591v-79.583c0-12.7-10.295-22.995-22.995-22.995z" fill="#d83131"/><path d="m438.333 181.519v-21.519l3.193-7.591v-79.583c0-12.699-10.295-22.995-22.995-22.995h-39.685c12.7 0 22.995 10.295 22.995 22.995v108.693z" fill="#ca2c2c"/><path d="m418.531 504.5h-325.062c-12.7 0-22.995-10.295-22.995-22.995v-329.096h371.052v329.096c0 12.7-10.295 22.995-22.995 22.995z" fill="#d3e1f5"/><g><path d="m260.241 456.04c-10.493 0-19-8.506-19-19v-164.04l-12.293 8.386c-8.667 5.913-20.489 3.681-26.403-4.989-5.913-8.669-3.68-20.49 4.989-26.403l42-28.65c5.819-3.97 13.358-4.393 19.583-1.104 6.228 3.291 10.124 9.756 10.124 16.799v200c0 10.495-8.507 19.001-19 19.001z" fill="#444"/></g><path d="m401.841 152.409v329.096c0 12.699-10.295 22.995-22.995 22.995h39.685c12.7 0 22.995-10.295 22.995-22.995v-329.096z" fill="#c0d6f2"/><g fill="#f79595"><path d="m294.517 95.995c-8.659 0-15.678-7.019-15.678-15.678v-57.139c0-8.659 7.019-15.678 15.678-15.678 8.659 0 15.678 7.019 15.678 15.678v57.138c0 8.66-7.02 15.679-15.678 15.679z"/><path d="m217.483 95.995c-8.659 0-15.678-7.019-15.678-15.678v-57.139c0-8.659 7.019-15.678 15.678-15.678 8.659 0 15.678 7.019 15.678 15.678v57.138c.001 8.66-7.019 15.679-15.678 15.679z"/><path d="m140.45 95.995c-8.659 0-15.678-7.019-15.678-15.678v-57.139c0-8.659 7.019-15.678 15.678-15.678 8.659 0 15.678 7.019 15.678 15.678v57.138c0 8.66-7.019 15.679-15.678 15.679z"/><path d="m371.55 95.995c-8.659 0-15.678-7.019-15.678-15.678v-57.139c0-8.659 7.019-15.678 15.678-15.678 8.659 0 15.678 7.019 15.678 15.678v57.138c0 8.66-7.019 15.679-15.678 15.679z"/><path d="m294.517 95.995c-8.659 0-15.678-7.019-15.678-15.678v-57.139c0-8.659 7.019-15.678 15.678-15.678 8.659 0 15.678 7.019 15.678 15.678v57.138c0 8.66-7.02 15.679-15.678 15.679z"/><path d="m217.483 95.995c-8.659 0-15.678-7.019-15.678-15.678v-57.139c0-8.659 7.019-15.678 15.678-15.678 8.659 0 15.678 7.019 15.678 15.678v57.138c.001 8.66-7.019 15.679-15.678 15.679z"/><path d="m140.45 95.995c-8.659 0-15.678-7.019-15.678-15.678v-57.139c0-8.659 7.019-15.678 15.678-15.678 8.659 0 15.678 7.019 15.678 15.678v57.138c0 8.66-7.019 15.679-15.678 15.679z"/></g><path d="m371.55 7.5c-3.137 0-6.053.931-8.504 2.519 4.313 2.793 7.174 7.638 7.174 13.16v57.138c0 5.521-2.861 10.366-7.174 13.16 2.451 1.587 5.366 2.518 8.504 2.518 8.659 0 15.678-7.019 15.678-15.678v-57.139c0-8.659-7.019-15.678-15.678-15.678z" fill="#f47c7c"/></g><g><path d="m441.525 219.566c-4.143 0-7.5 3.358-7.5 7.5v254.439c0 8.544-6.95 15.495-15.494 15.495h-283c-4.143 0-7.5 3.358-7.5 7.5s3.357 7.5 7.5 7.5h283c16.814 0 30.494-13.68 30.494-30.495v-254.439c0-4.142-3.357-7.5-7.5-7.5z"/><path d="m260.241 463.54c14.612 0 26.5-11.888 26.5-26.5v-200c0-9.851-5.41-18.829-14.12-23.43-8.707-4.603-19.175-4.013-27.313 1.539l-42 28.65c-5.848 3.989-9.792 10.016-11.105 16.971-1.314 6.955.158 14.006 4.147 19.854 8.269 12.121 24.75 15.197 36.825 6.958l.566-.387v149.845c0 14.612 11.888 26.5 26.5 26.5zm-35.519-188.35c-5.258 3.59-12.406 2.222-15.98-3.019-3.574-5.239-2.219-12.408 3.02-15.981l42-28.65c3.533-2.411 8.074-2.665 11.853-.668 3.78 1.997 6.128 5.893 6.128 10.168v200c0 6.341-5.159 11.5-11.5 11.5s-11.5-5.159-11.5-11.5v-164.04c0-2.78-1.538-5.333-3.996-6.631-2.459-1.298-5.432-1.132-7.73.436z"/><path d="m418.531 42.331h-23.803v-19.153c.001-12.78-10.397-23.178-23.178-23.178s-23.179 10.398-23.179 23.178v19.153h-30.676v-19.153c0-12.78-10.397-23.178-23.178-23.178s-23.179 10.398-23.179 23.178v19.153h-30.676v-19.153c0-12.78-10.397-23.178-23.179-23.178s-23.179 10.398-23.179 23.178v19.153h-30.676v-19.153c.001-12.78-10.397-23.178-23.178-23.178s-23.179 10.398-23.179 23.178v19.153h-23.802c-16.814 0-30.494 13.68-30.494 30.495v408.679c0 16.815 13.68 30.495 30.494 30.495h7.063c4.143 0 7.5-3.358 7.5-7.5s-3.357-7.5-7.5-7.5h-7.063c-8.544 0-15.494-6.951-15.494-15.495v-321.596h356.051v32.157c0 4.142 3.357 7.5 7.5 7.5s7.5-3.358 7.5-7.5c0-4.623 0-114.151 0-119.24-.001-16.815-13.68-30.495-30.495-30.495zm-55.16 7.5v-26.653c0-4.509 3.669-8.178 8.179-8.178s8.179 3.669 8.179 8.178v26.653 30.485c0 4.51-3.669 8.179-8.179 8.179s-8.179-3.669-8.179-8.179zm-77.033 0v-26.653c0-4.509 3.669-8.178 8.179-8.178s8.179 3.669 8.179 8.178v26.653 30.485c0 4.51-3.669 8.179-8.179 8.179s-8.179-3.669-8.179-8.179zm-77.033 0v-26.653c0-4.509 3.669-8.178 8.179-8.178s8.179 3.669 8.179 8.178v26.653 30.485c0 4.51-3.669 8.179-8.179 8.179s-8.179-3.669-8.179-8.179zm-77.034 0v-26.653c0-4.509 3.669-8.178 8.179-8.178s8.179 3.669 8.179 8.178v26.653 30.485c0 4.51-3.669 8.179-8.179 8.179s-8.179-3.669-8.179-8.179zm301.754 95.078h-356.05v-72.083c0-8.544 6.95-15.495 15.494-15.495h23.803v22.985c0 12.779 10.396 23.178 23.179 23.178 12.78 0 23.179-10.397 23.179-23.178v-22.985h30.676v22.985c0 12.779 10.396 23.178 23.179 23.178 12.78 0 23.179-10.397 23.179-23.178v-22.985h30.676v22.985c0 12.779 10.396 23.178 23.179 23.178 12.78 0 23.179-10.397 23.179-23.178v-22.985h30.676v22.985c0 12.779 10.396 23.178 23.179 23.178 12.78 0 23.179-10.397 23.179-23.178v-22.985h23.803c8.544 0 15.494 6.951 15.494 15.495v72.083z"/></g></g></svg>