<svg id="Capa_1" enable-background="new 0 0 512 512" height="512" viewBox="0 0 512 512" width="512" xmlns="http://www.w3.org/2000/svg"><g><g><path d="m171 504.5h-130c-5.523 0-10-4.477-10-10v-477c0-5.523 4.477-10 10-10h130c5.523 0 10 4.477 10 10v477c0 5.523-4.477 10-10 10z" fill="#0055a3"/><path d="m68.667 317.261v-218.928h74.667v218.928c0 3.866-3.134 7-7 7h-60.667c-3.866 0-7-3.134-7-7z" fill="#d3e1f5"/><circle cx="106" cy="422.675" fill="#00366d" r="37.333"/><path d="m68.667 98.333v-39.341c0-3.866 3.134-7 7-7h60.667c3.866 0 7 3.134 7 7v39.342h-74.667z" fill="#bfbfbf"/><path d="m321 504.5h-130c-5.523 0-10-4.477-10-10v-477c0-5.523 4.477-10 10-10h130c5.523 0 10 4.477 10 10v477c0 5.523-4.477 10-10 10z" fill="#0067c5"/><path d="m218.667 317.261v-218.928h74.667v218.928c0 3.866-3.134 7-7 7h-60.667c-3.866 0-7-3.134-7-7z" fill="#d3e1f5"/><circle cx="256" cy="422.675" fill="#004281" r="37.333"/><path d="m218.667 98.333v-39.341c0-3.866 3.134-7 7-7h60.667c3.866 0 7 3.134 7 7v39.342h-74.667z" fill="#bfbfbf"/><path d="m471 504.5h-130c-5.523 0-10-4.477-10-10v-477c0-5.523 4.477-10 10-10h130c5.523 0 10 4.477 10 10v477c0 5.523-4.477 10-10 10z" fill="#82aee3"/><path d="m368.667 317.261v-218.928h74.667v218.928c0 3.866-3.134 7-7 7h-60.667c-3.866 0-7-3.134-7-7z" fill="#d3e1f5"/><circle cx="406" cy="422.675" fill="#0055a3" r="37.333"/><path d="m368.667 98.333v-39.341c0-3.866 3.134-7 7-7h60.667c3.866 0 7 3.134 7 7v39.342h-74.667z" fill="#bfbfbf"/><path d="m171 7.5h-37.667c5.523 0 10 4.477 10 10v477c0 5.523-4.477 10-10 10h37.667c5.523 0 10-4.477 10-10v-477c0-5.523-4.477-10-10-10z" fill="#004281"/><path d="m321 7.5h-37.667c5.523 0 10 4.477 10 10v477c0 5.523-4.477 10-10 10h37.667c5.523 0 10-4.477 10-10v-477c0-5.523-4.477-10-10-10z" fill="#0055a3"/><path d="m471 7.5h-37.667c5.523 0 10 4.477 10 10v477c0 5.523-4.477 10-10 10h37.667c5.523 0 10-4.477 10-10v-477c0-5.523-4.477-10-10-10z" fill="#528fd8"/></g><g><path d="m136.333 331.761c7.995 0 14.5-6.505 14.5-14.5v-218.928-39.341c0-7.995-6.505-14.5-14.5-14.5h-60.666c-7.995 0-14.5 6.505-14.5 14.5v39.342 218.928c0 7.995 6.505 14.5 14.5 14.5h60.666zm-60.166-272.269h59.667v31.342h-59.667zm0 46.341h59.667v210.928h-59.667z"/><path d="m106 467.508c24.721 0 44.833-20.112 44.833-44.833s-20.112-44.833-44.833-44.833-44.833 20.112-44.833 44.833 20.112 44.833 44.833 44.833zm0-74.666c16.45 0 29.833 13.383 29.833 29.833s-13.383 29.833-29.833 29.833-29.833-13.383-29.833-29.833 13.383-29.833 29.833-29.833z"/><path d="m106 130.464c-4.142 0-7.5 3.358-7.5 7.5v146.667c0 4.142 3.358 7.5 7.5 7.5s7.5-3.358 7.5-7.5v-146.667c0-4.142-3.358-7.5-7.5-7.5z"/><path d="m256 377.842c-24.721 0-44.833 20.112-44.833 44.833s20.112 44.833 44.833 44.833 44.833-20.112 44.833-44.833-20.112-44.833-44.833-44.833zm0 74.666c-16.45 0-29.833-13.383-29.833-29.833s13.383-29.833 29.833-29.833 29.833 13.383 29.833 29.833-13.383 29.833-29.833 29.833z"/><path d="m286.333 44.492h-60.667c-7.995 0-14.5 6.505-14.5 14.5v39.342 218.928c0 7.995 6.505 14.5 14.5 14.5h60.667c7.995 0 14.5-6.505 14.5-14.5v-218.929-39.341c0-7.995-6.504-14.5-14.5-14.5zm-.5 272.269h-59.667v-210.928h59.667zm0-225.928h-59.667v-31.341h59.667z"/><path d="m256 292.131c4.142 0 7.5-3.358 7.5-7.5v-146.667c0-4.142-3.358-7.5-7.5-7.5s-7.5 3.358-7.5 7.5v146.667c0 4.142 3.358 7.5 7.5 7.5z"/><path d="m481 54.143c4.142 0 7.5-3.358 7.5-7.5v-29.143c0-9.649-7.851-17.5-17.5-17.5h-130c-3.718 0-7.162 1.174-10 3.159-2.838-1.985-6.282-3.159-10-3.159h-130c-3.718 0-7.162 1.174-10 3.159-2.838-1.985-6.282-3.159-10-3.159h-130c-9.649 0-17.5 7.851-17.5 17.5v383.714c0 4.142 3.358 7.5 7.5 7.5s7.5-3.358 7.5-7.5v-383.714c0-1.378 1.122-2.5 2.5-2.5h130c1.378 0 2.5 1.122 2.5 2.5v477c0 1.378-1.122 2.5-2.5 2.5h-130c-1.378 0-2.5-1.122-2.5-2.5v-58.286c0-4.142-3.358-7.5-7.5-7.5s-7.5 3.358-7.5 7.5v58.286c0 9.649 7.851 17.5 17.5 17.5h130c3.718 0 7.162-1.174 10-3.159 2.838 1.985 6.282 3.159 10 3.159h130c3.718 0 7.162-1.174 10-3.159 2.838 1.985 6.282 3.159 10 3.159h130c9.649 0 17.5-7.851 17.5-17.5v-412.857c0-4.142-3.358-7.5-7.5-7.5s-7.5 3.358-7.5 7.5v412.857c0 1.378-1.122 2.5-2.5 2.5h-130c-1.378 0-2.5-1.122-2.5-2.5 0-5.371 0-465.353 0-477 0-1.378 1.122-2.5 2.5-2.5h130c1.378 0 2.5 1.122 2.5 2.5v29.143c0 4.142 3.358 7.5 7.5 7.5zm-157.5 440.357c0 1.378-1.122 2.5-2.5 2.5h-130c-1.378 0-2.5-1.122-2.5-2.5v-477c0-1.378 1.122-2.5 2.5-2.5h130c1.378 0 2.5 1.122 2.5 2.5z"/><path d="m450.833 98.333v-39.341c0-7.995-6.505-14.5-14.5-14.5h-60.667c-7.995 0-14.5 6.505-14.5 14.5v39.342 218.928c0 7.995 6.505 14.5 14.5 14.5h60.667c7.995 0 14.5-6.505 14.5-14.5zm-15 218.428h-59.667v-210.928h59.667zm0-225.928h-59.667v-31.341h59.667z"/><path d="m406 377.842c-24.721 0-44.833 20.112-44.833 44.833s20.112 44.833 44.833 44.833 44.833-20.112 44.833-44.833-20.112-44.833-44.833-44.833zm0 74.666c-16.45 0-29.833-13.383-29.833-29.833s13.383-29.833 29.833-29.833 29.833 13.383 29.833 29.833-13.383 29.833-29.833 29.833z"/><path d="m406 292.131c4.142 0 7.5-3.358 7.5-7.5v-146.667c0-4.142-3.358-7.5-7.5-7.5s-7.5 3.358-7.5 7.5v146.667c0 4.142 3.358 7.5 7.5 7.5z"/></g></g></svg>