<svg id="Capa_1" enable-background="new 0 0 512 512" height="512" viewBox="0 0 512 512" width="512" xmlns="http://www.w3.org/2000/svg"><g><g><path d="m126 504.5h-44.997c-5.523 0-10-4.477-10-10v-48.5h64.997v48.5c0 5.523-4.477 10-10 10z" fill="#444"/><path d="m430.997 504.5h-44.997c-5.523 0-10-4.477-10-10v-48.5h64.997v48.5c0 5.523-4.478 10-10 10z" fill="#444"/><path d="m440.997 470h-369.994v-452.5c0-5.523 4.477-10 10-10h349.993c5.523 0 10 4.477 10 10v452.5z" fill="#838383"/><path d="m106.776 220v-164.727c0-6.627 5.373-12 12-12h274.448c6.627 0 12 5.373 12 12v164.727c0 6.627-5.373 12-12 12h-274.448c-6.627 0-12-5.373-12-12z" fill="#acacac"/><path d="m311.5 153.464h-111c-8.56 0-15.5-6.94-15.5-15.5 0-8.56 6.94-15.5 15.5-15.5h111c8.56 0 15.5 6.94 15.5 15.5 0 8.56-6.94 15.5-15.5 15.5z" fill="#5a5a5a"/><path d="m430.997 7.5h-39.685c5.523 0 10 4.477 10 10v452.5h39.685v-452.5c0-5.523-4.478-10-10-10z" fill="#5a5a5a"/><path d="m396.224 347.74h-280.448c-4.971 0-9-4.029-9-9v-134.063c0-4.971 4.029-9 9-9h280.448c4.971 0 9 4.029 9 9v134.063c0 4.97-4.03 9-9 9z" fill="#b2caec"/><path d="m407 353.677h-302c-4.971 0-9-4.029-9-9v-101.703c0-4.971 4.029-9 9-9h302c4.971 0 9 4.029 9 9v101.703c0 4.971-4.029 9-9 9z" fill="#d3e1f5"/><path d="m396.224 347.74h-280.448c-4.971 0-9-4.029-9-9v-134.063c0-4.971 4.029-9 9-9h280.448c4.971 0 9 4.029 9 9v134.063c0 4.97-4.03 9-9 9z" fill="#b2caec"/><path d="m396.224 195.677h-39.685c4.971 0 9 4.029 9 9v134.063c0 4.971-4.029 9-9 9h39.685c4.971 0 9-4.029 9-9v-134.063c0-4.97-4.03-9-9-9z" fill="#82aee3"/><path d="m407 353.677h-302c-4.971 0-9-4.029-9-9v-101.703c0-4.971 4.029-9 9-9h302c4.971 0 9 4.029 9 9v101.703c0 4.971-4.029 9-9 9z" fill="#d3e1f5"/><path d="m407 233.974h-39.685c4.971 0 9 4.029 9 9v101.703c0 4.971-4.029 9-9 9h39.685c4.971 0 9-4.029 9-9v-101.703c0-4.97-4.029-9-9-9z" fill="#c0d6f2"/><path d="m71.003 432.339v-148c0-6.627 5.373-12 12-12h345.993c6.627 0 12 5.373 12 12v148c0 6.627-5.373 12-12 12h-345.993c-6.627 0-12-5.373-12-12z" fill="#acacac"/><path d="m311.5 373.839h-111c-8.56 0-15.5-6.94-15.5-15.5 0-8.56 6.94-15.5 15.5-15.5h111c8.56 0 15.5 6.94 15.5 15.5 0 8.56-6.94 15.5-15.5 15.5z" fill="#5a5a5a"/><path d="m428.997 272.339h-39.685c6.627 0 12 5.373 12 12v148c0 6.627-5.373 12-12 12h39.685c6.627 0 12-5.373 12-12v-148c0-6.628-5.373-12-12-12z" fill="#9c9c9c"/></g><g><path d="m200.5 160.964h111c12.682 0 23-10.318 23-23s-10.318-23-23-23h-111c-12.682 0-23 10.318-23 23s10.318 23 23 23zm0-31h111c4.411 0 8 3.589 8 8s-3.589 8-8 8h-111c-4.411 0-8-3.589-8-8s3.589-8 8-8z"/><path d="m200.5 381.338h111c12.682 0 23-10.318 23-23s-10.318-23-23-23h-111c-12.682 0-23 10.318-23 23s10.318 23 23 23zm0-31h111c4.411 0 8 3.589 8 8s-3.589 8-8 8h-111c-4.411 0-8-3.589-8-8s3.589-8 8-8z"/><path d="m440.997 97.493c4.142 0 7.5-3.358 7.5-7.5v-72.493c0-9.649-7.851-17.5-17.5-17.5h-349.994c-9.649 0-17.5 7.851-17.5 17.5v477c0 9.649 7.851 17.5 17.5 17.5h44.997c9.649 0 17.5-7.851 17.5-17.5v-17h225v17c0 9.649 7.851 17.5 17.5 17.5h44.997c9.649 0 17.5-7.851 17.5-17.5 0-7.364 0-367.437 0-369.507 0-4.142-3.358-7.5-7.5-7.5s-7.5 3.358-7.5 7.5v140.39c-1.447-.344-2.949-.545-4.5-.545h-5.497v-21.864c0-7.084-4.495-13.121-10.776-15.455v-7.519-15.323-149.404c0-10.752-8.748-19.5-19.5-19.5h-194.032c-4.142 0-7.5 3.358-7.5 7.5s3.358 7.5 7.5 7.5h194.031c2.481 0 4.5 2.019 4.5 4.5v132.98c-.495-.045-.994-.076-1.5-.076h-280.447c-.506 0-1.005.031-1.5.076v-132.98c0-2.481 2.019-4.5 4.5-4.5h45.416c4.142 0 7.5-3.358 7.5-7.5s-3.358-7.5-7.5-7.5h-45.416c-10.752 0-19.5 8.748-19.5 19.5v149.404 15.323 7.519c-6.281 2.334-10.776 8.372-10.776 15.455v21.864h-5.497c-1.551 0-3.053.201-4.5.545v-247.883c0-1.378 1.122-2.5 2.5-2.5h349.993c1.378 0 2.5 1.122 2.5 2.5v72.493c.001 4.142 3.358 7.5 7.501 7.5zm-312.497 397.007c0 1.378-1.122 2.5-2.5 2.5h-44.997c-1.378 0-2.5-1.122-2.5-2.5v-17h49.997zm304.997 0c0 1.378-1.122 2.5-2.5 2.5h-44.997c-1.378 0-2.5-1.122-2.5-2.5v-17h49.997zm0-32c-2.687 0-352.331 0-354.993 0v-11.207c1.447.344 2.949.545 4.5.545h345.993c1.551 0 3.053-.201 4.5-.545zm-319.221-257.823c0-.827.673-1.5 1.5-1.5h280.447c.827 0 1.5.673 1.5 1.5v15.323c0 2.481-2.019 4.5-4.5 4.5h-274.447c-2.481 0-4.5-2.019-4.5-4.5zm-10.776 38.298c0-.827.673-1.5 1.5-1.5h302c.827 0 1.5.673 1.5 1.5v21.864h-305zm-20.497 36.863h345.993c2.481 0 4.5 2.019 4.5 4.5v148c0 2.481-2.019 4.5-4.5 4.5h-345.993c-2.481 0-4.5-2.019-4.5-4.5v-148c0-2.481 2.019-4.5 4.5-4.5z"/></g></g></svg>