<svg id="Capa_1" enable-background="new 0 0 512.002 512.002" height="512" viewBox="0 0 512.002 512.002" width="512" xmlns="http://www.w3.org/2000/svg"><g><g><path d="m504.045 284.435-41.4-113.745c-1.396-3.834-5.635-5.813-9.47-4.416-3.834 1.396-5.812 5.635-4.416 9.47l-242.763 88.359 29.779 81.817 242.763-88.359 11.621 31.928c1.092 3 3.925 4.863 6.944 4.863.839 0 1.692-.144 2.526-.447 3.834-1.396 5.812-5.635 4.416-9.47z" fill="#bfbfbf"/><path d="m458.009 377.404v19.713c0 9.145-7.414 16.559-16.559 16.559h39.094c9.145 0 16.559-7.414 16.559-16.559v-19.713z" fill="#a72b2b"/><path d="m462.645 170.691c-1.396-3.834-5.635-5.813-9.47-4.416-3.834 1.396-5.812 5.635-4.416 9.47l-242.763 88.359 22.187 60.958 256.649-93.413z" fill="#acacac"/><path d="m477.274 218.651-373.448 135.924c-37.239 13.554-78.416-5.647-91.97-42.886-13.554-37.239 5.647-78.416 42.886-91.97l321.58-117.046c37.239-13.554 78.416 5.647 91.97 42.886l18.878 51.868c3.129 8.594-1.302 18.096-9.896 21.224z" fill="#ca2c2c"/><path d="m477.274 218.651c8.594-3.128 13.025-12.63 9.897-21.224l-18.878-51.868c-13.554-37.239-54.73-56.44-91.97-42.886l-29.21 10.632c33.481-5.652 67.265 13.168 79.294 46.217l18.878 51.868c3.128 8.594-1.303 18.096-9.897 21.224l-46.306 18.137z" fill="#a72b2b"/><path d="m236.902 413.676h243.641c9.145 0 16.559-7.414 16.559-16.559v-19.713h-260.2z" fill="#ca2c2c"/><path d="m249.547 413.676h-186.325c-12.515 0-22.661-10.146-22.661-22.661v-60.43c0-12.515 10.146-22.661 22.661-22.661h163.664c12.515 0 22.661 10.146 22.661 22.661z" fill="#838383"/><path d="m181.72 377.95h-73.333c-9.472 0-17.15-7.678-17.15-17.15 0-9.472 7.678-17.15 17.15-17.15h73.333c9.472 0 17.15 7.678 17.15 17.15 0 9.472-7.678 17.15-17.15 17.15z" fill="#444"/></g><g><path d="m184.346 337.475h-74.442c-13.735 0-24.91 11.174-24.91 24.91s11.174 24.91 24.91 24.91h74.442c13.735 0 24.91-11.175 24.91-24.91s-11.174-24.91-24.91-24.91zm0 34.82h-74.442c-5.464 0-9.91-4.446-9.91-9.91s4.445-9.91 9.91-9.91h74.442c5.464 0 9.91 4.445 9.91 9.91s-4.445 9.91-9.91 9.91z"/><path d="m504.5 371.741h-243.8v-24.297l227.521-82.811 9.231 25.363c1.108 3.046 3.984 4.937 7.049 4.937.852 0 1.718-.146 2.564-.454 3.892-1.417 5.899-5.721 4.482-9.613l-22.135-60.813c11.032-5.482 16.308-18.396 12.052-30.076l-19.164-52.652c-11.513-31.631-41.854-52.883-75.502-52.883-9.36 0-18.604 1.637-27.473 4.865l-243.869 88.761c-3.893 1.417-5.899 5.721-4.483 9.613 1.417 3.893 5.72 5.899 9.613 4.483l243.87-88.762c7.22-2.628 14.736-3.96 22.342-3.96 27.365 0 52.043 17.286 61.406 43.013l19.165 52.656c1.788 4.908-.825 10.204-5.565 11.929l-78.241 28.477-170.018 61.881c-.001 0-.002 0-.002 0-2.565-.281 10.36-.188-169.49-.188-16.82 0-30.504 13.684-30.504 30.504v1.525c-6.419-6.563-11.374-14.433-14.591-23.272-2.628-7.22-3.96-14.737-3.96-22.343 0-27.364 17.286-52.042 43.013-61.405l49.687-18.084c3.893-1.417 5.899-5.721 4.483-9.613-1.418-3.893-5.723-5.9-9.613-4.483l-49.687 18.084c-31.629 11.512-52.881 41.854-52.881 75.5 0 9.361 1.637 18.604 4.865 27.474 5.598 15.379 15.479 28.362 28.687 37.796v40.165c0 16.82 13.684 30.504 30.504 30.504h379.324c4.143 0 7.5-3.358 7.5-7.5s-3.357-7.5-7.5-7.5h-182.68v-21.821h236.3v12.511c0 5.133-4.176 9.31-9.31 9.31h-9.312c-4.143 0-7.5 3.358-7.5 7.5s3.357 7.5 7.5 7.5h9.312c13.404 0 24.31-10.905 24.31-24.31v-20.011c0-4.142-3.357-7.5-7.5-7.5zm-258.8 36.82h-181.645c-8.549 0-15.504-6.955-15.504-15.504v-44.127-17.216c0-8.549 6.955-15.504 15.504-15.504h166.14c8.488 0 15.504 6.911 15.504 15.504.001 7.117.001 69.623.001 76.847zm14.999-77.08c-.25-32.979-59.97-2.176 214.677-102.14 2.318 6.368.393 1.08 7.714 21.196z"/></g></g></svg>