<svg id="Capa_1" enable-background="new 0 0 512 512" height="512" viewBox="0 0 512 512" width="512" xmlns="http://www.w3.org/2000/svg"><g><g><path d="m486.5 444.707h-461c-9.941 0-18-8.059-18-18v-194c0-9.941 8.059-18 18-18h461c9.941 0 18 8.059 18 18v194c0 9.941-8.059 18-18 18z" fill="#5a5a5a"/><g fill="#cecece"><path d="m37.5 273.014c0-8.255 6.692-14.946 14.946-14.946h8.813c8.255 0 14.946 6.692 14.946 14.946 0 8.255-6.692 14.946-14.946 14.946h-8.813c-8.254 0-14.946-6.692-14.946-14.946z"/><path d="m103.521 273.014c0-8.255 6.692-14.946 14.946-14.946h8.813c8.255 0 14.946 6.692 14.946 14.946 0 8.255-6.692 14.946-14.946 14.946h-8.813c-8.254 0-14.946-6.692-14.946-14.946z"/><path d="m169.543 273.014c0-8.255 6.692-14.946 14.946-14.946h8.813c8.255 0 14.946 6.692 14.946 14.946 0 8.255-6.692 14.946-14.946 14.946h-8.813c-8.255 0-14.946-6.692-14.946-14.946z"/><path d="m301.585 273.014c0-8.255 6.692-14.946 14.946-14.946h8.813c8.255 0 14.946 6.692 14.946 14.946 0 8.255-6.692 14.946-14.946 14.946h-8.813c-8.254 0-14.946-6.692-14.946-14.946z"/><path d="m235.564 273.014c0-8.255 6.692-14.946 14.946-14.946h8.813c8.255 0 14.946 6.692 14.946 14.946 0 8.255-6.692 14.946-14.946 14.946h-8.813c-8.254 0-14.946-6.692-14.946-14.946z"/><path d="m374.333 273.014c0-8.255 6.692-14.946 14.946-14.946h7.127c8.255 0 14.946 6.692 14.946 14.946 0 8.255-6.692 14.946-14.946 14.946h-7.127c-8.254 0-14.946-6.692-14.946-14.946z"/><path d="m437.48 273.014c0-8.255 6.692-14.946 14.946-14.946h7.127c8.255 0 14.946 6.692 14.946 14.946 0 8.255-6.692 14.946-14.946 14.946h-7.127c-8.255 0-14.946-6.692-14.946-14.946z"/><path d="m37.5 329.707c0-8.255 6.692-14.946 14.946-14.946h8.813c8.255 0 14.946 6.692 14.946 14.946 0 8.255-6.692 14.946-14.946 14.946h-8.813c-8.254 0-14.946-6.692-14.946-14.946z"/><path d="m103.521 329.707c0-8.255 6.692-14.946 14.946-14.946h8.813c8.255 0 14.946 6.692 14.946 14.946 0 8.255-6.692 14.946-14.946 14.946h-8.813c-8.254 0-14.946-6.692-14.946-14.946z"/><path d="m169.543 329.707c0-8.255 6.692-14.946 14.946-14.946h8.813c8.255 0 14.946 6.692 14.946 14.946 0 8.255-6.692 14.946-14.946 14.946h-8.813c-8.255 0-14.946-6.692-14.946-14.946z"/><path d="m301.585 329.707c0-8.255 6.692-14.946 14.946-14.946h8.813c8.255 0 14.946 6.692 14.946 14.946 0 8.255-6.692 14.946-14.946 14.946h-8.813c-8.254 0-14.946-6.692-14.946-14.946z"/><path d="m235.564 329.707c0-8.255 6.692-14.946 14.946-14.946h8.813c8.255 0 14.946 6.692 14.946 14.946 0 8.255-6.692 14.946-14.946 14.946h-8.813c-8.254 0-14.946-6.692-14.946-14.946z"/><path d="m37.5 329.707c0-8.255 6.692-14.946 14.946-14.946h8.813c8.255 0 14.946 6.692 14.946 14.946 0 8.255-6.692 14.946-14.946 14.946h-8.813c-8.254 0-14.946-6.692-14.946-14.946z"/><path d="m103.521 329.707c0-8.255 6.692-14.946 14.946-14.946h8.813c8.255 0 14.946 6.692 14.946 14.946 0 8.255-6.692 14.946-14.946 14.946h-8.813c-8.254 0-14.946-6.692-14.946-14.946z"/><path d="m169.543 329.707c0-8.255 6.692-14.946 14.946-14.946h8.813c8.255 0 14.946 6.692 14.946 14.946 0 8.255-6.692 14.946-14.946 14.946h-8.813c-8.255 0-14.946-6.692-14.946-14.946z"/><path d="m301.585 329.707c0-8.255 6.692-14.946 14.946-14.946h8.813c8.255 0 14.946 6.692 14.946 14.946 0 8.255-6.692 14.946-14.946 14.946h-8.813c-8.254 0-14.946-6.692-14.946-14.946z"/><path d="m235.564 329.707c0-8.255 6.692-14.946 14.946-14.946h8.813c8.255 0 14.946 6.692 14.946 14.946 0 8.255-6.692 14.946-14.946 14.946h-8.813c-8.254 0-14.946-6.692-14.946-14.946z"/><path d="m37.5 329.707c0-8.255 6.692-14.946 14.946-14.946h8.813c8.255 0 14.946 6.692 14.946 14.946 0 8.255-6.692 14.946-14.946 14.946h-8.813c-8.254 0-14.946-6.692-14.946-14.946z"/><path d="m103.521 329.707c0-8.255 6.692-14.946 14.946-14.946h8.813c8.255 0 14.946 6.692 14.946 14.946 0 8.255-6.692 14.946-14.946 14.946h-8.813c-8.254 0-14.946-6.692-14.946-14.946z"/><path d="m169.543 329.707c0-8.255 6.692-14.946 14.946-14.946h8.813c8.255 0 14.946 6.692 14.946 14.946 0 8.255-6.692 14.946-14.946 14.946h-8.813c-8.255 0-14.946-6.692-14.946-14.946z"/><path d="m301.585 329.707c0-8.255 6.692-14.946 14.946-14.946h8.813c8.255 0 14.946 6.692 14.946 14.946 0 8.255-6.692 14.946-14.946 14.946h-8.813c-8.254 0-14.946-6.692-14.946-14.946z"/><path d="m235.564 329.707c0-8.255 6.692-14.946 14.946-14.946h8.813c8.255 0 14.946 6.692 14.946 14.946 0 8.255-6.692 14.946-14.946 14.946h-8.813c-8.254 0-14.946-6.692-14.946-14.946z"/><path d="m37.5 329.707c0-8.255 6.692-14.946 14.946-14.946h8.813c8.255 0 14.946 6.692 14.946 14.946 0 8.255-6.692 14.946-14.946 14.946h-8.813c-8.254 0-14.946-6.692-14.946-14.946z"/><path d="m103.521 329.707c0-8.255 6.692-14.946 14.946-14.946h8.813c8.255 0 14.946 6.692 14.946 14.946 0 8.255-6.692 14.946-14.946 14.946h-8.813c-8.254 0-14.946-6.692-14.946-14.946z"/><path d="m169.543 329.707c0-8.255 6.692-14.946 14.946-14.946h8.813c8.255 0 14.946 6.692 14.946 14.946 0 8.255-6.692 14.946-14.946 14.946h-8.813c-8.255 0-14.946-6.692-14.946-14.946z"/><path d="m301.585 329.707c0-8.255 6.692-14.946 14.946-14.946h8.813c8.255 0 14.946 6.692 14.946 14.946 0 8.255-6.692 14.946-14.946 14.946h-8.813c-8.254 0-14.946-6.692-14.946-14.946z"/><path d="m235.564 329.707c0-8.255 6.692-14.946 14.946-14.946h8.813c8.255 0 14.946 6.692 14.946 14.946 0 8.255-6.692 14.946-14.946 14.946h-8.813c-8.254 0-14.946-6.692-14.946-14.946z"/><path d="m37.5 329.707c0-8.255 6.692-14.946 14.946-14.946h8.813c8.255 0 14.946 6.692 14.946 14.946 0 8.255-6.692 14.946-14.946 14.946h-8.813c-8.254 0-14.946-6.692-14.946-14.946z"/><path d="m103.521 329.707c0-8.255 6.692-14.946 14.946-14.946h8.813c8.255 0 14.946 6.692 14.946 14.946 0 8.255-6.692 14.946-14.946 14.946h-8.813c-8.254 0-14.946-6.692-14.946-14.946z"/><path d="m169.543 329.707c0-8.255 6.692-14.946 14.946-14.946h8.813c8.255 0 14.946 6.692 14.946 14.946 0 8.255-6.692 14.946-14.946 14.946h-8.813c-8.255 0-14.946-6.692-14.946-14.946z"/><path d="m301.585 329.707c0-8.255 6.692-14.946 14.946-14.946h8.813c8.255 0 14.946 6.692 14.946 14.946 0 8.255-6.692 14.946-14.946 14.946h-8.813c-8.254 0-14.946-6.692-14.946-14.946z"/><path d="m235.564 329.707c0-8.255 6.692-14.946 14.946-14.946h8.813c8.255 0 14.946 6.692 14.946 14.946 0 8.255-6.692 14.946-14.946 14.946h-8.813c-8.254 0-14.946-6.692-14.946-14.946z"/><path d="m37.5 329.707c0-8.255 6.692-14.946 14.946-14.946h8.813c8.255 0 14.946 6.692 14.946 14.946 0 8.255-6.692 14.946-14.946 14.946h-8.813c-8.254 0-14.946-6.692-14.946-14.946z"/><path d="m103.521 329.707c0-8.255 6.692-14.946 14.946-14.946h8.813c8.255 0 14.946 6.692 14.946 14.946 0 8.255-6.692 14.946-14.946 14.946h-8.813c-8.254 0-14.946-6.692-14.946-14.946z"/><path d="m169.543 329.707c0-8.255 6.692-14.946 14.946-14.946h8.813c8.255 0 14.946 6.692 14.946 14.946 0 8.255-6.692 14.946-14.946 14.946h-8.813c-8.255 0-14.946-6.692-14.946-14.946z"/><path d="m301.585 329.707c0-8.255 6.692-14.946 14.946-14.946h8.813c8.255 0 14.946 6.692 14.946 14.946 0 8.255-6.692 14.946-14.946 14.946h-8.813c-8.254 0-14.946-6.692-14.946-14.946z"/><path d="m235.564 329.707c0-8.255 6.692-14.946 14.946-14.946h8.813c8.255 0 14.946 6.692 14.946 14.946 0 8.255-6.692 14.946-14.946 14.946h-8.813c-8.254 0-14.946-6.692-14.946-14.946z"/><path d="m374.333 329.707c0-8.255 6.692-14.946 14.946-14.946h7.127c8.255 0 14.946 6.692 14.946 14.946 0 8.255-6.692 14.946-14.946 14.946h-7.127c-8.254 0-14.946-6.692-14.946-14.946z"/><path d="m437.48 382.836v-49.566c0-10.223 8.287-18.51 18.51-18.51 10.223 0 18.51 8.287 18.51 18.51v49.566c0 10.223-8.287 18.51-18.51 18.51-10.223 0-18.51-8.287-18.51-18.51z"/><path d="m37.5 386.4c0-8.255 6.692-14.946 14.946-14.946h8.813c8.255 0 14.946 6.692 14.946 14.946 0 8.255-6.692 14.946-14.946 14.946h-8.813c-8.254 0-14.946-6.692-14.946-14.946z"/><path d="m103.521 386.4c0-8.255 6.692-14.946 14.946-14.946h206.877c8.255 0 14.946 6.692 14.946 14.946 0 8.255-6.692 14.946-14.946 14.946h-206.876c-8.255 0-14.947-6.692-14.947-14.946z"/><path d="m374.333 386.4c0-8.255 6.692-14.946 14.946-14.946h7.127c8.255 0 14.946 6.692 14.946 14.946 0 8.255-6.692 14.946-14.946 14.946h-7.127c-8.254 0-14.946-6.692-14.946-14.946z"/></g><path d="m279.334 214.707h-46.668v-18.08c0-5.523 4.477-10 10-10h26.668c5.523 0 10 4.477 10 10z" fill="#383838"/><path d="m486.5 214.707h-30c9.941 0 18 8.059 18 18v194c0 9.941-8.059 18-18 18h30c9.941 0 18-8.059 18-18v-194c0-9.942-8.059-18-18-18z" fill="#444"/></g><g><path d="m486.5 207.207h-199.666v-10.58c0-9.649-7.851-17.5-17.5-17.5h-5.834v-81.834c0-12.407 10.094-22.5 22.5-22.5h169.99c4.143 0 7.5-3.358 7.5-7.5s-3.357-7.5-7.5-7.5h-169.99c-20.678 0-37.5 16.822-37.5 37.5v81.833h-5.834c-9.649 0-17.5 7.851-17.5 17.5v10.58h-199.666c-14.061 0-25.5 11.439-25.5 25.5v194c0 14.061 11.439 25.5 25.5 25.5h47c4.143 0 7.5-3.358 7.5-7.5s-3.357-7.5-7.5-7.5h-47c-5.79 0-10.5-4.71-10.5-10.5v-194c0-5.79 4.71-10.5 10.5-10.5h461c5.79 0 10.5 4.71 10.5 10.5v57.143c0 4.142 3.357 7.5 7.5 7.5s7.5-3.358 7.5-7.5v-57.143c0-14.06-11.439-25.499-25.5-25.499zm-214.666 0h-31.668v-10.58c0-1.378 1.121-2.5 2.5-2.5h26.668c1.379 0 2.5 1.122 2.5 2.5z"/><path d="m504.5 317.35c-4.143 0-7.5 3.358-7.5 7.5v101.857c0 5.79-4.71 10.5-10.5 10.5h-379c-4.143 0-7.5 3.358-7.5 7.5s3.357 7.5 7.5 7.5h379c14.061 0 25.5-11.439 25.5-25.5v-101.857c0-4.142-3.357-7.5-7.5-7.5z"/><path d="m61.26 250.567h-8.813c-12.378 0-22.447 10.07-22.447 22.447s10.069 22.446 22.446 22.446h8.813c12.377 0 22.446-10.069 22.446-22.446s-10.068-22.447-22.445-22.447zm0 29.893h-8.813c-4.105 0-7.446-3.34-7.446-7.446s3.341-7.446 7.446-7.446h8.813c4.105 0 7.446 3.34 7.446 7.446s-3.341 7.446-7.446 7.446z"/><path d="m118.468 295.46h8.813c12.377 0 22.446-10.069 22.446-22.446s-10.069-22.446-22.446-22.446h-8.813c-12.377 0-22.446 10.069-22.446 22.446s10.069 22.446 22.446 22.446zm0-29.893h8.813c4.105 0 7.446 3.34 7.446 7.446s-3.341 7.446-7.446 7.446h-8.813c-4.105 0-7.446-3.34-7.446-7.446s3.34-7.446 7.446-7.446z"/><path d="m184.489 295.46h8.813c12.377 0 22.446-10.069 22.446-22.446s-10.069-22.446-22.446-22.446h-8.813c-12.377 0-22.446 10.069-22.446 22.446s10.069 22.446 22.446 22.446zm0-29.893h8.813c4.105 0 7.446 3.34 7.446 7.446s-3.341 7.446-7.446 7.446h-8.813c-4.105 0-7.446-3.34-7.446-7.446s3.341-7.446 7.446-7.446z"/><path d="m316.531 295.46h8.813c12.377 0 22.446-10.069 22.446-22.446s-10.069-22.446-22.446-22.446h-8.813c-12.377 0-22.446 10.069-22.446 22.446s10.069 22.446 22.446 22.446zm0-29.893h8.813c4.105 0 7.446 3.34 7.446 7.446s-3.341 7.446-7.446 7.446h-8.813c-4.105 0-7.446-3.34-7.446-7.446s3.341-7.446 7.446-7.446z"/><path d="m250.51 295.46h8.813c12.377 0 22.446-10.069 22.446-22.446s-10.069-22.446-22.446-22.446h-8.813c-12.377 0-22.446 10.069-22.446 22.446s10.069 22.446 22.446 22.446zm0-29.893h8.813c4.105 0 7.446 3.34 7.446 7.446s-3.341 7.446-7.446 7.446h-8.813c-4.105 0-7.446-3.34-7.446-7.446s3.34-7.446 7.446-7.446z"/><path d="m389.279 295.46h7.128c12.377 0 22.446-10.069 22.446-22.446s-10.069-22.446-22.446-22.446h-7.128c-12.377 0-22.446 10.069-22.446 22.446s10.069 22.446 22.446 22.446zm0-29.893h7.128c4.105 0 7.446 3.34 7.446 7.446s-3.341 7.446-7.446 7.446h-7.128c-4.105 0-7.446-3.34-7.446-7.446s3.341-7.446 7.446-7.446z"/><path d="m459.554 295.46c12.377 0 22.446-10.069 22.446-22.446s-10.069-22.446-22.446-22.446h-7.128c-12.377 0-22.446 10.069-22.446 22.446s10.069 22.446 22.446 22.446zm-14.575-22.446c0-4.106 3.341-7.446 7.446-7.446h7.128c4.105 0 7.446 3.34 7.446 7.446s-3.341 7.446-7.446 7.446h-7.128c-4.105 0-7.446-3.34-7.446-7.446z"/><path d="m61.26 307.26h-8.813c-12.378 0-22.447 10.07-22.447 22.447s10.069 22.446 22.446 22.446h8.813c12.377 0 22.446-10.069 22.446-22.446s-10.068-22.447-22.445-22.447zm0 29.893h-8.813c-4.105 0-7.446-3.34-7.446-7.446s3.341-7.446 7.446-7.446h8.813c4.105 0 7.446 3.34 7.446 7.446s-3.341 7.446-7.446 7.446z"/><path d="m118.468 352.153h8.813c12.377 0 22.446-10.069 22.446-22.446s-10.069-22.446-22.446-22.446h-8.813c-12.377 0-22.446 10.069-22.446 22.446s10.069 22.446 22.446 22.446zm0-29.893h8.813c4.105 0 7.446 3.34 7.446 7.446s-3.341 7.446-7.446 7.446h-8.813c-4.105 0-7.446-3.34-7.446-7.446s3.34-7.446 7.446-7.446z"/><path d="m184.489 352.153h8.813c12.377 0 22.446-10.069 22.446-22.446s-10.069-22.446-22.446-22.446h-8.813c-12.377 0-22.446 10.069-22.446 22.446s10.069 22.446 22.446 22.446zm0-29.893h8.813c4.105 0 7.446 3.34 7.446 7.446s-3.341 7.446-7.446 7.446h-8.813c-4.105 0-7.446-3.34-7.446-7.446s3.341-7.446 7.446-7.446z"/><path d="m316.531 352.153h8.813c12.377 0 22.446-10.069 22.446-22.446s-10.069-22.446-22.446-22.446h-8.813c-12.377 0-22.446 10.069-22.446 22.446s10.069 22.446 22.446 22.446zm0-29.893h8.813c4.105 0 7.446 3.34 7.446 7.446s-3.341 7.446-7.446 7.446h-8.813c-4.105 0-7.446-3.34-7.446-7.446s3.341-7.446 7.446-7.446z"/><path d="m250.51 352.153h8.813c12.377 0 22.446-10.069 22.446-22.446s-10.069-22.447-22.446-22.447h-8.813c-12.377 0-22.446 10.069-22.446 22.446s10.069 22.447 22.446 22.447zm0-29.893h8.813c4.105 0 7.446 3.34 7.446 7.446s-3.341 7.446-7.446 7.446h-8.813c-4.105 0-7.446-3.34-7.446-7.446s3.34-7.446 7.446-7.446z"/><path d="m389.279 352.153h7.128c12.377 0 22.446-10.069 22.446-22.446s-10.069-22.446-22.446-22.446h-7.128c-12.377 0-22.446 10.069-22.446 22.446s10.069 22.446 22.446 22.446zm0-29.893h7.128c4.105 0 7.446 3.34 7.446 7.446s-3.341 7.446-7.446 7.446h-7.128c-4.105 0-7.446-3.34-7.446-7.446s3.341-7.446 7.446-7.446z"/><path d="m429.979 382.836c0 14.342 11.668 26.01 26.011 26.01 14.342 0 26.01-11.668 26.01-26.01v-49.566c0-14.342-11.668-26.01-26.01-26.01-14.343 0-26.011 11.668-26.011 26.01zm15-49.566c0-6.071 4.939-11.01 11.011-11.01 6.07 0 11.01 4.939 11.01 11.01v49.566c0 6.071-4.939 11.01-11.01 11.01s-11.011-4.939-11.011-11.01z"/><path d="m61.26 363.953h-8.813c-12.378 0-22.447 10.069-22.447 22.446s10.069 22.446 22.446 22.446h8.813c12.377 0 22.446-10.069 22.446-22.446s-10.068-22.446-22.445-22.446zm0 29.893h-8.813c-4.105 0-7.446-3.34-7.446-7.446s3.341-7.446 7.446-7.446h8.813c4.105 0 7.446 3.34 7.446 7.446s-3.341 7.446-7.446 7.446z"/><path d="m118.468 408.846h206.877c12.377 0 22.446-10.069 22.446-22.446s-10.069-22.446-22.446-22.446h-206.877c-12.377 0-22.446 10.069-22.446 22.446s10.069 22.446 22.446 22.446zm0-29.893h206.877c4.105 0 7.446 3.34 7.446 7.446s-3.341 7.446-7.446 7.446h-206.877c-4.105 0-7.446-3.34-7.446-7.446s3.34-7.446 7.446-7.446z"/><path d="m389.279 408.846h7.128c12.377 0 22.446-10.069 22.446-22.446s-10.069-22.446-22.446-22.446h-7.128c-12.377 0-22.446 10.069-22.446 22.446s10.069 22.446 22.446 22.446zm0-29.893h7.128c4.105 0 7.446 3.34 7.446 7.446s-3.341 7.446-7.446 7.446h-7.128c-4.105 0-7.446-3.34-7.446-7.446s3.341-7.446 7.446-7.446z"/></g></g></svg>