<svg id="Capa_1" enable-background="new 0 0 512 512" height="512" viewBox="0 0 512 512" width="512" xmlns="http://www.w3.org/2000/svg"><g><g><path d="m378.377 188.687h-244.754v-172.736c0-6.075 4.925-11 11-11h222.754c6.075 0 11 4.925 11 11z" fill="#d3e1f5"/><path d="m367.377 4.951h-37.377c6.075 0 11 4.925 11 11v172.736h37.377v-172.736c0-6.075-4.925-11-11-11z" fill="#c0d6f2"/><path d="m91.916 188.687h328.168v271.014h-328.168z" fill="#acacac"/><path d="m380.399 188.687h39.685v271.014h-39.685z" fill="#9c9c9c"/><path d="m91.916 437.701v34.25c0 16.569 13.431 30 30 30h268.168c16.569 0 30-13.431 30-30v-34.25z" fill="#838383"/><g fill="#d3e1f5"><path d="m171.191 188.687h-37.568v170.014c0 2.209 1.791 4 4 4h29.568c2.209 0 4-1.791 4-4z"/><path d="m240.253 188.687h-37.568v170.014c0 2.209 1.791 4 4 4h29.568c2.209 0 4-1.791 4-4z"/><path d="m309.315 188.687h-37.568v170.014c0 2.209 1.791 4 4 4h29.568c2.209 0 4-1.791 4-4z"/></g><path d="m378.377 188.687h-37.568v170.014c0 2.209 1.791 4 4 4h29.568c2.209 0 4-1.791 4-4z" fill="#c0d6f2"/><path d="m419.822 224.73h-327.644c-7.18 0-13-5.82-13-13v-75.057c0-7.18 5.82-13 13-13h327.644c7.18 0 13 5.82 13 13v75.057c0 7.179-5.82 13-13 13z" fill="#5a5a5a"/><path d="m110.178 185.208v-27.057c0-3.314 2.686-6 6-6h105.822c3.314 0 6 2.686 6 6v27.057c0 3.314-2.686 6-6 6h-105.822c-3.314 0-6-2.686-6-6z" fill="#9c9c9c"/><circle cx="322.453" cy="171.68" fill="#b2caec" r="17.007"/><path d="m380.399 437.701v34.25c0 16.569-13.431 30-30 30h39.685c16.569 0 30-13.431 30-30v-34.25z" fill="#5a5a5a"/><path d="m419.822 123.673h-39.685c7.18 0 13 5.82 13 13v75.057c0 7.18-5.82 13-13 13h39.685c7.18 0 13-5.82 13-13v-75.057c0-7.18-5.82-13-13-13z" fill="#444"/><circle cx="384.815" cy="171.68" fill="#e94444" r="17.007"/><path d="m393.137 156.856v29.647c5.18-2.915 8.685-8.456 8.685-14.823s-3.505-11.909-8.685-14.824z" fill="#d83131"/></g><g><g><path d="m420.084 447.75h-328.168c-4.142 0-7.5-3.358-7.5-7.5v-90.891c0-4.142 3.358-7.5 7.5-7.5s7.5 3.358 7.5 7.5v83.391h313.168v-197.971h-313.168v79.58c0 4.142-3.358 7.5-7.5 7.5s-7.5-3.358-7.5-7.5v-87.093c0-2.011.808-3.938 2.241-5.347 1.433-1.41 3.34-2.17 5.384-2.152.112.002.224.006.335.012h327.248c.112-.006.223-.01.334-.012 2.016-.005 3.95.742 5.384 2.152s2.241 3.336 2.241 5.347v212.984c.001 4.142-3.357 7.5-7.499 7.5z"/></g><g><path d="m390.084 512h-268.168c-20.678 0-37.5-16.822-37.5-37.5v-34.25c0-4.142 3.358-7.5 7.5-7.5h328.168c4.142 0 7.5 3.358 7.5 7.5v34.25c0 20.678-16.822 37.5-37.5 37.5zm-290.668-64.25v26.75c0 12.407 10.093 22.5 22.5 22.5h268.168c12.407 0 22.5-10.093 22.5-22.5v-26.75z"/></g><g><path d="m419.822 234.779h-327.644c-11.304 0-20.5-9.196-20.5-20.5v-75.057c0-11.304 9.196-20.5 20.5-20.5h327.645c11.304 0 20.5 9.196 20.5 20.5v75.057c-.001 11.304-9.197 20.5-20.501 20.5zm-327.644-101.057c-3.033 0-5.5 2.467-5.5 5.5v75.057c0 3.033 2.467 5.5 5.5 5.5h327.645c3.033 0 5.5-2.467 5.5-5.5v-75.057c0-3.033-2.467-5.5-5.5-5.5z"/></g><g><path d="m222 201.257h-105.822c-7.444 0-13.5-6.056-13.5-13.5v-27.057c0-7.444 6.056-13.5 13.5-13.5h105.822c7.444 0 13.5 6.056 13.5 13.5v27.057c0 7.444-6.056 13.5-13.5 13.5zm-104.322-15h102.822v-24.057h-102.822z"/></g><g><path d="m322.453 198.736c-13.513 0-24.507-10.994-24.507-24.507s10.994-24.507 24.507-24.507 24.507 10.994 24.507 24.507-10.994 24.507-24.507 24.507zm0-34.014c-5.242 0-9.507 4.265-9.507 9.507s4.265 9.507 9.507 9.507 9.507-4.265 9.507-9.507-4.265-9.507-9.507-9.507z"/></g><g><path d="m384.815 198.736c-13.513 0-24.507-10.994-24.507-24.507s10.994-24.507 24.507-24.507 24.507 10.994 24.507 24.507-10.993 24.507-24.507 24.507zm0-34.014c-5.242 0-9.507 4.265-9.507 9.507s4.265 9.507 9.507 9.507 9.507-4.265 9.507-9.507-4.264-9.507-9.507-9.507z"/></g><g><path d="m378.377 133.722h-244.754c-4.142 0-7.5-3.358-7.5-7.5v-107.722c0-10.201 8.299-18.5 18.5-18.5h222.754c10.201 0 18.5 8.299 18.5 18.5v28.953c0 4.142-3.358 7.5-7.5 7.5s-7.5-3.358-7.5-7.5v-28.953c0-1.93-1.57-3.5-3.5-3.5h-222.754c-1.93 0-3.5 1.57-3.5 3.5v100.222h229.754v-36.27c0-4.142 3.358-7.5 7.5-7.5s7.5 3.358 7.5 7.5v43.77c0 4.142-3.358 7.5-7.5 7.5z"/></g><g><path d="m167.191 372.75h-29.568c-6.341 0-11.5-5.159-11.5-11.5v-133.971c0-4.142 3.358-7.5 7.5-7.5h37.568c4.142 0 7.5 3.358 7.5 7.5v133.971c0 6.341-5.158 11.5-11.5 11.5zm-26.068-15h22.568v-122.971h-22.568z"/></g><g><path d="m236.253 372.75h-29.568c-6.341 0-11.5-5.159-11.5-11.5v-133.971c0-4.142 3.358-7.5 7.5-7.5h37.568c4.142 0 7.5 3.358 7.5 7.5v133.971c0 6.341-5.158 11.5-11.5 11.5zm-26.068-15h22.568v-122.971h-22.568z"/></g><g><path d="m305.315 372.75h-29.568c-6.341 0-11.5-5.159-11.5-11.5v-133.971c0-4.142 3.358-7.5 7.5-7.5h37.568c4.142 0 7.5 3.358 7.5 7.5v133.971c0 6.341-5.159 11.5-11.5 11.5zm-26.068-15h22.568v-122.971h-22.568z"/></g><g><path d="m374.377 372.75h-29.568c-6.341 0-11.5-5.159-11.5-11.5v-133.971c0-4.142 3.358-7.5 7.5-7.5h37.568c4.142 0 7.5 3.358 7.5 7.5v133.971c0 6.341-5.159 11.5-11.5 11.5zm-26.068-15h22.568v-122.971h-22.568z"/></g><g><path d="m333.667 57.584h-155c-4.142 0-7.5-3.358-7.5-7.5s3.358-7.5 7.5-7.5h155c4.142 0 7.5 3.358 7.5 7.5s-3.358 7.5-7.5 7.5z"/></g><g><path d="m333.667 94.435h-155c-4.142 0-7.5-3.358-7.5-7.5s3.358-7.5 7.5-7.5h155c4.142 0 7.5 3.358 7.5 7.5s-3.358 7.5-7.5 7.5z"/></g></g></g></svg>