<svg id="Capa_1" enable-background="new 0 0 511.993 511.993" height="512" viewBox="0 0 511.993 511.993" width="512" xmlns="http://www.w3.org/2000/svg"><g><g><path d="m122.262 198.955h84.238v297.302h-84.238z" fill="#5a5a5a" transform="matrix(.707 .707 -.707 .707 293.941 -14.423)"/><path d="m89.051 482.501-59.565-59.565-21.739 73.81c-1.35 4.584 2.91 8.844 7.494 7.494z" fill="#e2e2e2"/><path d="m471.899 89.244-49.156-49.156c-2.874-2.874-7.535-2.874-10.409 0l-172.624 172.623 59.565 59.565 172.624-172.623c2.874-2.874 2.874-7.535 0-10.409z" fill="#ca2c2c"/><path d="m469.441 86.786-44.24-44.24 29.169-29.169c7.845-7.845 20.563-7.845 28.408 0l15.832 15.832c7.845 7.845 7.845 20.563 0 28.408z" fill="#5a5a5a"/><path d="m35.49 353.194h297.302v28.346h-297.302z" fill="#444" transform="matrix(.707 -.707 .707 .707 -205.834 237.807)"/><path d="m471.899 89.244-20.044-20.044c2.875 2.875 2.874 7.535 0 10.409l-172.624 172.624 20.044 20.044 172.624-172.624c2.874-2.874 2.874-7.535 0-10.409z" fill="#a72b2b"/><path d="m498.61 29.209-15.832-15.832c-.718-.718-1.487-1.347-2.279-1.933 5.823 7.863 5.194 19.002-1.933 26.129l-29.169 29.169 20.044 20.044 29.169-29.169c7.844-7.845 7.845-20.563 0-28.408z" fill="#444"/><g><path d="m216.868 197.412c-1.93 0-3.861-.737-5.334-2.209-2.946-2.947-2.946-7.722 0-10.669l130.985-130.986c2.947-2.945 7.722-2.945 10.669 0 2.946 2.947 2.946 7.722 0 10.669l-130.986 130.986c-1.473 1.472-3.404 2.209-5.334 2.209z" fill="#5a5a5a"/></g><path d="m448.45 131.721-79.778-79.778c-3.833-3.833-10.047-3.833-13.879 0l-20.819 20.819 86.718 86.718c3.928 3.928 10.296 3.928 14.224 0l13.535-13.535c3.927-3.928 3.927-10.296-.001-14.224z" fill="#5a5a5a"/><path d="m448.45 131.721-20.044-20.044c3.928 3.928 3.928 10.296 0 14.224l-13.535 13.535c-3.928 3.928-10.296 3.928-14.224 0l20.044 20.044c3.928 3.928 10.296 3.928 14.224 0l13.535-13.535c3.928-3.928 3.928-10.296 0-14.224z" fill="#444"/><path d="m69.007 462.457-56.02 16.499-5.239 17.79c-1.35 4.584 2.91 8.844 7.494 7.494l73.81-21.739z" fill="#cecece"/></g><g><g><path d="m89.051 490.001c-1.919 0-3.839-.732-5.304-2.197l-59.565-59.565c-2.929-2.929-2.929-7.678 0-10.606l32.358-32.358c2.93-2.929 7.678-2.929 10.607 0s2.929 7.678 0 10.606l-27.056 27.055 48.959 48.959 199.618-199.618-48.959-48.959-147.812 147.814c-2.93 2.929-7.678 2.929-10.607 0s-2.929-7.678 0-10.606l153.117-153.117c2.93-2.929 7.678-2.929 10.607 0l59.565 59.565c2.929 2.929 2.929 7.678 0 10.606l-210.224 210.225c-1.465 1.464-3.385 2.196-5.304 2.196z"/></g><g><path d="m13.533 511.987c-3.538 0-6.992-1.389-9.568-3.966-3.506-3.506-4.813-8.639-3.412-13.395l21.738-73.809c.747-2.539 2.778-4.496 5.343-5.149 2.561-.654 5.283.092 7.155 1.964l59.565 59.565c1.871 1.871 2.617 4.59 1.964 7.155-.653 2.564-2.61 4.595-5.148 5.342l-73.81 21.74c-1.262.371-2.55.553-3.827.553zm19.579-74.818-17.411 59.116 59.116-17.411z"/></g><g><path d="m469.442 94.286c-1.989 0-3.896-.79-5.304-2.197l-44.24-44.24c-2.929-2.929-2.929-7.677 0-10.606l29.168-29.169c10.758-10.756 28.259-10.756 39.015 0l15.833 15.833c5.21 5.21 8.08 12.138 8.08 19.507s-2.87 14.297-8.08 19.507l-29.168 29.169c-1.408 1.406-3.315 2.196-5.304 2.196zm-33.634-51.74 33.634 33.634 23.864-23.866c2.378-2.377 3.688-5.539 3.688-8.901s-1.31-6.523-3.687-8.9l-15.833-15.833c-4.906-4.907-12.892-4.909-17.802 0z"/></g><g><path d="m427.804 169.917c-4.497 0-8.992-1.711-12.416-5.134l-86.718-86.718c-2.929-2.929-2.929-7.678 0-10.606l20.818-20.819c6.752-6.749 17.736-6.751 24.486 0l79.779 79.778c6.845 6.846 6.845 17.985 0 24.831l-13.536 13.535c-3.421 3.421-7.918 5.133-12.413 5.133zm-83.224-97.155 81.415 81.415c.996.997 2.62.996 3.616 0l13.536-13.535c.997-.998.997-2.62-.001-3.618l-79.778-79.778c-.9-.902-2.371-.902-3.273 0z"/></g><g><path d="m216.867 197.368c-1.919 0-3.839-.732-5.304-2.197-2.929-2.929-2.929-7.678 0-10.606l130.986-130.986c2.93-2.929 7.678-2.929 10.607 0s2.929 7.678 0 10.606l-130.985 130.987c-1.465 1.464-3.385 2.196-5.304 2.196z"/></g><g><path d="m444.141 134.911c-1.989 0-3.896-.79-5.304-2.197l-59.565-59.564c-1.406-1.406-2.196-3.314-2.196-5.303s.79-3.897 2.196-5.303l27.759-27.759c2.807-2.807 6.538-4.353 10.508-4.353 3.969 0 7.701 1.545 10.508 4.352l49.156 49.156c2.807 2.807 4.353 6.539 4.353 10.508s-1.546 7.702-4.354 10.508l-27.757 27.758c-1.408 1.407-3.315 2.197-5.304 2.197zm-48.959-67.064 48.959 48.958 22.356-22.356-48.959-48.959zm71.414 26.7h.01z"/></g><g><path d="m299.276 279.777c-1.989 0-3.896-.79-5.304-2.197l-59.565-59.565c-2.929-2.929-2.929-7.678 0-10.606l117.106-117.107c2.93-2.929 7.678-2.929 10.607 0l59.565 59.565c2.929 2.929 2.929 7.678 0 10.606l-37.806 37.806c-2.93 2.929-7.678 2.929-10.607 0s-2.929-7.678 0-10.606l32.503-32.502-48.959-48.959-106.5 106.5 48.959 48.959 49.248-49.249c2.928-2.929 7.676-2.93 10.607 0 2.929 2.929 2.929 7.678 0 10.606l-54.552 54.552c-1.406 1.407-3.313 2.197-5.302 2.197z"/></g></g></g></svg>