<svg id="Capa_1" enable-background="new 0 0 512.047 512.047" height="512" viewBox="0 0 512.047 512.047" width="512" xmlns="http://www.w3.org/2000/svg"><g><g><g><path d="m130.409 504.532c-26.58 0-53.16-10.118-73.395-30.353-19.605-19.605-30.402-45.671-30.402-73.395 0-27.725 10.797-53.791 30.402-73.396l297.34-297.34c14.504-14.504 33.787-22.492 54.298-22.492s39.795 7.987 54.298 22.492c14.504 14.503 22.491 33.786 22.491 54.298 0 20.511-7.987 39.795-22.491 54.298l-256.972 256.973c-19.41 19.409-50.992 19.409-70.402 0-19.41-19.41-19.41-50.992 0-70.402l180.775-180.775c5.317-5.317 13.94-5.317 19.257 0 5.318 5.317 5.318 13.939 0 19.257l-180.775 180.775c-8.791 8.792-8.791 23.096 0 31.888 8.792 8.792 23.096 8.792 31.888 0l256.972-256.971c9.36-9.36 14.514-21.805 14.514-35.041 0-13.237-5.154-25.681-14.514-35.041-19.322-19.322-50.76-19.322-70.082 0l-297.34 297.34c-14.461 14.461-22.425 33.688-22.425 54.138 0 20.451 7.964 39.677 22.425 54.138 29.852 29.852 78.425 29.851 108.276.001l221.743-221.745c5.317-5.317 13.94-5.317 19.257 0 5.318 5.317 5.318 13.94 0 19.257l-221.743 221.744c-20.235 20.235-46.815 30.352-73.395 30.352z" fill="#5a5a5a"/></g><g><path d="m425.547 252.437c5.318-5.317 5.318-13.94 0-19.257-5.317-5.317-13.94-5.317-19.257 0l-221.743 221.742c-18.182 18.181-43.305 25.267-66.917 21.301-4.813.674-9.664 1.015-14.516 1.015-20.472 0-40.94-6.009-58.513-18.012 3.628 5.303 7.77 10.311 12.412 14.954 20.235 20.235 46.815 30.353 73.395 30.353s53.16-10.118 73.396-30.353z" fill="#444"/></g></g><g><path d="m149.524 339.148c-11.729 11.729-11.73 30.763 0 42.496 11.73 11.728 30.765 11.734 42.496 0l256.985-256.984c22.299-22.3 22.301-58.391 0-80.693-22.271-22.269-58.42-22.268-80.692 0l-223.139 223.14c-2.929 2.93-2.929 7.678 0 10.607 2.929 2.928 7.678 2.928 10.606 0l223.14-223.14c16.407-16.406 43.071-16.408 59.479 0 16.437 16.437 16.438 43.041 0 59.479l-256.986 256.985c-5.868 5.869-15.413 5.867-21.282 0-5.866-5.867-5.869-15.415 0-21.283 3.178-3.178 176.687-176.688 180.784-180.785 8.252-8.254 8.253-21.609-.001-29.864-8.252-8.25-21.613-8.253-29.864 0l-180.784 180.785c-22.359 22.361-22.358 58.651 0 81.012 22.36 22.357 58.653 22.357 81.012 0l166.123-166.121c2.929-2.93 2.929-7.678 0-10.607-2.929-2.928-7.678-2.928-10.606 0l-166.123 166.12c-16.495 16.495-43.302 16.496-59.799.001-16.495-16.497-16.497-43.302 0-59.799l180.784-180.785c2.388-2.388 6.262-2.39 8.651.001 2.395 2.395 2.386 6.264 0 8.65-8.172 8.173-175.187 175.188-180.784 180.785z"/><path d="m402.15 210.032 66.114-66.113c32.942-32.942 32.947-86.265 0-119.21-32.944-32.945-86.261-32.946-119.208 0l-297.355 297.354c-43.499 43.501-43.503 113.901 0 157.406 43.437 43.435 113.966 43.436 157.404 0l221.753-221.754c8.253-8.252 8.255-21.611 0-29.866-8.251-8.25-21.614-8.252-29.865 0l-221.753 221.755c-26.946 26.944-70.73 26.945-97.675 0-26.991-26.991-26.996-70.681 0-97.674l49.467-49.468c2.929-2.93 2.929-7.678 0-10.607-2.929-2.928-7.678-2.928-10.606 0l-49.467 49.468c-32.856 32.855-32.858 86.029 0 118.889 32.804 32.804 86.077 32.808 118.888 0l221.753-221.756c2.388-2.388 6.262-2.39 8.651.001 2.391 2.391 2.391 6.261 0 8.651l-221.753 221.754c-37.577 37.575-98.616 37.574-136.191 0-37.637-37.638-37.64-98.551 0-136.191l297.354-297.355c27.081-27.082 70.912-27.086 97.996 0 27.081 27.079 27.083 70.913 0 97.995l-66.114 66.113c-2.929 2.93-2.929 7.678 0 10.607s7.678 2.929 10.607.001z"/></g></g></svg>