<svg id="Capa_1" enable-background="new 0 0 512 512" height="512" viewBox="0 0 512 512" width="512" xmlns="http://www.w3.org/2000/svg"><g><g><path d="m256 227.429-162.695-93.455-1.15-20.605 5.425-37.319c1.252-8.615 6.921-15.946 14.943-19.326l47.708-20.1c3.42-1.441 7.254-1.555 10.754-.319l59.171 20.895 25.844 55.17z" fill="#c86d36"/><path d="m256 227.429v-115.059l-25.844-55.17-19.261-6.802 66.973-42.898 68.586 26.884 10.3 25.798 53.832 3.389c5.237.33 9.315 4.673 9.315 9.92v38.878z" fill="#fece85"/><path d="m410.586 63.572-53.832-3.389-10.3-25.797-68.586-26.886-33.008 21.143 64.965 25.465 10.3 25.798 53.832 3.389c5.237.33 9.315 4.673 9.315 9.92v38.878l-127.272 89.346v5.99l163.901-115.059v-38.878c0-5.247-4.078-9.591-9.315-9.92z" fill="#fec165"/><path d="m286.502 112.37h-61.003-133.4l20.552 368.147c.751 13.457 11.882 23.984 25.36 23.984h235.978c13.478 0 24.609-10.527 25.36-23.984l20.552-368.147z" fill="#e2e2e2"/><path d="m380.454 112.37-20.552 368.147c-.751 13.457-11.882 23.984-25.36 23.984h39.447c13.478 0 24.609-10.527 25.36-23.984l20.552-368.147z" fill="#cecece"/><path d="m428.819 155.579h-345.638c-4.669 0-8.453-3.785-8.453-8.453v-26.303c0-4.669 3.785-8.453 8.453-8.453h345.638c4.669 0 8.453 3.785 8.453 8.453v26.303c0 4.669-3.784 8.453-8.453 8.453z" fill="#5a5a5a"/><path d="m428.819 112.37h-39.447c4.669 0 8.453 3.785 8.453 8.453v26.303c0 4.669-3.785 8.453-8.453 8.453h39.447c4.669 0 8.453-3.785 8.453-8.453v-26.303c0-4.669-3.784-8.453-8.453-8.453z" fill="#444"/><path d="m110.162 435.927 2.489 44.59c.751 13.457 11.882 23.984 25.36 23.984h235.978c13.478 0 24.609-10.527 25.36-23.984l2.489-44.59z" fill="#5a5a5a"/><path d="m362.391 435.927-2.489 44.59c-.751 13.457-11.882 23.984-25.36 23.984h39.447c13.478 0 24.609-10.527 25.36-23.984l2.489-44.59z" fill="#444"/></g><path d="m428.819 104.869h-1.418v-31.377c0-9.183-7.179-16.828-16.344-17.406l-49.097-3.092-8.541-21.391c-.769-1.924-2.299-3.445-4.228-4.201l-68.585-26.884c-2.238-.878-4.759-.629-6.783.667l-63.886 40.921-36.455-12.873c-5.273-1.861-11.013-1.69-16.163.48l-47.709 20.101c-10.379 4.373-17.833 14.013-19.453 25.157l-4.346 29.898h-2.631c-8.796 0-15.953 7.156-15.953 15.953v26.304c0 8.797 7.157 15.953 15.953 15.953h4.237c.321 5.757 15.342 274.822 17.745 317.855.972 17.42 15.401 31.065 32.848 31.065h47.847c4.142 0 7.5-3.357 7.5-7.5s-3.358-7.5-7.5-7.5h-47.847c-9.493 0-17.343-7.424-17.872-16.901l-2.047-36.672h275.815l-2.047 36.672c-.529 9.478-8.379 16.901-17.872 16.901h-153.129c-4.142 0-7.5 3.357-7.5 7.5s3.358 7.5 7.5 7.5h153.131c17.447 0 31.876-13.645 32.848-31.065.157-2.807 9.482-169.84 9.736-174.388.231-4.136-2.935-7.676-7.07-7.906l.016-.291-31.678-31.678 27.469-27.469-1.762 31.562c-.231 4.136 2.935 7.676 7.07 7.906 4.119.228 7.676-2.935 7.906-7.07l6.058-108.522h4.237c8.796 0 15.953-7.156 15.953-15.953v-26.304c.001-8.795-7.156-15.952-15.953-15.952zm-150.127-88.99 62 24.304 9.096 22.78c1.074 2.69 3.603 4.521 6.494 4.704l53.832 3.39c1.282.081 2.287 1.15 2.287 2.436v31.377h-151.632l-23.821-50.851c-1.652-3.526-4.56-3.984-9.084-5.582zm-173.69 61.25c.869-5.978 4.867-11.147 10.433-13.493l47.709-20.101c1.703-.718 3.602-.774 5.343-.158l56.21 19.85 19.508 41.643h-143.236zm-2.561 85.95h24.014l-22.744 22.744zm2.385 42.716 39.877-39.877 45.105 45.105-45.106 45.106-39.259-39.259zm151.174 71.42 45.106 45.106-45.106 45.105-45.106-45.106zm-55.649 34.562-45.105-45.105 45.106-45.106 45.105 45.105zm66.192-45.105 45.105-45.105 45.106 45.106-45.105 45.105zm7.705-103.593h74.801l-37.401 37.401zm26.857 47.944-45.105 45.105-45.105-45.105 45.105-45.105zm-100.753-10.543-37.401-37.401h74.801zm-93.661 38.723 27.469 27.469-24.564 24.564zm4.02 72.005 33.992-33.992 45.105 45.105-45.105 45.105-32.678-32.678zm2.561 45.874 20.888 20.888-18.679 18.679zm3.982 71.345-.659-11.807 28.107-28.107 39.914 39.914zm37.992-50.458 45.105-45.105 45.106 45.106-45.105 45.105zm60.84 50.458 39.914-39.914 39.914 39.914zm50.457-50.457 45.106-45.106 45.105 45.105-45.106 45.106zm128.203 50.457h-67.362l39.914-39.914 28.107 28.107zm1.774-31.779-18.679-18.679 20.888-20.887zm4.769-85.441-1.314 23.541-32.678 32.678-45.105-45.105 45.105-45.105zm5.267-94.337-39.259 39.259-45.106-45.106 45.105-45.105 39.877 39.877zm1.733-31.047-22.744-22.744h24.014zm21.484-38.697c0 .525-.428.953-.953.953-11.387 0-338.583 0-345.639 0-.525 0-.953-.428-.953-.953v-26.304c0-.525.428-.953.953-.953h345.639c.525 0 .953.428.953.953z"/></g></svg>