<svg id="Capa_1" enable-background="new 0 0 511.982 511.982" height="512" viewBox="0 0 511.982 511.982" width="512" xmlns="http://www.w3.org/2000/svg"><g><g><path d="m54.626 492.967 21.034-21.034-24.685-24.685c-3.634 3.634-27.646 27.646-42.875 42.875-1.267 1.267-.368 3.432 1.424 3.432h43.68c.534.001 1.045-.211 1.422-.588z" fill="#fec165"/><path d="m83.222 352.519c6.787 19.949 3.791 41.928-8.088 59.332l-24.159 35.397 24.685 24.685 35.397-24.159c17.404-11.879 39.384-14.875 59.332-8.088 19.135 6.51 40.307 1.582 54.6-12.711 7.717-7.717 13.394-13.394 22.309-22.309l-129.057-129.056c-8.915 8.915-14.593 14.593-22.309 22.309-14.292 14.292-19.221 35.464-12.71 54.6z" fill="#5a5a5a"/><path d="m219.506 376.876c-8.915 8.915-14.592 14.592-22.309 22.309-14.292 14.292-35.464 19.221-54.6 12.711-19.949-6.787-41.928-3.791-59.332 8.088l-25.612 17.481-6.678 9.784 24.685 24.685 35.397-24.159c17.404-11.879 39.384-14.875 59.332-8.088 19.135 6.51 40.307 1.582 54.6-12.711 7.717-7.717 13.394-13.394 22.309-22.309z" fill="#444"/><path d="m369.597 25.717c-2.683 1.733-5.228 3.767-7.578 6.117l-255.466 255.465 129.056 129.056 255.465-255.465c2.35-2.35 4.383-4.895 6.117-7.578z" fill="#fec165"/><path d="m416.358 180.013-172.215 172.215c-4.713 4.713-12.354 4.713-17.068 0l-56.395-56.395c-4.713-4.713-4.713-12.354 0-17.068l172.215-172.215c4.713-4.713 12.354-4.713 17.068 0l56.395 56.395c4.713 4.713 4.713 12.355 0 17.068z" fill="#d3e1f5"/><path d="m497.191 153.312-27.791-27.792c-1.733 2.683-3.767 5.228-6.117 7.578l-255.465 255.466 27.791 27.791 255.465-255.465c2.351-2.35 4.384-4.895 6.117-7.578z" fill="#fdb441"/><path d="m479.162 172.803 11.913-11.913c17.91-17.91 17.91-46.949 0-64.859l-64.197-64.197c-17.91-17.91-46.949-17.91-64.859 0l-11.913 11.913z" fill="#5a5a5a"/><path d="m491.074 96.031-27.791-27.791c17.91 17.91 17.91 46.949 0 64.859l-11.913 11.913 27.791 27.791 11.913-11.913c17.911-17.91 17.911-46.949 0-64.859z" fill="#444"/></g><g><path d="m421.662 157.641-56.396-56.394c-7.649-7.649-20.025-7.649-27.675-.001l-172.214 172.216c-7.63 7.63-7.63 20.045 0 27.675l56.396 56.396c7.63 7.629 20.044 7.629 27.674 0l172.215-172.216c7.628-7.63 7.628-20.045 0-27.676zm-10.608 17.068-172.214 172.216c-1.783 1.784-4.676 1.786-6.461 0l-56.396-56.396c-1.781-1.781-1.781-4.679 0-6.46l172.215-172.216c1.784-1.784 4.674-1.787 6.46.001l56.396 56.394c1.781 1.781 1.781 4.68 0 6.461z"/><path d="m496.378 90.727-64.197-64.197c-20.807-20.805-54.66-20.805-75.467 0-4.325 4.325-261.229 261.23-266.085 266.086-11.437 11.438-17.736 26.646-17.736 42.822 0 13.158 3.631 18.81 5.276 27.153.801 4.064 4.748 6.712 8.808 5.909 4.064-.801 6.709-4.744 5.909-8.808-2.001-10.161-4.993-13.488-4.993-24.255 0-20.463 12.064-30.937 18.66-37.533l118.45 118.45-5.316 5.316c-8.606 8.604-20.048 13.343-32.218 13.343-14.65 0-18.533-6.398-38.648-6.398-15.045 0-29.565 4.482-41.991 12.964l-30.261 20.653-15.894-15.892 20.653-30.261c3.8-5.566 6.826-11.621 8.994-17.997 1.333-3.922-.764-8.182-4.686-9.516s-8.182.765-9.516 4.686c-1.731 5.091-4.147 9.926-7.182 14.371l-23.762 34.815-42.38 42.382c-5.978 5.981-1.735 16.235 6.728 16.235h43.68c2.542 0 4.93-.989 6.725-2.785l20.541-20.54 34.815-23.761c9.923-6.772 21.52-10.353 33.535-10.353 17.439 0 21.002 6.398 38.648 6.398 16.176 0 31.384-6.299 42.824-17.736l10.62-10.619 164.394-164.394c2.929-2.93 2.929-7.678 0-10.607-2.929-2.927-7.677-2.929-10.607 0l-159.089 159.091-118.45-118.45 232.944-232.945 118.45 118.449-49.108 49.107c-2.929 2.93-2.929 7.678 0 10.607 2.93 2.928 7.678 2.928 10.607 0l54.411-54.411c.003-.003.006-.007.009-.01l11.904-11.903c20.806-20.806 20.806-54.66.001-75.466zm-445.447 395.328h-28.157l28.201-28.201 14.078 14.078zm434.841-330.468-6.61 6.609-118.45-118.45 6.61-6.609c14.957-14.959 39.295-14.959 54.252 0l64.197 64.197c14.958 14.958 14.957 39.296.001 54.253z"/></g></g></svg>