<svg id="Capa_1" enable-background="new 0 0 512.007 512.007" height="512" viewBox="0 0 512.007 512.007" width="512" xmlns="http://www.w3.org/2000/svg"><g><g><path d="m215.511 491.653c3.978 0 7.794-1.58 10.607-4.393l269.995-269.995c11.064-11.064 11.064-29.003 0-40.067l-148.448-148.448c-11.064-11.064-29.003-11.064-40.067 0l-291.792 291.791c-11.064 11.064-11.064 29.003 0 40.067l126.652 126.652c2.813 2.813 6.628 4.393 10.607 4.393z" fill="#d3e1f5"/><path d="m274.653 382.6-76.598 76.598c-2.813 2.813-6.628 4.394-10.607 4.394h-62.446c-3.978 0-7.794-1.58-10.607-4.393l28.062 28.062c2.813 2.813 6.629 4.393 10.607 4.393h62.446c3.978 0 7.794-1.58 10.607-4.394l76.598-76.598z" fill="#c0d6f2"/><path d="m497.771 178.855-151.764-151.764c-10.148-10.148-28.087-8.664-40.067 3.316l-222.049 222.049 188.515 188.515 222.048-222.048c11.98-11.98 13.465-29.919 3.317-40.068z" fill="#0473ce"/><path d="m189.957 245.385 130.603-130.603c3.905-3.905 10.237-3.905 14.142 0l75.378 75.378c3.905 3.905 3.905 10.237 0 14.142l-130.603 130.603c-3.905 3.905-10.237 3.905-14.142 0l-75.378-75.378c-3.906-3.905-3.906-10.237 0-14.142z" fill="#0055a3"/><path d="m497.771 178.855-28.062-28.062c10.149 10.149 8.664 28.087-3.316 40.067l-222.049 222.049 28.062 28.062 222.048-222.048c11.98-11.981 13.465-29.919 3.317-40.068z" fill="#0067c5"/></g><g><path d="m503.075 173.551-151.765-151.762c-13.264-13.266-35.931-11.428-50.674 3.315-12.605 12.605-232.42 232.42-243.262 243.261-2.929 2.93-2.929 7.678 0 10.607 2.93 2.928 7.678 2.928 10.607 0l15.908-15.909 177.909 177.909-40.985 40.984c-1.416 1.417-3.3 2.197-5.303 2.197h-62.446c-2.004 0-3.887-.78-5.303-2.197l-126.651-126.652c-8.141-8.139-8.143-21.319.001-29.461l22.122-22.123c2.929-2.929 2.929-7.678-.001-10.606-2.928-2.928-7.677-2.929-10.606.001l-22.121 22.122c-14.005 14.003-14.007 36.669-.003 50.675l126.651 126.65c4.249 4.25 9.899 6.591 15.911 6.591h62.446c6.01 0 11.66-2.341 15.91-6.59 3.39-3.39 211.584-211.585 214.749-214.749 2.929-2.93 2.929-7.678 0-10.607-2.93-2.928-7.678-2.928-10.607 0l-163.156 163.157-177.908-177.908 216.746-216.745c8.842-8.842 22.152-10.624 29.459-3.315l151.765 151.764c7.309 7.309 5.521 20.623-3.316 29.46l-28.84 28.84c-2.929 2.93-2.929 7.678 0 10.607 2.93 2.928 7.678 2.928 10.607 0l28.84-28.841c14.656-14.66 16.65-37.338 3.316-50.675z"/><path d="m315.256 109.478-130.603 130.603c-6.823 6.824-6.823 17.926 0 24.75l75.379 75.378c6.841 6.839 17.908 6.839 24.749 0l130.604-130.603c6.823-6.824 6.823-17.926 0-24.75l-75.379-75.378c-6.824-6.821-17.927-6.824-24.75 0zm89.521 89.521-130.604 130.602c-.976.976-2.561.974-3.534 0l-75.379-75.378c-.976-.975-.976-2.561 0-3.535l130.604-130.603c.974-.975 2.559-.976 3.534 0l75.379 75.378c.975.975.975 2.561 0 3.536z"/></g></g></svg>