<svg id="Capa_1" enable-background="new 0 0 512 512" height="512" viewBox="0 0 512 512" width="512" xmlns="http://www.w3.org/2000/svg"><g><g><path d="m366.306 504.5h-312.804v-453.669h324.804v441.669c0 6.627-5.373 12-12 12z" fill="#82aee3"/><path d="m405.145 461.169h-351.643v-410.338h351.643c6.627 0 12 5.373 12 12v386.338c0 6.628-5.372 12-12 12z" fill="#d3e1f5"/><path d="m53.502 7.5c-23.931 0-43.331 19.4-43.331 43.331v410.338c0-23.931 19.4-43.331 43.331-43.331s43.331 19.4 43.331 43.331v-410.338c0-23.931-19.4-43.331-43.331-43.331z" fill="#b2caec"/><path d="m451.828 252.502h50v176.467h-50z" fill="#5a5a5a"/><path d="m501.829 428.969h-50l21.855 40.103c1.357 2.491 4.933 2.491 6.29 0z" fill="#cecece"/><path d="m495.397 103.229h-37.137v-24.485c0-6.585 5.338-11.923 11.923-11.923h13.29c6.585 0 11.923 5.338 11.923 11.923v24.485z" fill="#5a5a5a"/><path d="m497.46 103.229h-41.262c-2.413 0-4.369 1.956-4.369 4.369v23.301h50v-23.301c0-2.413-1.956-4.369-4.369-4.369z" fill="#9c9c9c"/><path d="m451.828 130.899h50v121.603h-50z" fill="#0473ce"/><path d="m405.145 50.831h-39.685c6.627 0 12 5.373 12 12v386.338c0 6.627-5.373 12-12 12h39.685c6.627 0 12-5.373 12-12v-386.338c0-6.628-5.372-12-12-12z" fill="#c0d6f2"/><circle cx="53.502" cy="461.169" fill="#82aee3" r="43.331"/><path d="m476.317 252.501h25.512v176.467h-25.512z" fill="#444"/><path d="m476.317 428.969-12.244 22.468 9.611 17.635c1.357 2.49 4.933 2.49 6.291 0l21.855-40.103z" fill="#bfbfbf"/><path d="m497.46 103.229h-25.512c2.413 0 4.369 1.956 4.369 4.369v23.301h25.512v-23.301c0-2.413-1.956-4.369-4.369-4.369z" fill="#838383"/><path d="m476.317 130.899h25.512v121.603h-25.512z" fill="#0067c5"/></g><g><path d="m502.896 97.059v-18.315c0-10.71-8.713-19.424-19.423-19.424h-13.29c-10.71 0-19.423 8.714-19.423 19.424v18.315c-3.815 1.976-6.433 5.954-6.433 10.539v23.301 121.604 176.467c0 1.264.359 2.575.919 3.599l21.85 40.092c1.942 3.564 5.672 5.779 9.731 5.779s7.788-2.215 9.73-5.779l21.85-40.092c.585-1.068.919-2.364.919-3.599v-176.468s0 0 0 0v-47.603c0-4.143-3.357-7.5-7.5-7.5s-7.5 3.357-7.5 7.5v40.103l-35.001.001v-106.605h35.001v31.5c0 4.143 3.357 7.5 7.5 7.5s7.5-3.357 7.5-7.5v-39-23.301c.003-4.584-2.615-8.562-6.43-10.538zm-26.067 362.11-12.372-22.7h24.743zm17.5-199.167v161.467h-35.001v-161.467zm-28.568-181.258c0-2.439 1.984-4.424 4.423-4.424h13.29c2.438 0 4.423 1.984 4.423 4.424v16.984h-22.136zm28.568 44.654h-35.001v-12.67h35.001z"/><path d="m184.438 113.932h149.565c4.143 0 7.5-3.357 7.5-7.5s-3.357-7.5-7.5-7.5h-149.565c-4.143 0-7.5 3.357-7.5 7.5s3.358 7.5 7.5 7.5z"/><path d="m366.722 158.616h-215c-4.143 0-7.5 3.357-7.5 7.5s3.357 7.5 7.5 7.5h215c4.143 0 7.5-3.357 7.5-7.5s-3.358-7.5-7.5-7.5z"/><path d="m366.722 214.241h-215c-4.143 0-7.5 3.357-7.5 7.5s3.357 7.5 7.5 7.5h215c4.143 0 7.5-3.357 7.5-7.5s-3.358-7.5-7.5-7.5z"/><path d="m366.722 273.138h-215c-4.143 0-7.5 3.357-7.5 7.5s3.357 7.5 7.5 7.5h215c4.143 0 7.5-3.357 7.5-7.5s-3.358-7.5-7.5-7.5z"/><path d="m366.722 332.035h-215c-4.143 0-7.5 3.357-7.5 7.5s3.357 7.5 7.5 7.5h215c4.143 0 7.5-3.357 7.5-7.5s-3.358-7.5-7.5-7.5z"/><path d="m366.722 390.932h-215c-4.143 0-7.5 3.357-7.5 7.5s3.357 7.5 7.5 7.5h215c4.143 0 7.5-3.357 7.5-7.5s-3.358-7.5-7.5-7.5z"/><path d="m405.146 43.331h-301.37c-3.637-24.484-24.794-43.331-50.274-43.331-28.028 0-50.831 22.803-50.831 50.831v262.908c0 4.143 3.357 7.5 7.5 7.5s7.5-3.357 7.5-7.5v-262.908c0-19.757 16.074-35.831 35.831-35.831s35.831 16.074 35.831 35.831v374.317c-.119-.118-.245-.229-.365-.346-9.207-8.982-21.826-14.464-35.466-14.464-13.823 0-26.556 5.581-35.831 14.811v-76.409c0-4.143-3.357-7.5-7.5-7.5s-7.5 3.357-7.5 7.5v112.43c0 28.027 22.803 50.83 50.831 50.83h312.805c10.752 0 19.5-8.748 19.5-19.5v-23.831h19.339c10.752 0 19.5-8.748 19.5-19.5v-386.338c0-10.752-8.749-19.5-19.5-19.5zm-34.339 449.169c0 2.481-2.019 4.5-4.5 4.5h-312.805c-19.757 0-35.831-16.074-35.831-35.831s16.075-35.83 35.831-35.83c19.757 0 35.831 16.073 35.831 35.83 0 4.143 3.357 7.5 7.5 7.5h273.974zm38.839-43.331c0 2.481-2.019 4.5-4.5 4.5-11.391 0-286.56 0-300.813 0v-395.338h300.813c2.481 0 4.5 2.019 4.5 4.5z"/></g></g></svg>