<svg id="Capa_1" enable-background="new 0 0 511.997 511.997" height="512" viewBox="0 0 511.997 511.997" width="512" xmlns="http://www.w3.org/2000/svg"><g><g><path d="m202.039 138.353 17.938 31.069-73.177 42.249c-4.655 2.688-7.523 7.654-7.523 13.03v243.147h-40.9v-242.041c0-17.081 9.112-32.864 23.905-41.405z" fill="#838383"/><path d="m184.161 504.498h-130.668c-10.121 0-18.325-8.205-18.325-18.325 0-10.121 8.205-18.325 18.325-18.325h130.668c10.121 0 18.325 8.205 18.325 18.325 0 10.121-8.204 18.325-18.325 18.325z" fill="#5a5a5a"/><path d="m202.039 138.353 17.938 31.069-73.177 42.249c-4.655 2.688-7.523 7.654-7.523 13.03v243.147h-40.9v-242.041c0-17.081 9.112-32.864 23.905-41.405z" fill="#838383"/><path d="m184.161 467.848h-36.962c10.121 0 18.325 8.204 18.325 18.325 0 10.121-8.205 18.325-18.325 18.325h36.962c10.121 0 18.325-8.204 18.325-18.325 0-10.121-8.204-18.325-18.325-18.325z" fill="#444"/><path d="m431.735 46.517-239.203 138.104-14.474-25.07c-7.701-13.338-3.131-30.393 10.207-38.094l190.903-110.217c13.338-7.701 30.393-3.131 38.094 10.207z" fill="#5a5a5a"/><path d="m431.735 46.517-239.203 138.104 3.585 6.21c7.701 13.338 24.756 17.908 38.094 10.207l190.903-110.217c13.338-7.701 17.908-24.756 10.207-38.094z" fill="#fee8c7"/><path d="m379.168 11.24-34.472 19.902c13.338-7.701 30.392-3.131 38.093 10.207l14.474 25.07-204.731 118.202 239.204-138.104-14.474-25.07c-7.702-13.338-24.757-17.908-38.094-10.207z" fill="#444"/></g><g><path d="m364.334 191.408c-2.072-3.588-6.659-4.814-10.245-2.745-3.587 2.071-4.816 6.658-2.745 10.245l22.128 38.328c1.389 2.406 3.91 3.751 6.502 3.751 1.272 0 2.562-.324 3.743-1.006 3.587-2.071 4.816-6.658 2.745-10.245z"/><path d="m480.578 151.226-38.328-22.128c-3.588-2.071-8.175-.843-10.245 2.745-2.071 3.587-.842 8.174 2.745 10.245l38.328 22.128c1.181.682 2.471 1.006 3.743 1.006 2.592 0 5.113-1.345 6.502-3.751 2.072-3.586.842-8.173-2.745-10.245z"/><path d="m265.923 227.73c-4.142 0-7.5 3.357-7.5 7.5v44.257c0 4.143 3.358 7.5 7.5 7.5s7.5-3.357 7.5-7.5v-44.257c0-4.142-3.358-7.5-7.5-7.5z"/><path d="m441.814 48.975c-4.684-8.113-7.88-13.649-18.06-31.28-9.694-16.792-31.317-22.78-48.339-12.952l-27.198 15.703c-3.587 2.071-4.816 6.658-2.745 10.245 2.071 3.588 6.658 4.814 10.245 2.745l27.198-15.703c9.841-5.68 22.281-2.182 27.849 7.462l10.724 18.575c-9.923 5.729-216.289 124.875-226.212 130.604-10.669-18.48-11.491-19.409-12.518-22.679-2.918-9.291 1.189-19.087 9.255-23.744l133.394-77.015c3.587-2.071 4.816-6.658 2.745-10.245-2.071-3.588-6.659-4.814-10.245-2.745l-133.394 77.015c-10.917 6.303-17.698 18.055-17.698 30.672 0 1.42.097 2.836.268 4.241l-48.552 28.033c-17.058 9.849-27.655 28.203-27.655 47.9v234.54h-37.384c-14.24 0-25.825 11.585-25.825 25.825s11.585 25.825 25.825 25.825h130.668c14.24 0 25.826-11.585 25.826-25.825s-11.585-25.825-25.826-25.825h-37.384v-87.649c0-4.143-3.358-7.5-7.5-7.5s-7.5 3.357-7.5 7.5v87.649h-25.9v-234.54c0-14.355 7.723-27.732 20.155-34.91l46.097-26.615 10.438 18.079-39.516 22.815c-6.954 4.014-11.273 11.495-11.273 19.524v112.997c0 4.143 3.358 7.5 7.5 7.5s7.5-3.357 7.5-7.5v-112.997c0-2.687 1.446-5.19 3.773-6.534l39.542-22.831c9.994 16.355 31.263 21.784 47.867 12.197l190.903-110.218c16.937-9.778 22.732-31.4 12.952-48.339zm-257.654 426.372c5.969 0 10.826 4.856 10.826 10.825s-4.856 10.825-10.826 10.825h-130.668c-5.969 0-10.825-4.856-10.825-10.825s4.856-10.825 10.825-10.825zm237.202-391.023-190.903 110.218c-9.641 5.563-21.984 2.338-27.681-7.178 9.917-5.726 216.266-124.862 226.208-130.602 5.399 9.701 2.051 21.976-7.624 27.562z"/></g></g></svg>