<svg id="Capa_1" enable-background="new 0 0 512 512" height="512" viewBox="0 0 512 512" width="512" xmlns="http://www.w3.org/2000/svg"><g><g><path d="m412.803 504.5h-313.606c-4.418 0-8-3.582-8-8v-239.536h329.606v239.536c0 4.418-3.582 8-8 8z" fill="#ffefd2"/><path d="m191.468 362.531c0-10.052 8.149-18.201 18.201-18.201h92.66c10.052 0 18.201 8.149 18.201 18.201 0 10.052-8.149 18.201-18.201 18.201h-92.66c-10.052 0-18.201-8.149-18.201-18.201z" fill="#838383"/><path d="m386.141 234.13h-260.283c-4.418 0-8-3.582-8-8v-199.49h276.283v199.49c0 4.418-3.582 8-8 8z" fill="#ffefd2"/><path d="m201.908 115.128c0-8.426 6.831-15.257 15.257-15.257h77.67c8.426 0 15.257 6.831 15.257 15.257 0 8.426-6.831 15.257-15.257 15.257h-77.67c-8.426 0-15.257-6.831-15.257-15.257z" fill="#838383"/><path d="m381.118 256.964v239.536c0 4.418-3.582 8-8 8h39.685c4.418 0 8-3.582 8-8v-239.536z" fill="#fee8c7"/><path d="m354.456 26.64v199.49c0 4.418-3.582 8-8 8h39.685c4.418 0 8-3.582 8-8v-199.49z" fill="#fee8c7"/><path d="m68.362 288.331v-44.201c0-5.523 4.477-10 10-10h355.275c5.523 0 10 4.477 10 10v44.201c0 5.523-4.477 10-10 10h-355.275c-5.523 0-10-4.478-10-10z" fill="#ac5e2e"/><path d="m433.637 234.13h-39.685c5.523 0 10 4.477 10 10v44.201c0 5.523-4.477 10-10 10h39.685c5.523 0 10-4.477 10-10v-44.201c0-5.523-4.477-10-10-10z" fill="#9e5528"/><path d="m98.718 51.314v-33.814c0-5.523 4.477-10 10-10h294.563c5.523 0 10 4.477 10 10v33.814c0 5.523-4.477 10-10 10h-294.563c-5.523 0-10-4.477-10-10z" fill="#ac5e2e"/><path d="m403.281 7.5h-39.685c5.523 0 10 4.477 10 10v33.814c0 5.523-4.477 10-10 10h39.685c5.523 0 10-4.477 10-10v-33.814c0-5.523-4.477-10-10-10z" fill="#9e5528"/></g><g><path d="m433.637 226.63h-32.021c.005-.167.025-.331.025-.5v-157.316h1.64c9.649 0 17.5-7.851 17.5-17.5v-33.814c0-9.649-7.851-17.5-17.5-17.5h-294.562c-9.649 0-17.5 7.851-17.5 17.5v33.814c0 9.649 7.851 17.5 17.5 17.5h1.64v57.557c0 4.143 3.358 7.5 7.5 7.5s7.5-3.357 7.5-7.5v-57.557h261.283v157.316c0 .275-.225.5-.5.5h-260.284c-.276 0-.5-.225-.5-.5v-64.759c0-4.143-3.358-7.5-7.5-7.5s-7.5 3.357-7.5 7.5v64.759c0 .169.02.333.025.5h-32.02c-9.649 0-17.5 7.851-17.5 17.5v44.2c0 9.649 7.851 17.5 17.5 17.5h5.334v190.67c0 8.547 6.953 15.5 15.5 15.5h218.258c4.143 0 7.5-3.357 7.5-7.5s-3.357-7.5-7.5-7.5h-218.258c-.276 0-.5-.225-.5-.5v-190.67h314.606v190.67c0 .275-.225.5-.5.5h-60.348c-4.143 0-7.5 3.357-7.5 7.5s3.357 7.5 7.5 7.5h60.348c8.547 0 15.5-6.953 15.5-15.5v-190.67h5.335c9.649 0 17.5-7.851 17.5-17.5v-44.2c-.001-9.65-7.851-17.5-17.501-17.5zm-324.918-172.816c-1.378 0-2.5-1.121-2.5-2.5v-33.814c0-1.379 1.122-2.5 2.5-2.5h294.563c1.379 0 2.5 1.121 2.5 2.5v33.814c0 1.379-1.121 2.5-2.5 2.5-1.522 0-287.721 0-294.563 0zm327.418 234.516c0 1.379-1.121 2.5-2.5 2.5-17.192 0-346.497 0-355.275 0-1.378 0-2.5-1.121-2.5-2.5v-44.2c0-1.379 1.122-2.5 2.5-2.5h355.275c1.379 0 2.5 1.121 2.5 2.5z"/><path d="m209.67 336.829c-14.172 0-25.701 11.53-25.701 25.702s11.529 25.701 25.701 25.701h92.66c14.172 0 25.701-11.529 25.701-25.701s-11.529-25.702-25.701-25.702zm103.361 25.702c0 5.9-4.801 10.701-10.701 10.701h-92.66c-5.901 0-10.701-4.801-10.701-10.701 0-5.901 4.8-10.702 10.701-10.702h92.66c5.9 0 10.701 4.801 10.701 10.702z"/><path d="m294.835 137.885c12.548 0 22.757-10.209 22.757-22.757s-10.209-22.756-22.757-22.756h-77.67c-12.548 0-22.756 10.208-22.756 22.756s10.208 22.757 22.756 22.757zm-85.427-22.757c0-4.276 3.479-7.756 7.756-7.756h77.67c4.277 0 7.757 3.479 7.757 7.756s-3.479 7.757-7.757 7.757h-77.67c-4.276 0-7.756-3.48-7.756-7.757z"/></g></g></svg>