<svg id="Capa_1" enable-background="new 0 0 512 512" height="512" viewBox="0 0 512 512" width="512" xmlns="http://www.w3.org/2000/svg"><g><g><path d="m420.009 504.5h-328.018c-14.065 0-25.467-11.402-25.467-25.467v-400.225c0-14.065 11.402-25.467 25.467-25.467h328.019c14.065 0 25.467 11.402 25.467 25.467v400.224c0 14.066-11.402 25.468-25.468 25.468z" fill="#09a76d"/><path d="m374.738 264.474h-237.476c-6.189 0-11.206-5.017-11.206-11.206v-106.444c0-6.189 5.017-11.206 11.206-11.206h237.475c6.189 0 11.206 5.017 11.206 11.206v106.445c0 6.188-5.017 11.205-11.205 11.205z" fill="#98d5b9"/><path d="m420.009 53.341h-39.685c14.065 0 25.467 11.402 25.467 25.467v400.224c0 14.065-11.402 25.467-25.467 25.467h39.685c14.065 0 25.467-11.402 25.467-25.467v-400.223c.001-14.066-11.401-25.468-25.467-25.468z" fill="#02905d"/><g fill="#5a5a5a"><path d="m212.686 99.182c-10.127 0-18.336-8.21-18.336-18.336v-55.01c0-10.127 8.209-18.336 18.336-18.336 10.127 0 18.336 8.21 18.336 18.336v55.009c0 10.128-8.209 18.337-18.336 18.337z"/><path d="m126.057 99.182c-10.127 0-18.336-8.21-18.336-18.336v-55.01c0-10.127 8.21-18.336 18.336-18.336 10.127 0 18.336 8.21 18.336 18.336v55.009c0 10.128-8.209 18.337-18.336 18.337z"/><path d="m299.314 99.182c-10.127 0-18.336-8.21-18.336-18.336v-55.01c0-10.127 8.21-18.336 18.336-18.336 10.127 0 18.336 8.21 18.336 18.336v55.009c.001 10.128-8.209 18.337-18.336 18.337z"/><path d="m385.943 99.182c-10.127 0-18.336-8.21-18.336-18.336v-55.01c0-10.127 8.21-18.336 18.336-18.336 10.127 0 18.336 8.21 18.336 18.336v55.009c.001 10.128-8.209 18.337-18.336 18.337z"/><path d="m212.686 99.182c-10.127 0-18.336-8.21-18.336-18.336v-55.01c0-10.127 8.209-18.336 18.336-18.336 10.127 0 18.336 8.21 18.336 18.336v55.009c0 10.128-8.209 18.337-18.336 18.337z"/><path d="m126.057 99.182c-10.127 0-18.336-8.21-18.336-18.336v-55.01c0-10.127 8.21-18.336 18.336-18.336 10.127 0 18.336 8.21 18.336 18.336v55.009c0 10.128-8.209 18.337-18.336 18.337z"/><path d="m299.314 99.182c-10.127 0-18.336-8.21-18.336-18.336v-55.01c0-10.127 8.21-18.336 18.336-18.336 10.127 0 18.336 8.21 18.336 18.336v55.009c.001 10.128-8.209 18.337-18.336 18.337z"/><path d="m385.943 99.182c-10.127 0-18.336-8.21-18.336-18.336v-55.01c0-10.127 8.21-18.336 18.336-18.336 10.127 0 18.336 8.21 18.336 18.336v55.009c.001 10.128-8.209 18.337-18.336 18.337z"/></g><path d="m212.686 7.5c-3.071 0-5.961.765-8.504 2.099 5.842 3.066 9.833 9.182 9.833 16.237v55.009c0 7.056-3.99 13.171-9.833 16.237 2.543 1.334 5.433 2.099 8.504 2.099 10.127 0 18.336-8.209 18.336-18.336v-55.009c0-10.127-8.209-18.336-18.336-18.336z" fill="#444"/><path d="m126.057 7.5c-3.071 0-5.961.765-8.504 2.099 5.842 3.066 9.833 9.182 9.833 16.237v55.009c0 7.056-3.99 13.171-9.833 16.237 2.543 1.334 5.433 2.099 8.504 2.099 10.127 0 18.336-8.209 18.336-18.336v-55.009c0-10.127-8.209-18.336-18.336-18.336z" fill="#444"/><path d="m299.314 7.5c-3.071 0-5.961.765-8.504 2.099 5.842 3.066 9.833 9.182 9.833 16.237v55.009c0 7.056-3.99 13.171-9.833 16.237 2.543 1.334 5.433 2.099 8.504 2.099 10.127 0 18.336-8.209 18.336-18.336v-55.009c.001-10.127-8.209-18.336-18.336-18.336z" fill="#444"/><path d="m385.943 7.5c-3.071 0-5.961.765-8.504 2.099 5.842 3.066 9.833 9.182 9.833 16.237v55.009c0 7.056-3.99 13.171-9.833 16.237 2.543 1.334 5.433 2.099 8.504 2.099 10.127 0 18.336-8.209 18.336-18.336v-55.009c.001-10.127-8.209-18.336-18.336-18.336z" fill="#444"/></g><g><path d="m368.056 374.297h-224.112c-4.143 0-7.5 3.357-7.5 7.5s3.357 7.5 7.5 7.5h224.111c4.143 0 7.5-3.357 7.5-7.5s-3.357-7.5-7.499-7.5z"/><path d="m374.737 128.118h-237.474c-10.314 0-18.706 8.391-18.706 18.705v18.779c0 4.143 3.357 7.5 7.5 7.5s7.5-3.357 7.5-7.5v-18.779c0-2.043 1.662-3.705 3.706-3.705h237.475c2.044 0 3.706 1.662 3.706 3.705v106.445c0 2.043-1.662 3.705-3.706 3.705h-237.475c-2.044 0-3.706-1.662-3.706-3.705v-52.666c0-4.143-3.357-7.5-7.5-7.5s-7.5 3.357-7.5 7.5v52.666c0 10.314 8.392 18.705 18.706 18.705h237.475c10.314 0 18.706-8.391 18.706-18.705v-106.445c-.001-10.314-8.392-18.705-18.707-18.705z"/><path d="m368.056 426.273h-224.112c-4.143 0-7.5 3.357-7.5 7.5s3.357 7.5 7.5 7.5h224.111c4.143 0 7.5-3.357 7.5-7.5s-3.357-7.5-7.499-7.5z"/><path d="m420.01 45.842h-8.229v-20.005c-.001-14.246-11.592-25.837-25.838-25.837s-25.837 11.591-25.837 25.837v20.005h-34.955v-20.005c0-14.246-11.59-25.837-25.837-25.837s-25.837 11.591-25.837 25.837v20.005h-34.955v-20.005c0-14.246-11.59-25.837-25.836-25.837s-25.837 11.591-25.837 25.837v20.005h-34.955v-20.005c0-14.246-11.591-25.837-25.837-25.837s-25.837 11.591-25.837 25.837v20.005h-8.23c-18.178 0-32.967 14.789-32.967 32.967v400.225c0 18.177 14.79 32.966 32.967 32.966h281.863c4.143 0 7.5-3.357 7.5-7.5s-3.357-7.5-7.5-7.5h-281.863c-9.907 0-17.967-8.06-17.967-17.967v-400.224c0-9.907 8.06-17.967 17.967-17.967h8.229v20.004c0 14.753 12.45 26.704 27.443 25.782 13.587-.847 24.231-12.143 24.231-25.782v-20.004h34.955v20.004c0 14.246 11.591 25.837 25.837 25.837s25.837-11.591 25.837-25.837v-20.004h34.955v20.004c0 14.246 11.591 25.837 25.837 25.837s25.837-11.591 25.837-25.837v-20.004h34.955v20.004c0 14.246 11.591 25.837 25.837 25.837s25.837-11.591 25.837-25.837v-20.004h8.229c9.907 0 17.967 8.06 17.967 17.967v400.225c0 9.907-8.06 17.967-17.967 17.967h-11.156c-4.143 0-7.5 3.357-7.5 7.5s3.357 7.5 7.5 7.5h11.156c18.178 0 32.967-14.789 32.967-32.967v-400.225c.001-18.178-14.788-32.967-32.966-32.967zm-283.116 35.004c0 5.514-4.156 10.091-9.512 10.747-6.562.804-12.161-4.342-12.161-10.747 0-6.843-.001-48.19-.001-55.009 0-5.976 4.861-10.837 10.837-10.837s10.837 4.861 10.837 10.837zm86.628-27.523c0 .006-.001.013-.001.019v27.504c0 5.975-4.861 10.836-10.836 10.836s-10.835-4.862-10.835-10.836v-27.504c0-.007-.001-.013-.001-.019v-27.486c0-5.976 4.861-10.837 10.837-10.837s10.837 4.861 10.837 10.837v27.486zm86.629 0c0 .006-.001.013-.001.019v27.504c0 5.975-4.861 10.836-10.836 10.836s-10.836-4.861-10.836-10.836v-27.504c0-.007-.001-.013-.001-.019v-27.486c0-5.976 4.861-10.837 10.837-10.837s10.837 4.861 10.837 10.837zm86.629 0c0 .006-.001.013-.001.019v27.504c0 5.975-4.861 10.836-10.836 10.836s-10.836-4.861-10.836-10.836v-27.504c0-.007-.001-.013-.001-.019v-27.486c0-5.976 4.861-10.837 10.837-10.837s10.837 4.861 10.837 10.837z"/></g></g></svg>