<svg id="Capa_1" enable-background="new 0 0 512 512" height="512" viewBox="0 0 512 512" width="512" xmlns="http://www.w3.org/2000/svg"><g><g><path d="m161.764 125.011h188.473v48h-188.473z" fill="#82aee3"/><path d="m310.551 125.011h39.685v47.999h-39.685z" fill="#528fd8"/><path d="m161.764 47.844h188.473v47h-188.473z" fill="#82aee3"/><path d="m310.551 47.844h39.685v47h-39.685z" fill="#528fd8"/><path d="m366.239 504.5h-220.478c-6.627 0-12-5.373-12-12v-21.666h244.477v21.666c.001 6.627-5.372 12-11.999 12z" fill="#5a5a5a"/><path d="m349.098 240.852h-186.196c-16.094 0-29.14 13.047-29.14 29.14v200.842h244.477v-200.842c0-16.093-13.047-29.14-29.141-29.14z" fill="#d3e1f5"/><g fill="#0473ce"><path d="m352.678 57.229h-193.356c-3.314 0-6-2.686-6-6v-37.729c0-3.314 2.686-6 6-6h193.355c3.314 0 6 2.686 6 6v37.729c.001 3.314-2.686 6-5.999 6z"/><path d="m352.678 135.188h-193.356c-3.314 0-6-2.686-6-6v-37.729c0-3.314 2.686-6 6-6h193.355c3.314 0 6 2.686 6 6v37.729c.001 3.314-2.686 6-5.999 6z"/><path d="m209.228 240.852c2.237 0 95.112 0 93.544 0h.001l44.732-32.364c7.018-5.077 11.173-13.213 11.173-21.875v-17.195c0-3.314-2.686-6-6-6h-193.356c-3.314 0-6 2.686-6 6v17.195c0 8.662 4.156 16.798 11.173 21.875z"/></g><path d="m313.754 291.809h-115.508c-8.338 0-15.097 6.759-15.097 15.097v163.929h145.702v-163.93c0-8.337-6.759-15.096-15.097-15.096z" fill="#82aee3"/><path d="m352.677 7.5h-39.685c3.313 0 6 2.687 6 6v37.729c0 3.313-2.687 6-6 6h39.685c3.314 0 6-2.687 6-6v-37.729c0-3.313-2.686-6-6-6z" fill="#0067c5"/><path d="m352.677 85.459h-39.685c3.313 0 6 2.686 6 6v37.729c0 3.313-2.687 6-6 6h39.685c3.314 0 6-2.687 6-6v-37.729c0-3.314-2.686-6-6-6z" fill="#0067c5"/><path d="m352.678 163.418h-39.685c3.314 0 6 2.686 6 6v17.195c0 8.662-4.156 16.798-11.173 21.875l-44.732 32.363h.005 39.68l44.732-32.363c7.018-5.077 11.174-13.213 11.174-21.875v-17.195c-.001-3.314-2.688-6-6.001-6z" fill="#0067c5"/><path d="m277.085 370.503h13.198c3.866 0 7-3.134 7-7v-27.647c0-7.51-6.088-13.599-13.599-13.599-7.51 0-13.599 6.088-13.599 13.599v27.647c0 3.866 3.134 7 7 7z" fill="#d83131"/><path d="m221.718 370.503h13.198c3.866 0 7-3.134 7-7v-27.647c0-7.51-6.088-13.599-13.599-13.599-7.51 0-13.599 6.088-13.599 13.599v27.647c0 3.866 3.134 7 7 7z" fill="#0055a3"/></g><g><path d="m378.468 309.638c4.105-.123 7.27-3.704 7.27-7.811v-31.836c0-20.236-16.404-36.64-36.64-36.64h-23.165l25.967-18.788c8.967-6.488 14.277-16.883 14.277-27.951v-17.195c0-5.655-3.498-10.501-8.441-12.508v-15.214c4.943-2.006 8.441-6.853 8.441-12.508v-37.728c0-5.655-3.498-10.501-8.441-12.508v-15.214c4.943-2.006 8.441-6.853 8.441-12.508v-37.729c0-7.456-6.044-13.5-13.5-13.5h-193.355c-7.456 0-13.5 6.044-13.5 13.5v37.729c0 5.655 3.498 10.501 8.441 12.508v15.214c-4.943 2.006-8.441 6.853-8.441 12.508v37.729c0 5.655 3.498 10.501 8.441 12.508v15.214c-4.943 2.006-8.441 6.853-8.441 12.508 0 18.749-.107 18.964.36 22.171.598 4.1 4.419 6.93 8.503 6.341 4.093-.597 6.93-4.395 6.343-8.487-.134-.937-.206-1.883-.206-2.829v-15.695h190.355v15.695c0 6.256-3.001 12.131-8.069 15.798l-42.765 30.94h-88.688l-25.828-18.687c-3.356-2.428-8.044-1.676-10.472 1.68-2.428 3.356-1.676 8.045 1.68 10.473l9.032 6.534h-23.166c-20.236 0-36.64 16.404-36.64 36.64v200.843 26.865c0 7.898 6.402 14.3 14.3 14.3h230.878c7.897 0 14.299-6.402 14.299-14.299v-26.867-133.378c0-4.107-3.165-7.688-7.27-7.811-4.247-.127-7.73 3.278-7.73 7.497v126.192h-34.387v-156.429c0-12.48-10.117-22.597-22.597-22.597h-115.51c-12.48 0-22.597 10.117-22.597 22.597v156.429h-34.387v-193.343c0-11.951 9.688-21.64 21.64-21.64h186.197c11.951 0 21.64 9.688 21.64 21.64v32.15c.001 4.22 3.484 7.624 7.731 7.497zm-217.646-294.638h190.355v34.729h-.941c-36.894 0-150.522 0-188.473 0h-.941zm181.914 49.729v13.229h-173.472v-13.229zm0 91.189h-173.472v-13.229h173.473v13.229zm7.5-28.23h-188.472-.941v-34.729h.941 188.473.941v34.729zm-159.588 179.218c0-4.196 3.402-7.598 7.598-7.598h115.508c4.196 0 7.598 3.402 7.598 7.598v156.428h-130.704zm180.09 171.428v18.666h-229.476v-18.666z"/><path d="m227.502 314.772c-11.417.432-20.284 10.176-20.284 21.601v27.129c0 7.691 6.024 13.985 13.599 14.454v9.561c0 4.107 3.165 7.688 7.27 7.811 4.247.127 7.73-3.278 7.73-7.497v-9.875c7.575-.469 13.599-6.763 13.599-14.454v-27.647c-.001-11.904-9.911-21.537-21.914-21.083zm6.913 48.231h-12.197v-26.935c0-3.1 2.223-5.865 5.297-6.259 3.719-.477 6.9 2.421 6.9 6.047z"/><path d="m282.869 314.772c-11.417.432-20.284 10.176-20.284 21.601v27.129c0 7.691 6.024 13.985 13.599 14.454v9.561c0 4.107 3.165 7.688 7.27 7.811 4.247.127 7.73-3.278 7.73-7.497v-9.875c7.575-.469 13.599-6.763 13.599-14.454v-27.647c-.001-11.904-9.91-21.537-21.914-21.083zm6.913 48.231h-12.197v-26.935c0-3.1 2.223-5.865 5.297-6.259 3.719-.477 6.9 2.421 6.9 6.047z"/></g></g></svg>