<svg id="Capa_1" enable-background="new 0 0 512 512" height="512" viewBox="0 0 512 512" width="512" xmlns="http://www.w3.org/2000/svg"><g><g><path d="m479.5 142.443h-447c-13.807 0-25 11.193-25 25v168.966h497v-168.966c0-13.807-11.193-25-25-25z" fill="#9c9c9c"/><path d="m117.679 400.066h-58.996c-4.418 0-8-3.582-8-8v-66.996h74.996v66.996c0 4.419-3.581 8-8 8z" fill="#444"/><path d="m453.317 400.066h-58.996c-4.418 0-8-3.582-8-8v-66.996h74.996v66.996c0 4.419-3.582 8-8 8z" fill="#444"/><path d="m115 210.755h-107.5v-32h107.5c8.837 0 16 7.163 16 16 0 8.836-7.163 16-16 16z" fill="#bfbfbf"/><path d="m115 273.117h-107.5v-32h107.5c8.837 0 16 7.163 16 16 0 8.836-7.163 16-16 16z" fill="#bfbfbf"/><path d="m504.5 341.414v-31.985h-497v31.985c0 13.807 11.193 25 25 25h447c13.807 0 25-11.193 25-25z" fill="#838383"/><circle cx="354.245" cy="210.681" fill="#bfbfbf" r="98.748"/><circle cx="354.245" cy="210.681" fill="#5a5a5a" r="69.948"/><path d="m354.245 240.629c-16.513 0-29.948-13.435-29.948-29.948s13.435-29.947 29.948-29.947 29.948 13.435 29.948 29.947c0 16.513-13.435 29.948-29.948 29.948z" fill="#444"/><path d="m479.5 142.443h-39.685c13.807 0 25 11.193 25 25v168.966h39.685v-168.966c0-13.807-11.193-25-25-25z" fill="#838383"/><path d="m464.815 309.429v31.985c0 13.807-11.193 25-25 25h39.685c13.807 0 25-11.193 25-25v-31.985z" fill="#5a5a5a"/></g><g><path d="m354.245 288.129c42.705 0 77.448-34.743 77.448-77.448 0-42.704-34.743-77.447-77.448-77.447s-77.448 34.743-77.448 77.447c0 42.705 34.744 77.448 77.448 77.448zm0-139.896c34.434 0 62.448 28.014 62.448 62.447 0 34.435-28.014 62.448-62.448 62.448s-62.448-28.014-62.448-62.448c0-34.433 28.015-62.447 62.448-62.447z"/><path d="m354.245 248.129c20.649 0 37.448-16.799 37.448-37.448 0-20.648-16.799-37.447-37.448-37.447s-37.448 16.799-37.448 37.447c0 20.649 16.799 37.448 37.448 37.448zm0-59.896c12.378 0 22.448 10.069 22.448 22.447s-10.07 22.448-22.448 22.448-22.448-10.07-22.448-22.448 10.07-22.447 22.448-22.447z"/><path d="m479.5 134.943h-50.822c-19.184-18.857-45.472-30.51-74.433-30.51s-55.249 11.653-74.433 30.51h-201.588c-4.142 0-7.5 3.357-7.5 7.5s3.358 7.5 7.5 7.5h188.828c-12.41 17.761-19.054 38.968-19.054 60.737v.001s0 0 0 0v.003c.002 36.918 19.219 71.678 51.865 91.244h-284.863v-21.312h100c12.958 0 23.5-10.542 23.5-23.5s-10.542-23.5-23.5-23.5h-100v-15.362h100c12.958 0 23.5-10.542 23.5-23.5s-10.542-23.5-23.5-23.5h-100v-3.812c0-9.649 7.851-17.5 17.5-17.5h10.724c4.142 0 7.5-3.357 7.5-7.5s-3.358-7.5-7.5-7.5h-10.724c-17.92 0-32.5 14.579-32.5 32.5v173.971c0 17.921 14.58 32.5 32.5 32.5h10.683v18.152c0 8.547 6.953 15.5 15.5 15.5h58.996c8.547 0 15.5-6.953 15.5-15.5v-18.152h159.064c4.142 0 7.5-3.357 7.5-7.5s-3.358-7.5-7.5-7.5c-9.813 0-247.871 0-259.744 0-9.649 0-17.5-7.851-17.5-17.5v-24.485h482v24.485c0 9.649-7.851 17.5-17.5 17.5h-18.183-74.996-59.077c-4.142 0-7.5 3.357-7.5 7.5s3.358 7.5 7.5 7.5h51.577v18.152c0 8.547 6.953 15.5 15.5 15.5h58.996c8.547 0 15.5-6.953 15.5-15.5v-18.152h10.684c17.92 0 32.5-14.579 32.5-32.5v-31.985-141.985c0-17.921-14.58-32.5-32.5-32.5zm-361.321 238.971v18.152c0 .275-.224.5-.5.5h-58.996c-.276 0-.5-.225-.5-.5v-18.152zm-3.179-125.297c4.687 0 8.5 3.813 8.5 8.5s-3.813 8.5-8.5 8.5h-100v-17zm0-62.362c4.687 0 8.5 3.813 8.5 8.5s-3.813 8.5-8.5 8.5h-100v-17zm338.817 205.811c0 .275-.224.5-.5.5h-58.996c-.276 0-.5-.225-.5-.5v-18.152h59.996zm-8.324-181.385c0 41.666-28.072 76.9-66.296 87.78-7.933 2.258-16.304 3.468-24.952 3.468s-17.018-1.209-24.952-3.468c-38.224-10.88-66.296-46.114-66.296-87.78 0-50.117 40.755-91.248 91.248-91.248 50.636.001 91.248 41.28 91.248 91.248zm-36.866 91.248c31.929-19.136 51.863-53.515 51.865-91.244 0-.001 0-.002 0-.003s0 0 0-.001c0-21.157-6.302-42.487-19.054-60.737h38.062c9.649 0 17.5 7.851 17.5 17.5v134.485z"/></g></g></svg>