<svg id="Capa_1" enable-background="new 0 0 512 512" height="512" viewBox="0 0 512 512" width="512" xmlns="http://www.w3.org/2000/svg"><g><g><path d="m239.545 389.667h32.909v64.802h-32.909z" fill="#5a5a5a"/><path d="m239.545 294.85h32.909v94.817h-32.909z" fill="#5a5a5a"/><path d="m239.545 88.921h32.909v194.778h-32.909z" fill="#5a5a5a"/><g><path d="m345.752 459.304c-8.008 0-14.5-6.492-14.5-14.5v-39.984h-152.499v39.983c0 8.008-6.492 14.5-14.5 14.5s-14.5-6.492-14.5-14.5v-46.117c0-12.822 11.188-22.866 25.47-22.866h159.56c14.282 0 25.47 10.044 25.47 22.866v46.117c-.001 8.008-6.493 14.501-14.501 14.501z" fill="#838383"/></g><g fill="#444"><path d="m408.745 197.347h-31.247c-4.957 0-8.975-4.018-8.975-8.975v-17.95c0-4.957 4.018-8.975 8.975-8.975h31.247c4.957 0 8.975 4.018 8.975 8.975v17.95c.001 4.957-4.018 8.975-8.975 8.975z"/><path d="m134.502 197.347h-31.247c-4.957 0-8.975-4.018-8.975-8.975v-17.95c0-4.957 4.018-8.975 8.975-8.975h31.247c4.957 0 8.975 4.018 8.975 8.975v17.95c0 4.957-4.018 8.975-8.975 8.975z"/><path d="m353.73 504.5h-15.956c-7.16 0-12.964-5.804-12.964-12.964v-43.879c0-7.16 5.804-12.964 12.964-12.964h15.956c7.16 0 12.964 5.804 12.964 12.964v43.879c.001 7.16-5.804 12.964-12.964 12.964z"/><path d="m172.231 504.5h-15.956c-7.16 0-12.964-5.804-12.964-12.964v-43.879c0-7.16 5.804-12.964 12.964-12.964h15.956c7.16 0 12.964 5.804 12.964 12.964v43.879c0 7.16-5.804 12.964-12.964 12.964z"/><path d="m263.978 504.5h-15.956c-7.16 0-12.964-5.804-12.964-12.964v-43.879c0-7.16 5.804-12.964 12.964-12.964h15.956c7.16 0 12.964 5.804 12.964 12.964v43.879c0 7.16-5.804 12.964-12.964 12.964z"/></g><path d="m344.7 315.877h-179.395c-11.046 0-20-8.954-20-20v-26.008c0-11.046 8.954-20 20-20h179.395c11.046 0 20 8.954 20 20v26.008c0 11.045-8.954 20-20 20z" fill="#ca2c2c"/><path d="m344.7 249.869h-39.685c11.046 0 20 8.954 20 20v26.007c0 11.046-8.954 20-20 20h39.685c11.046 0 20-8.954 20-20v-26.007c0-11.046-8.954-20-20-20z" fill="#a72b2b"/><path d="m356.612 42.606c-1.461-19.793-17.946-35.106-37.793-35.106-1.282 0-126.695 0-125.638 0-19.847 0-36.332 15.313-37.793 35.106l-5.086 68.91c-1.621 21.968 15.765 40.685 37.793 40.685 3.248 0 138.087 0 135.81 0 22.028 0 39.414-18.717 37.793-40.685z" fill="#ca2c2c"/><path d="m361.698 111.516-5.086-68.91c-1.461-19.793-17.946-35.106-37.793-35.106-.474 0-17.931 0-39.685 0 19.847 0 36.332 15.313 37.793 35.106l5.086 68.91c1.621 21.968-15.765 40.685-37.793 40.685h.007 39.678c22.028 0 39.414-18.717 37.793-40.685z" fill="#a72b2b"/></g><path d="m408.745 153.946h-31.247c-9.084 0-16.475 7.391-16.475 16.476v17.95c0 9.085 7.391 16.476 16.475 16.476h8.124v53.564c0 5.213-4.24 9.453-9.453 9.453h-4.05c-1.031-14.23-12.93-25.496-27.419-25.496h-9.74c-4.143 0-7.5 3.357-7.5 7.5s3.357 7.5 7.5 7.5h9.74c6.893 0 12.5 5.607 12.5 12.5v26.008c0 6.893-5.607 12.5-12.5 12.5h-72.245c-16.517 0-95.2 0-107.149 0-6.893 0-12.5-5.607-12.5-12.5v-26.008c0-6.893 5.607-12.5 12.5-12.5h134.654c4.143 0 7.5-3.357 7.5-7.5s-3.357-7.5-7.5-7.5h-20.005v-82.668h43.979.02c25.01-.027 45.35-20.359 45.35-45.347 0-2.405.326 2.741-5.212-72.3-1.74-23.581-21.626-42.054-45.273-42.054h-125.638c-17.365 0-32.95 9.663-40.673 25.219-1.842 3.71-.327 8.211 3.383 10.053 3.71 1.843 8.212.327 10.053-3.383 5.171-10.417 15.608-16.889 27.237-16.889h125.639c15.833 0 29.147 12.368 30.313 28.158 5.488 74.362 5.171 69.562 5.171 71.196 0 16.733-13.637 30.347-30.397 30.347-15.286 0-120.803 0-135.811 0-16.761 0-30.396-13.613-30.396-30.347 0-1.64-.238 2.083 3.673-50.914.305-4.131-2.797-7.727-6.928-8.031-4.121-.297-7.727 2.796-8.031 6.928-3.907 52.931-3.714 49.637-3.714 52.018 0 25.004 20.365 45.347 45.396 45.347h43.95v82.668h-66.739c-14.489 0-26.388 11.266-27.419 25.496h-2.056c-5.213 0-9.453-4.24-9.453-9.453v-53.564h8.124c9.084 0 16.475-7.391 16.475-16.476v-17.95c0-9.085-7.391-16.476-16.475-16.476h-31.247c-9.085 0-16.476 7.391-16.476 16.476v17.95c0 9.085 7.391 16.476 16.476 16.476h8.123v53.564c0 13.483 10.97 24.453 24.453 24.453h1.975v13.012c0 15.163 12.337 27.5 27.5 27.5h66.739v44.943h-56.822c-18.487 0-32.97 13.339-32.97 30.366v34.105c-3.956 3.734-6.442 9.009-6.442 14.865v43.879c0 11.284 9.181 20.464 20.465 20.464h15.956c11.284 0 20.464-9.18 20.464-20.464v-43.879c0-5.856-2.486-11.132-6.442-14.866v-20.471h45.792v22.583c-2.801 3.502-4.487 7.931-4.487 12.754v43.879c0 11.284 9.181 20.464 20.465 20.464h15.955c11.284 0 20.465-9.18 20.465-20.464v-43.879c0-4.822-1.687-9.252-4.487-12.754v-22.583h43.797v20.472c-3.956 3.734-6.441 9.009-6.441 14.865v43.879c0 11.284 9.18 20.464 20.464 20.464h15.956c11.284 0 20.464-9.18 20.464-20.464v-43.879c0-5.856-2.486-11.132-6.442-14.866v-34.105c0-17.027-14.482-30.366-32.97-30.366h-54.827v-44.943h64.741c15.163 0 27.5-12.337 27.5-27.5v-13.012h3.969c13.483 0 24.453-10.97 24.453-24.453v-53.564h8.123c9.085 0 16.476-7.391 16.476-16.476v-17.95c0-9.085-7.391-16.476-16.476-16.476zm-161.7 5.755h17.91v82.668h-17.91zm-145.266 28.671v-17.95c0-.813.662-1.476 1.476-1.476h31.247c.813 0 1.475.662 1.475 1.476v17.95c0 .813-.661 1.476-1.475 1.476h-31.247c-.814 0-1.476-.662-1.476-1.476zm75.916 303.164c0 3.013-2.451 5.464-5.464 5.464h-15.956c-3.014 0-5.465-2.451-5.465-5.464v-43.879c0-3.025 2.483-5.465 5.465-5.465h15.955c2.97 0 5.465 2.427 5.465 5.465zm91.747 0c0 3.013-2.451 5.464-5.465 5.464h-15.955c-3.014 0-5.465-2.451-5.465-5.464v-43.879c0-3.003 2.46-5.465 5.465-5.465h15.955c.006 0 .011.001.017.001 2.923.007 5.448 2.401 5.448 5.464zm-4.487-64.32c-.324-.016-.65-.023-.977-.023h-.001-15.955-.001c-.326 0-.652.008-.977.023v-14.896h17.91v14.896zm94.239 64.32c0 3.013-2.451 5.464-5.464 5.464h-15.956c-3.013 0-5.464-2.451-5.464-5.464v-43.879c0-3.082 2.547-5.465 5.464-5.465h15.956c2.95 0 5.464 2.41 5.464 5.465zm-6.442-92.849v28.506h-14v-22.373c0-4.143-3.357-7.5-7.5-7.5-6.784 0-148.734 0-152.499 0-4.143 0-7.5 3.357-7.5 7.5v22.372h-14v-28.506c0-8.616 7.894-15.366 17.97-15.366h159.56c10.075 0 17.969 6.75 17.969 15.367zm-87.797-30.367h-17.91v-44.943h17.91zm145.266-179.948c0 .813-.662 1.476-1.476 1.476h-31.247c-.813 0-1.475-.662-1.475-1.476v-17.95c0-.813.661-1.476 1.475-1.476h31.247c.813 0 1.476.662 1.476 1.476z"/></g></svg>