<svg id="Capa_1" enable-background="new 0 0 512 512" height="512" viewBox="0 0 512 512" width="512" xmlns="http://www.w3.org/2000/svg"><g><g><path d="m413.344 450.045h-314.688v39.499c0 8.26 6.696 14.956 14.956 14.956h284.775c8.26 0 14.956-6.696 14.956-14.956v-39.499z" fill="#5a5a5a"/><path d="m98.656 450.045h314.687v33.455h-314.687z" fill="#444"/><path d="m325.718 420.419-21.866-297.539c-13.885 0-81.831 0-95.704 0l-21.866 297.539z" fill="#d77f4a"/><path d="m303.852 122.881c-6.014 0-22.173 0-39.685 0l21.866 297.539h39.685z" fill="#c86d36"/><circle cx="256" cy="98.284" fill="#ac5e2e" r="90.784"/><path d="m256 7.5c-6.816 0-13.455.757-19.843 2.181 40.594 9.051 70.942 45.281 70.942 88.603s-30.347 79.552-70.942 88.603c6.387 1.424 13.026 2.181 19.843 2.181 50.139 0 90.784-40.646 90.784-90.784s-40.645-90.784-90.784-90.784z" fill="#9e5528"/><path d="m317.27 218.584h-122.54c-13.336 0-24.148-10.811-24.148-24.148v-.004c0-13.336 10.811-24.148 24.148-24.148h122.54c13.336 0 24.148 10.811 24.148 24.148v.004c0 13.337-10.812 24.148-24.148 24.148z" fill="#c86d36"/><path d="m420.516 463.657h-329.032c-4.448 0-8.053-3.606-8.053-8.053v-61.165c0-9.531 7.726-17.257 17.257-17.257h310.625c9.531 0 17.257 7.726 17.257 17.257v61.165c-.001 4.447-3.606 8.053-8.054 8.053z" fill="#c86d36"/><g fill="#ac5e2e"><path d="m317.27 170.286h-39.685c13.336 0 24.148 10.811 24.148 24.147v.003c0 13.336-10.811 24.148-24.148 24.148h39.685c13.336 0 24.148-10.812 24.148-24.148v-.003c0-13.336-10.812-24.147-24.148-24.147z"/><path d="m411.313 377.182h-39.685c9.531 0 17.257 7.726 17.257 17.257v61.165c0 4.447-3.605 8.053-8.053 8.053h39.685c4.448 0 8.053-3.606 8.053-8.053v-61.165c-.001-9.531-7.727-17.257-17.257-17.257z"/></g></g><path d="m411.313 369.682h-81.803l-3.96-53.886c-.304-4.131-3.883-7.242-8.03-6.93-4.131.304-7.233 3.898-6.93 8.029l3.879 52.786c-24.838 0-91.987 0-116.938 0l10.554-143.598h95.832l4.108 55.905c.304 4.131 3.889 7.23 8.03 6.93 4.131-.304 7.233-3.898 6.93-8.029l-4.031-54.851c16.671-.878 29.964-14.717 29.964-31.605 0-13.543-8.553-25.122-20.538-29.631 16.623-17.998 25.905-41.48 25.905-66.519-.001-54.193-44.091-98.283-98.285-98.283-20.214 0-39.006 6.08-54.706 16.622-3.439 2.31-4.354 6.97-2.045 10.408s6.968 4.354 10.407 2.045c13.392-8.995 29.329-14.075 46.344-14.075 45.923 0 83.284 37.361 83.284 83.284 0 25.229-11.121 48.595-30.602 64.501-11.04 0-94.351 0-105.364 0-19.481-15.906-30.602-39.272-30.602-64.501 0-16.748 4.949-32.895 14.311-46.693 2.325-3.428 1.432-8.092-1.996-10.417-3.427-2.326-8.091-1.433-10.417 1.995-11.054 16.294-16.897 35.353-16.897 55.115 0 25.039 9.282 48.521 25.905 66.519-11.986 4.509-20.538 16.088-20.538 29.634 0 16.885 13.293 30.724 29.964 31.602l-10.558 143.643h-81.803c-13.651 0-24.757 11.106-24.757 24.758v61.164c0 8.466 6.802 15.361 15.226 15.537v18.403c0 12.382 10.074 22.456 22.456 22.456h284.775c12.382 0 22.456-10.074 22.456-22.456v-18.403c8.424-.177 15.226-7.072 15.226-15.537v-61.164c0-13.652-11.106-24.758-24.756-24.758zm-233.23-175.248c0-9.18 7.468-16.648 16.647-16.648h122.54c9.179 0 16.647 7.469 16.647 16.651 0 9.18-7.468 16.647-16.647 16.647-6.741 0-115.101 0-122.54 0-9.179 0-16.647-7.468-16.647-16.65zm227.761 295.11c0 4.111-3.345 7.456-7.456 7.456h-284.776c-4.111 0-7.456-3.345-7.456-7.456v-18.387h299.687v18.387zm15.225-33.94c0 .306-.248.554-.553.554-348.233 0-329.585.307-329.585-.554v-61.164c0-5.381 4.377-9.758 9.757-9.758h310.625c5.38 0 9.757 4.377 9.757 9.758v61.164z"/></g></svg>