<svg id="Capa_1" enable-background="new 0 0 511.941 511.941" height="512" viewBox="0 0 511.941 511.941" width="512" xmlns="http://www.w3.org/2000/svg"><g><g><path d="m344.903 464.511h-323.175c-8.276 0-14.985-6.709-14.985-14.985v-427.07c0-8.276 6.709-14.985 14.985-14.985h323.175c8.276 0 14.985 6.709 14.985 14.985v427.07c0 8.276-6.709 14.985-14.985 14.985z" fill="#d3e1f5"/><path d="m344.903 7.471h-39.645c8.276 0 14.985 6.709 14.985 14.985v427.07c0 8.276-6.709 14.985-14.985 14.985h39.645c8.276 0 14.985-6.709 14.985-14.985v-427.07c0-8.276-6.709-14.985-14.985-14.985z" fill="#c0d6f2"/><path d="m329.402 378.859 169.26 120.94c3.998-3.48 6.537-8.593 6.537-14.31v-234.097c0-5.5-2.354-10.439-6.092-13.906z" fill="#fdb441"/><path d="m329.402 378.859-12.159 10.13c-6.668 5.555-16.351 5.555-23.019 0l-12.16-10.13-169.26 120.941c3.333 2.901 7.678 4.671 12.444 4.671h360.97c4.766 0 9.11-1.77 12.444-4.671z" fill="#fea613"/><path d="m112.804 499.8 169.26-120.94-169.705-141.374c-3.738 3.467-6.092 8.406-6.092 13.906v234.098c-.001 5.716 2.538 10.83 6.537 14.31z" fill="#fdb441"/><path d="m294.223 388.989c6.668 5.555 16.351 5.555 23.019 0l181.864-151.503c-3.386-3.14-7.906-5.075-12.889-5.075h-360.97c-4.983 0-9.502 1.935-12.889 5.075z" fill="#fec165"/><path d="m329.402 378.859 169.26 120.94c3.998-3.48 6.537-8.593 6.537-14.31v-234.097c0-5.5-2.354-10.439-6.092-13.906z" fill="#fdb441"/><path d="m329.402 378.859-12.159 10.13c-6.668 5.555-16.351 5.555-23.019 0l-12.16-10.13-169.26 120.941c3.333 2.901 7.678 4.671 12.444 4.671h360.97c4.766 0 9.11-1.77 12.444-4.671z" fill="#fea613"/><path d="m294.223 388.989c6.668 5.555 16.351 5.555 23.019 0l181.864-151.503c-3.386-3.14-7.906-5.075-12.889-5.075h-360.97c-4.983 0-9.502 1.935-12.889 5.075z" fill="#fec165"/><path d="m466.531 476.841c0 8.476 1.151 16.267-6.537 22.958-3.334 2.901-7.678 4.671-12.444 4.671h38.668c4.766 0 9.11-1.77 12.444-4.671z" fill="#fe9901"/><path d="m499.106 237.486-32.575 27.137v212.218l32.131 22.958c3.998-3.48 6.537-8.593 6.537-14.31v-234.097c-.001-5.501-2.355-10.439-6.093-13.906z" fill="#fea613"/><path d="m466.531 251.392v13.231l32.575-27.137c-3.386-3.14-7.906-5.075-12.888-5.075h-38.668c10.42 0 18.981 8.509 18.981 18.981z" fill="#fdb441"/></g><g><path d="m504.471 413.081c4.126 0 7.471-3.345 7.471-7.471v-154.205c0-7.305-3.086-14.355-8.466-19.344-.001-.001-.002-.001-.003-.002-4.904-4.546-11.27-7.05-17.927-7.05h-118.49v-201.871c0-12.358-10.054-22.412-22.412-22.412h-225.662c-4.126 0-7.471 3.345-7.471 7.471s3.345 7.471 7.471 7.471h225.661c4.12 0 7.471 3.352 7.471 7.471v201.871h-226.485c-6.225 0-12.196 2.191-16.955 6.194-.012.01-.025.02-.038.031-.123.104-.241.214-.362.321-.192.168-.386.334-.574.508-5.38 4.988-8.466 12.039-8.466 19.344v30.074h-38.264c-4.126 0-7.471 3.345-7.471 7.471s3.345 7.471 7.471 7.471h38.263v41.529h-38.263c-4.126 0-7.471 3.345-7.471 7.471s3.345 7.471 7.471 7.471h38.263v103.54h-76.821c-4.12 0-7.471-3.352-7.471-7.471v-425.826c0-4.119 3.351-7.471 7.471-7.471h61.707c4.126 0 7.471-3.345 7.471-7.471s-3.345-7.471-7.471-7.471h-61.707c-12.358.001-22.412 10.054-22.412 22.413v425.823c0 12.358 10.054 22.412 22.412 22.412h76.821v13.446c0 7.62 3.308 14.871 9.075 19.895l.009.009c4.811 4.187 10.959 6.492 17.312 6.492h359.917c6.353 0 12.501-2.306 17.312-6.492.003-.003.006-.006.009-.009 5.767-5.024 9.075-12.275 9.075-19.895v-44.346c0-4.126-3.345-7.471-7.471-7.471s-7.471 3.346-7.471 7.472c0 48.158.263 45.645-.695 48.256-3.62-2.587-150.878-107.807-154.902-110.682l155.274-129.352c.479 1.973.322-7.976.322 156.915.001 4.125 3.346 7.47 7.472 7.47zm-144.887-173.131h124.246c-18.196 15.158-154.219 128.473-171.55 142.911-3.878 3.231-9.509 3.23-13.388 0v-.001c-4.202-3.501-160.799-133.955-171.549-142.91zm-244.715 248.779c-1.033-2.818-.695 12.308-.695-237.324 0-.435.029-.865.076-1.29.016-.138.043-.273.064-.411.042-.285.089-.569.153-.848.012-.052.028-.101.04-.153l155.263 129.343c-4.021 2.875-151.28 108.096-154.901 110.683zm15.14 7.545c7.544-5.391 145.904-104.252 151.627-108.342l7.693 6.409v-.001c9.49 7.909 23.199 7.763 32.515.001l7.693-6.409c6.403 4.575 145.684 104.095 151.627 108.342z"/><path d="m183.528 55.598h-122.558c-4.126 0-7.471 3.345-7.471 7.471s3.345 7.471 7.471 7.471h122.558c4.126 0 7.471-3.345 7.471-7.471s-3.345-7.471-7.471-7.471z"/><path d="m305.796 112.068h-244.826c-4.126 0-7.471 3.345-7.471 7.471s3.345 7.471 7.471 7.471h244.826c4.126 0 7.471-3.345 7.471-7.471s-3.345-7.471-7.471-7.471z"/><path d="m305.796 168.539h-244.826c-4.126 0-7.471 3.345-7.471 7.471s3.345 7.471 7.471 7.471h244.826c4.126 0 7.471-3.345 7.471-7.471s-3.345-7.471-7.471-7.471z"/></g></g></svg>