<svg id="Capa_1" enable-background="new 0 0 512 512" height="512" viewBox="0 0 512 512" width="512" xmlns="http://www.w3.org/2000/svg"><g><g><path d="m256 54.031 84.291-44.631c5.529-2.928 12.244-2.441 17.294 1.252l59.303 43.379-86.657 65.883c-4.216 3.205-10.173 2.699-13.788-1.171z" fill="#d3e1f5"/><path d="m462.753 504.5h-413.506c-8.976 0-16.253-7.277-16.253-16.253v-417.963c0-8.976 7.277-16.253 16.253-16.253h413.507c8.976 0 16.253 7.277 16.253 16.253v417.964c-.001 8.976-7.277 16.252-16.254 16.252z" fill="#d3e1f5"/><path d="m284.115 163.699-28.115-41.679-28.115 41.679-41.098 262.758c-.793 5.069.894 10.212 4.535 13.827l57.633 57.221c3.899 3.871 10.192 3.871 14.091 0l57.633-57.221c3.641-3.615 5.328-8.757 4.535-13.827z" fill="#5a5a5a"/><g fill="#c0d6f2"><path d="m357.585 10.652c-5.049-3.694-11.765-4.18-17.294-1.252l-13.982 7.403 50.894 37.228-70.875 53.884 10.114 10.828c3.615 3.87 9.572 4.376 13.788 1.171l86.658-65.883z"/><path d="m462.754 54.031h-39.685c8.976 0 16.252 7.277 16.252 16.253v417.963c0 8.977-7.276 16.253-16.252 16.253h39.685c8.976 0 16.252-7.276 16.252-16.253v-417.963c0-8.976-7.276-16.253-16.252-16.253z"/><path d="m256 54.031-84.291-44.631c-5.529-2.928-12.244-2.441-17.294 1.252l-59.303 43.379 86.657 65.883c4.216 3.205 10.173 2.699 13.788-1.171z"/></g><path d="m284.115 163.699-28.115-41.68-17.008 25.213 11.107 16.466 42.36 270.829-53.468 53.086 9.962 9.891c3.899 3.871 10.192 3.871 14.091 0l57.633-57.222c3.641-3.615 5.328-8.757 4.535-13.827z" fill="#444"/><path d="m256 54.031-47.292 50.634 19.177 59.034h56.23l19.177-59.034z" fill="#5a5a5a"/><path d="m256 54.031-17.008 18.209 30.285 32.424-19.178 59.034h34.016l19.177-59.034z" fill="#444"/></g><path d="m462.754 46.532h-43.416l-57.324-41.932c-7.319-5.354-17.221-6.072-25.232-1.828l-80.782 42.773-80.78-42.773c-7.855-4.161-17.667-3.705-25.233 1.827l-5.927 4.336c-3.343 2.446-4.071 7.139-1.625 10.481 2.445 3.346 7.14 4.071 10.481 1.626l5.927-4.336c2.794-2.044 6.43-2.227 9.356-.679l75.63 40.046c-12.35 13.223-42.258 45.244-53.753 57.551-.091.097-.184.184-.278.261-.972.799-2.425.868-3.49.058l-78.651-59.796 17.009-12.442c3.343-2.446 4.071-7.139 1.625-10.481-2.445-3.345-7.14-4.071-10.481-1.626l-23.15 16.934h-43.413c-13.097 0-23.752 10.655-23.752 23.752v417.964c-.001 13.097 10.655 23.752 23.752 23.752h331.075c4.143 0 7.5-3.357 7.5-7.5s-3.357-7.5-7.5-7.5h-106.123l51.764-51.395c5.332-5.293 7.822-12.886 6.661-20.309l-40.822-260.986 14.692-45.229 4.466 4.782c.001.001.001.001.002.002l.001.001c.034.037.074.068.108.104 3.49 3.674 8.179 5.567 12.907 5.567 3.757 0 7.589-1.216 10.79-3.651l84.646-64.354h43.338c4.826 0 8.752 3.926 8.752 8.752v417.964c0 4.826-3.926 8.753-8.752 8.753h-47.433c-4.143 0-7.5 3.357-7.5 7.5s3.357 7.5 7.5 7.5h47.433c13.097 0 23.752-10.655 23.752-23.753v-417.964c.002-13.097-10.653-23.752-23.75-23.752zm-118.953-30.504c2.972-1.572 6.643-1.307 9.356.679l51.186 37.441-78.651 59.796c-1.116.849-2.759.759-3.768-.319l-53.754-57.551zm-294.554 480.972c-4.826 0-8.752-3.927-8.752-8.753v-417.963c0-4.826 3.926-8.752 8.752-8.752h43.338l84.647 64.354c2.978 2.265 6.719 3.635 10.781 3.635 4.921 0 9.669-2.063 13.027-5.657l4.466-4.781 14.693 45.231-40.822 260.986c-1.16 7.423 1.33 15.015 6.661 20.308l51.764 51.392zm266.148-62.039-57.633 57.222c-.971.965-2.552.965-3.523 0l-57.633-57.222c-1.929-1.915-2.829-4.661-2.409-7.346l40.106-256.415h43.395l40.106 256.416c.42 2.684-.481 5.43-2.409 7.345zm-36.729-278.762h-45.332l-16.127-49.646c7.657-8.198 29.914-32.027 38.793-41.533l38.793 41.533z"/></g></svg>