<svg id="Capa_1" enable-background="new 0 0 512 512" height="512" viewBox="0 0 512 512" width="512" xmlns="http://www.w3.org/2000/svg"><g><g><circle cx="256" cy="256" fill="#ca2c2c" r="248.5"/><circle cx="256" cy="256" fill="#d3e1f5" r="206.5"/><g><path d="m256 271c-8.284 0-15-6.716-15-15v-112c0-8.284 6.716-15 15-15s15 6.716 15 15v112c0 8.284-6.716 15-15 15z" fill="#0055a3"/></g><g><path d="m338 271h-82.001c-8.284 0-15-6.716-15-15s6.716-15 15-15h82.001c8.284 0 15 6.716 15 15s-6.716 15-15 15z" fill="#528fd8"/></g><circle cx="256" cy="256" fill="#383838" r="22.5"/></g><g><path d="m256 0c-141.491 0-256 114.497-256 256 0 50.759 14.826 99.818 42.877 141.873 2.299 3.447 6.955 4.379 10.401 2.078 3.445-2.298 4.376-6.955 2.077-10.4-26.4-39.583-40.355-85.765-40.355-133.551 0-132.888 108.112-241 241-241 53.868 0 104.807 17.375 147.308 50.246.003.001.005.003.007.005 59.538 46.051 93.685 115.576 93.685 190.749 0 132.888-108.112 241-241 241-68.617 0-134.188-29.39-179.901-80.633-2.757-3.089-7.496-3.36-10.59-.604-3.091 2.758-3.361 7.498-.604 10.589 48.556 54.431 118.207 85.648 191.095 85.648 141.491 0 256-114.497 256-256 0-140.855-114.013-256-256-256z"/><path d="m338.896 58.707c-26.29-11.086-54.18-16.707-82.896-16.707-118 0-214 96-214 214s96 214 214 214 214-96 214-214c0-73.334-37.022-140.784-99.035-180.432-3.49-2.23-8.127-1.21-10.359 2.279-2.23 3.49-1.211 8.128 2.279 10.359 10.214 6.53 19.683 13.885 28.377 21.924l-17.53 17.53c-2.929 2.93-2.929 7.678 0 10.607 2.931 2.929 7.678 2.928 10.607 0l17.558-17.558c32.173 34.569 51.157 79.609 52.948 127.791h-24.845c-4.143 0-7.5 3.357-7.5 7.5s3.357 7.5 7.5 7.5h24.844c-1.834 49.219-21.623 93.92-53.001 127.736l-17.503-17.503c-2.93-2.928-7.678-2.928-10.607 0-2.929 2.93-2.929 7.678 0 10.607l17.503 17.503c-33.815 31.378-78.516 51.168-127.736 53.001v-24.844c0-4.143-3.357-7.5-7.5-7.5s-7.5 3.357-7.5 7.5v24.844c-49.219-1.834-93.92-21.623-127.736-53.001l17.503-17.503c2.929-2.93 2.929-7.678 0-10.607-2.93-2.928-7.678-2.928-10.607 0l-17.503 17.503c-31.378-33.816-51.168-78.517-53.001-127.736h24.844c4.143 0 7.5-3.357 7.5-7.5s-3.357-7.5-7.5-7.5h-24.844c1.834-49.219 21.623-93.92 53.001-127.736l17.503 17.503c2.931 2.929 7.678 2.928 10.607 0 2.929-2.93 2.929-7.678 0-10.607l-17.503-17.503c33.816-31.378 78.517-51.168 127.736-53.001v24.844c0 4.143 3.357 7.5 7.5 7.5s7.5-3.357 7.5-7.5v-24.847c24.058.888 47.428 6.039 69.568 15.376 3.815 1.606 8.215-.18 9.825-3.997 1.61-3.816-.18-8.215-3.997-9.825z"/><path d="m152.695 359.303c1.465 1.464 3.385 2.196 5.304 2.196s3.839-.732 5.304-2.196l77.555-77.555c4.476 2.688 9.664 4.252 15.142 4.252 7.408 0 14.288-2.858 19.588-7.5h62.412c12.406 0 22.5-10.094 22.5-22.5s-10.094-22.5-22.5-22.5h-59.5v-89.5c0-12.406-10.094-22.5-22.5-22.5s-22.5 10.094-22.5 22.5v92.412c-4.642 5.301-7.5 12.18-7.5 19.588 0 5.477 1.563 10.664 4.251 15.139l-77.556 77.556c-2.928 2.93-2.928 7.678 0 10.608zm94.245-91.551c-.672-1.151-1.546-2.023-2.693-2.693-2.01-2.557-3.247-5.718-3.247-9.059 0-8.467 7.875-15.826 16.442-14.922.09.009.179.028.269.039 6.688.84 12.329 6.458 13.173 13.173.011.09.03.178.039.269.9 8.539-6.428 16.441-14.923 16.441-3.341 0-6.502-1.237-9.06-3.248zm91.06-19.252c4.136 0 7.5 3.364 7.5 7.5s-3.364 7.5-7.5 7.5h-52.98c1.24-4.677 1.349-9.915 0-15zm-89.5-104.5c0-4.136 3.364-7.5 7.5-7.5s7.5 3.364 7.5 7.5v82.98c-4.705-1.248-9.984-1.33-15 0z"/></g></g></svg>