<svg id="Capa_1" enable-background="new 0 0 512.021 512.021" height="512" viewBox="0 0 512.021 512.021" width="512" xmlns="http://www.w3.org/2000/svg"><g><g><path d="m396.444 65.757v395.693c0 23.221 18.404 42.648 41.622 43.035 23.718.395 43.068-18.712 43.068-42.339v-389.39c0-3.866-3.134-7-7-7h-77.69z" fill="#acacac"/><path d="m446.135 35.508c-10.816 0-91.228 0-102.394 0v440.984h55.396c8.088 21.889 31.895 33.458 53.998 25.5 0-10.865 0-445.917 0-459.485 0-3.866-3.134-6.999-7-6.999z" fill="#bfbfbf"/><path d="m396.444 462.146v-351.489h-365.558v351.489c0 23.386 18.958 42.345 42.345 42.345h365.557c-23.386 0-42.344-18.958-42.344-42.345z" fill="#e2e2e2"/><path d="m30.886 14.508v118.459h365.557v-118.459c0-3.866-3.134-7-7-7h-351.557c-3.866.001-7 3.134-7 7z" fill="#838383"/><path d="m195.047 336.871h-108.87c-7.732 0-14-6.268-14-14v-108.87c0-7.732 6.268-14 14-14h108.87c7.732 0 14 6.268 14 14v108.87c0 7.732-6.268 14-14 14z" fill="#9c9c9c"/><path d="m396.444 462.146v-351.489h-39.684v351.489c0 23.387 18.958 42.345 42.345 42.345h39.684c-23.387 0-42.345-18.958-42.345-42.345z" fill="#cecece"/><path d="m389.444 7.509h-39.684c3.866 0 7 3.134 7 7v118.459h39.684v-118.46c0-3.866-3.134-6.999-7-6.999z" fill="#5a5a5a"/></g><g><path d="m125.727 29.813c-4.143 0-7.5 3.357-7.5 7.5v46.158l-45.61-51.149c-2.069-2.322-5.357-3.125-8.269-2.018-2.907 1.108-4.829 3.897-4.829 7.009v65.838c0 4.143 3.357 7.5 7.5 7.5s7.5-3.357 7.5-7.5v-46.159l45.61 51.149c2.071 2.323 5.36 3.124 8.269 2.018 2.907-1.108 4.829-3.897 4.829-7.009v-65.837c0-4.143-3.357-7.5-7.5-7.5z"/><path d="m192.711 45.558c4.143 0 7.5-3.357 7.5-7.5s-3.357-7.5-7.5-7.5h-39.704c-4.143 0-7.5 3.357-7.5 7.5v65.093c0 4.143 3.357 7.5 7.5 7.5h39.704c4.143 0 7.5-3.357 7.5-7.5s-3.357-7.5-7.5-7.5h-32.204v-17.92h32.204c4.143 0 7.5-3.357 7.5-7.5s-3.357-7.5-7.5-7.5h-32.204v-17.173z"/><path d="m292.502 30.049c-4.011-1.035-8.1 1.385-9.131 5.396l-12.431 48.357-10.337-17.402c-1.352-2.274-3.802-3.669-6.448-3.669s-5.097 1.395-6.448 3.669l-10.338 17.402-12.431-48.357c-1.031-4.011-5.117-6.433-9.131-5.396-4.012 1.031-6.428 5.119-5.396 9.131l16.924 65.838c.754 2.935 3.201 5.128 6.2 5.557 2.996.437 5.964-.987 7.512-3.593l13.108-22.065 13.108 22.065c1.364 2.296 3.827 3.669 6.446 3.669 3.423 0 6.414-2.316 7.266-5.633l16.924-65.838c1.031-4.012-1.385-8.1-5.397-9.131z"/><path d="m327.132 44.813h33.176c4.143 0 7.5-3.357 7.5-7.5s-3.357-7.5-7.5-7.5h-33.176c-11.602 0-21.04 10.748-21.04 23.96 0 13.211 9.438 23.959 21.04 23.959h19.636c2.856 0 6.04 3.68 6.04 8.96 0 5.279-3.184 8.959-6.04 8.959h-33.176c-4.143 0-7.5 3.357-7.5 7.5s3.357 7.5 7.5 7.5h33.176c11.602 0 21.04-10.748 21.04-23.959 0-13.212-9.438-23.96-21.04-23.96h-19.636c-2.856 0-6.04-3.68-6.04-8.959 0-5.281 3.184-8.96 6.04-8.96z"/><path d="m86.171 344.374h108.874c11.855 0 21.5-9.645 21.5-21.5v-108.874c0-11.855-9.645-21.5-21.5-21.5h-108.874c-11.855 0-21.5 9.645-21.5 21.5v108.874c0 11.855 9.645 21.5 21.5 21.5zm-6.5-130.374c0-3.584 2.916-6.5 6.5-6.5h108.874c3.584 0 6.5 2.916 6.5 6.5v108.874c0 3.584-2.916 6.5-6.5 6.5h-108.874c-3.584 0-6.5-2.916-6.5-6.5z"/><path d="m359.792 232.591h-105.637c-4.143 0-7.5 3.357-7.5 7.5s3.357 7.5 7.5 7.5h105.637c4.143 0 7.5-3.357 7.5-7.5s-3.358-7.5-7.5-7.5z"/><path d="m359.792 289.283h-105.637c-4.143 0-7.5 3.357-7.5 7.5s3.357 7.5 7.5 7.5h105.637c4.143 0 7.5-3.357 7.5-7.5s-3.358-7.5-7.5-7.5z"/><path d="m359.792 374.323h-287.621c-4.143 0-7.5 3.357-7.5 7.5s3.357 7.5 7.5 7.5h287.62c4.143 0 7.5-3.357 7.5-7.5s-3.357-7.5-7.499-7.5z"/><path d="m359.792 431.016h-287.621c-4.143 0-7.5 3.357-7.5 7.5s3.357 7.5 7.5 7.5h287.62c4.143 0 7.5-3.357 7.5-7.5s-3.357-7.5-7.499-7.5z"/><path d="m474.142 58.25h-13.5v-15.75c0-7.995-6.505-14.5-14.5-14.5h-42.193v-13.5c0-7.995-6.505-14.5-14.5-14.5h-351.571c-7.995 0-14.5 6.505-14.5 14.5v447.653c0 27.486 22.362 49.847 49.847 49.847h364.878c.247.004.493.021.739.021 27.406 0 49.8-22.41 49.8-49.867v-389.404c0-7.995-6.505-14.5-14.5-14.5zm-435.764-43.25h350.57v110.463h-350.57zm34.847 482c-19.215 0-34.847-15.632-34.847-34.847v-321.69h350.57v321.69c0 12.794 4.924 25.333 14.236 34.847zm372.417-.663c-21.373 4.361-41.693-12.271-41.693-34.184v-329.19-89.963h41.693zm28-34.184c0 10.712-4.951 20.638-13 27.14v-416.043h13z"/></g></g></svg>